<?xml version="1.0" encoding="iso-8859-1"?>
<!-- Generator: Adobe Illustrator 18.0.0, SVG Export Plug-In . SVG Version: 6.00 Build 0)  -->
<!DOCTYPE svg PUBLIC "-//W3C//DTD SVG 1.1//EN" "http://www.w3.org/Graphics/SVG/1.1/DTD/svg11.dtd">
<svg version="1.1" id="Capa_1" xmlns="http://www.w3.org/2000/svg" xmlns:xlink="http://www.w3.org/1999/xlink" x="0px" y="0px"
	 viewBox="0 0 495.5 495.5" style="enable-background:new 0 0 495.5 495.5;" xml:space="preserve">
<g>
	<path d="M435.986,282.041c-23.508-9.357-71.611-25.663-134.747-32.309c7.067-9.579,10.763-21.773,10.763-35.976
		c0-18.45-9.157-31.074-18.852-44.439C280.009,151.203,265.115,130.67,264,88.316c-0.268-10.183-6.661-10.975-8.614-10.975
		c-4.659,0-10.513,3.634-17.896,11.109c-22.847,23.135-54.438,77.451-53.989,113.358c0.236,18.841,5.445,35.127,14.318,47.388
		c-63.964,6.364-113.037,22.845-137.063,32.335C50.612,285.54,0,306.336,0,322.194c0,24.927,6.651,48.352,19.768,69.624
		c12.468,20.221,30.466,38.023,53.494,52.914c45.149,29.195,107.117,45.274,174.488,45.274s129.339-16.079,174.488-45.274
		c23.027-14.891,41.025-32.693,53.494-52.914c13.117-21.272,19.768-44.697,19.768-69.624
		C495.499,306.524,445.924,285.998,435.986,282.041z M478.735,366.454c-50.934-1.416-228.22-41.741-230.04-42.156
		c-0.624-0.143-1.271-0.142-1.894,0.001c-1.833,0.419-180.43,41.186-230.05,42.12c-4.572-11.779-7.309-24.214-8.038-37.186
		c10.358,1.333,38.62-0.391,124.074-17.264c54.093-10.681,107.249-22.758,114.962-24.52c7.713,1.762,60.869,13.839,114.962,24.52
		c71.4,14.098,102.875,17.62,117.34,17.62c2.853,0,5.029-0.14,6.735-0.359C486.057,342.215,483.316,354.664,478.735,366.454z
		 M245.085,273.339c5.621,0,10.993-0.432,16.082-1.266v9.694c-7.75-1.738-12.307-2.784-12.464-2.82
		c-0.626-0.145-1.278-0.145-1.904,0c-0.158,0.036-4.714,1.082-12.465,2.82v-9.376C237.797,273.006,241.381,273.339,245.085,273.339z
		 M486.415,320.74c-3.071,0.641-11.061,0.954-31.768-1.634c-4.85-11.163-33.657-23.428-43.046-27.172
		c-17.757-7.08-54.805-19.58-103.414-23.745c-2.343-0.203-4.397,1.533-4.597,3.871c-0.201,2.339,1.533,4.397,3.872,4.598
		c46.324,3.97,81.901,15.727,98.985,22.382c18.691,7.28,29.933,13.906,35.67,18.362c-18.252-2.657-43.703-7.029-79.202-14.057
		c-36.117-7.15-71.644-14.88-93.247-19.681V270.22c8.246-2.267,15.541-5.737,21.616-10.367c0.962-0.733,1.884-1.503,2.782-2.292
		c64.775,6.041,114.256,22.676,138.04,32.085C466.447,303.233,483.181,315.57,486.415,320.74z M243.539,94.423
		c7.092-7.182,10.568-8.354,11.573-8.544c0.144,0.378,0.352,1.174,0.392,2.659c1.184,44.99,17.586,67.602,30.766,85.771
		c9.628,13.272,17.232,23.756,17.232,39.447c0,46.105-40.852,51.083-58.417,51.083c-30.79,0-52.618-25.963-53.083-63.136
		C191.58,167.996,221.735,116.502,243.539,94.423z M64.661,289.13c24.254-9.52,74.568-26.274,139.952-32.032
		c6.043,5.915,13.193,10.389,21.22,13.123v13.444c-21.6,4.8-57.117,12.527-93.23,19.676c-31.685,6.272-55.36,10.429-73.063,13.14
		c6.048-4.423,17-10.647,34.444-17.441c17.084-6.655,52.661-18.412,98.985-22.382c2.339-0.2,4.072-2.259,3.872-4.598
		s-2.267-4.07-4.597-3.871c-48.609,4.165-85.657,16.665-103.414,23.745c-9.198,3.668-37.027,15.512-42.719,26.487
		c-24.629,3.316-33.697,3.01-37.019,2.319C12.392,315.476,29.52,302.923,64.661,289.13z M247.75,481.506
		c-90.249,0-164.375-28.401-205.132-73.69c17.425-2.172,38.445-6.315,62.298-11.019c6.016-1.187,12.197-2.405,18.524-3.633
		c2.304-0.446,3.81-2.677,3.363-4.982c-0.447-2.304-2.679-3.81-4.981-3.362c-6.336,1.229-12.527,2.449-18.551,3.638
		c-26.323,5.191-49.156,9.689-67.235,11.55c-6.235-7.959-11.49-16.383-15.684-25.213c53.158-2.492,212.04-38.492,227.398-41.995
		c15.323,3.481,173.345,39.159,227.391,42.006C444.693,438.889,358.311,481.506,247.75,481.506z"/>
	<path d="M203.037,368.041c-20.821,4.52-40.779,8.707-59.321,12.446c-2.301,0.464-3.79,2.705-3.326,5.006
		c0.407,2.018,2.18,3.411,4.162,3.411c0.278,0,0.561-0.027,0.845-0.085c18.583-3.748,38.583-7.943,59.443-12.472
		c2.294-0.498,3.75-2.761,3.252-5.055C207.594,368.999,205.333,367.544,203.037,368.041z"/>
	<path d="M433.332,381.115c-1.915-1.357-4.567-0.904-5.925,1.012c-23.182,32.73-65.601,56.434-119.444,66.747
		c-2.306,0.441-3.816,2.668-3.375,4.974c0.39,2.035,2.171,3.451,4.169,3.451c0.265,0,0.534-0.025,0.804-0.077
		c56.01-10.728,100.325-35.652,124.782-70.183C435.701,385.124,435.248,382.471,433.332,381.115z"/>
	<path d="M278.496,202.418c0,2.348,1.903,4.25,4.25,4.25c2.347,0,4.25-1.902,4.25-4.25c0-13.662-6.697-22.248-13.788-31.338
		c-9.262-11.874-19.76-25.332-20.545-55.188c-0.061-2.308-1.951-4.138-4.247-4.138c-0.038,0-0.076,0-0.114,0.002
		c-2.346,0.062-4.198,2.014-4.137,4.36c0.859,32.652,12.77,47.921,22.34,60.19C273.205,184.896,278.496,191.679,278.496,202.418z"/>
	<path d="M245.085,248.869c2.347,0,4.25-1.902,4.25-4.25c0-2.348-1.903-4.25-4.25-4.25c-18.702,0-31.962-15.899-32.247-38.665
		c-0.029-2.348-1.953-4.265-4.303-4.197c-2.347,0.029-4.226,1.956-4.196,4.303C204.686,229.517,221.441,248.869,245.085,248.869z"/>
	<path d="M255.987,55.994c2.347,0,4.25-1.902,4.25-4.25v-42c0-2.348-1.903-4.25-4.25-4.25c-2.347,0-4.25,1.902-4.25,4.25v42
		C251.737,54.091,253.64,55.994,255.987,55.994z"/>
	<path d="M324.07,153.411c0,2.348,1.903,4.25,4.25,4.25h42c2.347,0,4.25-1.902,4.25-4.25c0-2.348-1.903-4.25-4.25-4.25h-42
		C325.973,149.161,324.07,151.063,324.07,153.411z"/>
	<path d="M306.471,100.511c1.088,0,2.175-0.415,3.005-1.245l29.698-29.699c1.66-1.659,1.66-4.351,0-6.01
		c-1.66-1.66-4.351-1.66-6.011,0l-29.698,29.699c-1.66,1.659-1.66,4.351,0,6.01C304.296,100.096,305.383,100.511,306.471,100.511z"
		/>
	<path d="M128.181,157.661h42c2.347,0,4.25-1.902,4.25-4.25c0-2.348-1.903-4.25-4.25-4.25h-42c-2.347,0-4.25,1.902-4.25,4.25
		C123.931,155.758,125.834,157.661,128.181,157.661z"/>
	<path d="M189.025,99.266c0.83,0.83,1.917,1.245,3.005,1.245c1.087,0,2.175-0.415,3.005-1.245c1.66-1.659,1.66-4.35,0-6.01
		l-29.698-29.699c-1.66-1.66-4.351-1.661-6.011,0c-1.66,1.659-1.66,4.35,0,6.01L189.025,99.266z"/>
</g>
<g>
</g>
<g>
</g>
<g>
</g>
<g>
</g>
<g>
</g>
<g>
</g>
<g>
</g>
<g>
</g>
<g>
</g>
<g>
</g>
<g>
</g>
<g>
</g>
<g>
</g>
<g>
</g>
<g>
</g>
</svg>
