<?xml version="1.0" encoding="iso-8859-1"?>
<!-- Generator: Adobe Illustrator 18.0.0, SVG Export Plug-In . SVG Version: 6.00 Build 0)  -->
<!DOCTYPE svg PUBLIC "-//W3C//DTD SVG 1.1//EN" "http://www.w3.org/Graphics/SVG/1.1/DTD/svg11.dtd">
<svg version="1.1" id="Capa_1" xmlns="http://www.w3.org/2000/svg" xmlns:xlink="http://www.w3.org/1999/xlink" x="0px" y="0px"
	 viewBox="0 0 494.421 494.421" style="enable-background:new 0 0 494.421 494.421;" xml:space="preserve">
<g>
	<path d="M439.353,195.826c2.347,0,4.25-1.902,4.25-4.25c0-2.348-1.903-4.25-4.25-4.25c-23,0-41.713,18.712-41.713,41.712
		c0,2.348,1.903,4.25,4.25,4.25s4.25-1.902,4.25-4.25C406.14,210.725,421.04,195.826,439.353,195.826z"/>
	<path d="M475.287,224.788c-2.347,0-4.25,1.902-4.25,4.25c0,17.471-14.213,31.684-31.684,31.684c-2.347,0-4.25,1.902-4.25,4.25
		c0,2.348,1.903,4.25,4.25,4.25c22.157,0,40.184-18.026,40.184-40.184C479.537,226.691,477.634,224.788,475.287,224.788z"/>
	<path d="M467.229,229.038c0-15.37-12.505-27.875-27.876-27.875c-15.371,0-27.875,12.505-27.875,27.875
		c0,15.371,12.505,27.876,27.875,27.876C454.724,256.914,467.229,244.409,467.229,229.038z M419.978,229.038
		c0-10.684,8.692-19.375,19.375-19.375c10.684,0,19.376,8.691,19.376,19.375c0,10.684-8.692,19.376-19.376,19.376
		C428.669,248.414,419.978,239.722,419.978,229.038z"/>
	<path d="M439.353,173.971c-13.711,0-24.595,6.154-35.122,12.105c-5.051,2.856-10.275,5.81-15.802,8.086
		c-12.111,4.986-28.543,8.564-47.672,11.052c-9.607-12.668-21.604-23.465-34.864-31.349c-11.788-18.731-27.473-31.353-44.867-36.272
		c2.135-3.212,3.334-7.025,3.334-10.981c0-10.961-8.918-19.879-19.88-19.879c-10.961,0-19.879,8.918-19.879,19.879
		c0,3.956,1.199,7.77,3.333,10.981c-17.394,4.92-33.081,17.543-44.869,36.274c-12.938,7.729-26.34,19.973-36.38,33.189
		c-54.913-3.07-96.787-7.365-97.826-7.474c-0.393-0.043-0.786-0.028-1.174,0.04l-44.167,7.725C1.484,207.703,0,209.47,0,211.534
		c0,2.064,1.483,3.83,3.517,4.187c33.726,5.902,77.142,17.729,113.82,57.127c20.787,22.326,38.661,39.586,58.325,51.247
		c13.72,8.137,28.155,13.345,44.265,15.902c-9.237,4.536-17.2,11.185-25.417,18.048c-9.449,7.892-19.22,16.055-31.721,21.496
		c-1.846,0.803-2.875,2.792-2.464,4.763c0.41,1.971,2.148,3.384,4.161,3.384h161.027c1.95,0,3.649-1.326,4.123-3.218
		c0.474-1.891-0.4-3.861-2.119-4.78c-13.723-7.334-23.706-15.587-32.514-22.868c-7.904-6.533-15.231-12.586-23.813-16.794
		c37.346-5.708,61.505-24.675,102.428-56.842c7.139-5.611,15.122-11.887,23.747-18.54c10.416,12.258,25.808,19.46,41.988,19.46
		c30.364,0,55.067-24.703,55.067-55.067C494.421,198.674,469.717,173.971,439.353,173.971z M187.304,181.249h19.783
		c2.347,0,4.25-1.902,4.25-4.25c0-2.348-1.903-4.25-4.25-4.25h-12.996c11.77-16.127,26.858-26.145,43.105-28.448
		c1.791-0.254,3.224-1.612,3.573-3.387c0.349-1.774-0.462-3.575-2.022-4.488c-3.483-2.04-5.647-5.801-5.647-9.814
		c0-6.274,5.105-11.379,11.379-11.379c6.275,0,11.38,5.104,11.38,11.379c0,4.014-2.164,7.774-5.647,9.814
		c-1.56,0.913-2.371,2.714-2.022,4.488c0.35,1.774,1.783,3.133,3.573,3.387c16.247,2.304,31.334,12.321,43.105,28.448h-45.311
		c-2.347,0-4.25,1.902-4.25,4.25c0,2.348,1.903,4.25,4.25,4.25h52.104c10.875,6.482,20.84,15.078,29.175,25.133
		c-25.364,2.699-54.628,3.73-84.515,3.73c-30.254-0.001-61.129-1.056-89.21-2.497C165.943,197.062,176.796,187.546,187.304,181.249z
		 M290.3,363.962h-44.82c-2.347,0-4.25,1.902-4.25,4.25c0,2.348,1.903,4.25,4.25,4.25h55.407c2.912,2.231,5.994,4.485,9.33,6.725
		H181.036c6.872-4.552,12.96-9.637,18.924-14.619c14.086-11.766,26.252-21.928,45.04-21.928c19.508,0,30.027,8.696,44.587,20.732
		C289.822,363.568,290.064,363.767,290.3,363.962z M439.353,275.606c-14.92,0-29.049-7.245-37.795-19.381
		c-0.672-0.932-1.693-1.553-2.83-1.72c-1.137-0.166-2.293,0.134-3.206,0.834c-9.946,7.636-19.09,14.822-27.157,21.164
		c-10.066,7.912-19.011,14.938-27.32,21.136h-44.601c-2.347,0-4.25,1.902-4.25,4.25c0,2.348,1.903,4.25,4.25,4.25h32.807
		c-26.828,18.539-48.638,27.242-84.252,27.242c-40.381,0-66.135-12.807-96.253-40.832h17.909c2.347,0,4.25-1.902,4.25-4.25
		c0-2.348-1.903-4.25-4.25-4.25h-26.728c-4.358-4.336-8.84-8.976-13.492-13.924h63.661c2.347,0,4.25-1.902,4.25-4.25
		c0-2.348-1.903-4.25-4.25-4.25h-71.822c-7.826-7.762-15.888-14.421-24.058-20.118c37.516,2.698,120.975,7.795,189.466,5.43
		c2.346-0.08,4.182-2.048,4.101-4.394c-0.08-2.345-2.039-4.172-4.394-4.101c-81.344,2.801-184.097-4.979-204.719-6.64
		c-17.633-9.804-35.347-15.84-51.818-19.907l21.714-3.798c17.159,1.77,263.974,26.503,343.099-6.076
		c6.015-2.477,11.472-5.561,16.75-8.546c10.01-5.659,19.464-11.005,30.938-11.005c25.677,0,46.567,20.89,46.567,46.567
		C485.921,254.716,465.03,275.606,439.353,275.606z"/>
</g>
<g>
</g>
<g>
</g>
<g>
</g>
<g>
</g>
<g>
</g>
<g>
</g>
<g>
</g>
<g>
</g>
<g>
</g>
<g>
</g>
<g>
</g>
<g>
</g>
<g>
</g>
<g>
</g>
<g>
</g>
</svg>
