<?xml version="1.0" encoding="iso-8859-1"?>
<!-- Generator: Adobe Illustrator 18.0.0, SVG Export Plug-In . SVG Version: 6.00 Build 0)  -->
<!DOCTYPE svg PUBLIC "-//W3C//DTD SVG 1.1//EN" "http://www.w3.org/Graphics/SVG/1.1/DTD/svg11.dtd">
<svg version="1.1" id="Capa_1" xmlns="http://www.w3.org/2000/svg" xmlns:xlink="http://www.w3.org/1999/xlink" x="0px" y="0px"
	 viewBox="0 0 481.684 481.684" style="enable-background:new 0 0 481.684 481.684;" xml:space="preserve">
<g>
	<path d="M368.594,167.494l-19.014-41.18c-0.695-1.505-2.201-2.468-3.858-2.468h-17.283c-16.247-26.683-42.246-44.821-70.687-49.973
		c4.112-4.198,6.654-9.94,6.654-16.268c0-11.376-8.21-20.865-19.014-22.869V4.25c0-2.347-1.903-4.25-4.25-4.25
		s-4.25,1.903-4.25,4.25v30.487c-10.805,2.003-19.015,11.493-19.015,22.869c0,6.327,2.542,12.069,6.655,16.268
		c-28.441,5.152-54.44,23.29-70.688,49.973H136.56c-1.658,0-3.164,0.963-3.858,2.468l-19.014,41.18
		c-0.007,0.015-0.006,0.029-0.012,0.044c-0.239,0.532-0.379,1.117-0.379,1.738v226.483c0,0.622,0.141,1.209,0.381,1.742
		c0.005,0.013,0.003,0.025,0.009,0.039l18.186,39.419L113.7,475.626c-0.619,1.316-0.521,2.858,0.258,4.086
		c0.78,1.227,2.133,1.972,3.588,1.972h247.189c1.453,0,2.805-0.742,3.585-1.967c0.78-1.226,0.88-2.764,0.266-4.081l-18.058-38.678
		l18.07-39.429c0.005-0.012,0.002-0.021,0.007-0.033c0.239-0.531,0.379-1.117,0.379-1.737V169.275c0-0.617-0.138-1.2-0.375-1.729
		C368.603,167.527,368.602,167.512,368.594,167.494z M343.119,432.725H281.07l9.63-32.716h67.413L343.119,432.725z M139.28,432.725
		l-15.093-32.716h67.438l9.667,32.716H139.28z M273.068,132.346l8.863,32.68h-81.58l8.881-32.68H273.068z M150.193,208.378
		l-28.397,28.748v-57.499L150.193,208.378z M360.485,315.822l-34.369,34.799l-34.355-34.775l-0.011-66.434l34.418-34.935
		l34.317,34.737V315.822z M199.045,327.314l35.512,29.335l-35.511,29.349L199.045,327.314z M190.546,385.998l-28.398-29.34
		l28.397-29.344L190.546,385.998z M199.045,315.592l-0.001-66.126l42.071-35.5l42.136,35.593l0.01,66.013l-42.111,35.517
		L199.045,315.592z M199.044,237.804l-0.001-58.779l35.486,29.378L199.044,237.804z M247.705,208.405l35.535-29.381l0.01,58.779
		L247.705,208.405z M283.263,327.314l0.01,58.684l-35.529-29.35L283.263,327.314z M291.763,327.314l28.38,29.355l-28.37,29.329
		L291.763,327.314z M291.748,237.804l-0.009-58.779l28.455,29.406L291.748,237.804z M241.118,202.842l-34.706-29.316h69.449
		L241.118,202.842z M190.544,237.804l-28.404-29.426l28.403-29.354L190.544,237.804z M190.544,249.232l0.001,66.586l-34.372,34.793
		l-34.377-34.79v-66.6l34.37-34.796L190.544,249.232z M150.199,356.659l-28.403,28.75v-57.494L150.199,356.659z M156.174,362.705
		l28.462,28.804h-56.917L156.174,362.705z M241.151,362.208l34.755,29.301h-69.496L241.151,362.208z M326.118,362.716l28.445,28.792
		h-56.882L326.118,362.716z M360.485,385.41l-28.395-28.742l28.395-28.749V385.41z M332.134,208.422l28.351-28.777v57.476
		L332.134,208.422z M326.16,202.374l-28.5-28.849h56.921L326.16,202.374z M156.167,202.33l-28.45-28.805h56.902L156.167,202.33z
		 M210.156,432.725l-9.667-32.716h81.35l-9.63,32.716H210.156z M350.252,148.046h-20.935c-2.347,0-4.25,1.903-4.25,4.25
		c0,2.347,1.903,4.25,4.25,4.25h24.86l3.915,8.479h-67.354l-8.863-32.68h61.127L350.252,148.046z M226.376,57.605
		c0-8.141,6.624-14.765,14.765-14.765s14.764,6.623,14.764,14.765s-6.623,14.765-14.764,14.765S226.376,65.746,226.376,57.605z
		 M174.497,110.73h13.468c2.347,0,4.25-1.903,4.25-4.25c0-2.347-1.903-4.25-4.25-4.25h-4.355
		c16.506-13.586,36.745-21.36,57.532-21.36s41.025,7.774,57.531,21.36h-13.395c-2.347,0-4.25,1.903-4.25,4.25
		c0,2.347,1.903,4.25,4.25,4.25h22.508c3.819,4.027,7.354,8.409,10.551,13.115H163.946
		C167.143,119.139,170.677,114.758,174.497,110.73z M139.279,132.346h61.146l-8.881,32.68H124.19l6.867-14.872h25.653
		c2.347,0,4.25-1.903,4.25-4.25c0-2.347-1.903-4.25-4.25-4.25h-21.729L139.279,132.346z M124.24,473.184l6.267-13.334h44.672
		c2.347,0,4.25-1.903,4.25-4.25c0-2.347-1.903-4.25-4.25-4.25H134.5l4.758-10.125H343.14l4.727,10.125h-68.272
		c-2.347,0-4.25,1.903-4.25,4.25c0,2.347,1.903,4.25,4.25,4.25h72.24l6.225,13.334H124.24z"/>
	<path d="M273.202,102.23h-17.047c-2.347,0-4.25,1.903-4.25,4.25c0,2.347,1.903,4.25,4.25,4.25h17.047c2.347,0,4.25-1.903,4.25-4.25
		C277.452,104.133,275.549,102.23,273.202,102.23z"/>
	<path d="M237.686,102.23h-25.571c-2.347,0-4.25,1.903-4.25,4.25c0,2.347,1.903,4.25,4.25,4.25h25.571c2.347,0,4.25-1.903,4.25-4.25
		C241.936,104.133,240.034,102.23,237.686,102.23z"/>
	<path d="M256.155,451.35h-25.571c-2.347,0-4.25,1.903-4.25,4.25c0,2.347,1.903,4.25,4.25,4.25h25.571c2.347,0,4.25-1.903,4.25-4.25
		C260.405,453.252,258.502,451.35,256.155,451.35z"/>
	<path d="M241.067,254.305c-2.347,0-4.25,1.903-4.25,4.25v9.5c0,2.347,1.903,4.25,4.25,4.25c2.347,0,4.25-1.903,4.25-4.25v-9.5
		C245.317,256.207,243.414,254.305,241.067,254.305z"/>
	<path d="M241.067,279.805c-2.347,0-4.25,1.903-4.25,4.25v25c0,2.347,1.903,4.25,4.25,4.25c2.347,0,4.25-1.903,4.25-4.25v-25
		C245.317,281.707,243.414,279.805,241.067,279.805z"/>
	<path d="M172.5,272.305c2.347,0,4.25-1.903,4.25-4.25v-9.5c0-2.347-1.903-4.25-4.25-4.25c-2.347,0-4.25,1.903-4.25,4.25v9.5
		C168.25,270.402,170.153,272.305,172.5,272.305z"/>
	<path d="M172.5,313.305c2.347,0,4.25-1.903,4.25-4.25v-25c0-2.347-1.903-4.25-4.25-4.25c-2.347,0-4.25,1.903-4.25,4.25v25
		C168.25,311.402,170.153,313.305,172.5,313.305z"/>
	<path d="M310.842,279.805c-2.347,0-4.25,1.903-4.25,4.25v25c0,2.347,1.903,4.25,4.25,4.25c2.347,0,4.25-1.903,4.25-4.25v-25
		C315.092,281.707,313.189,279.805,310.842,279.805z"/>
	<path d="M310.842,254.305c-2.347,0-4.25,1.903-4.25,4.25v9.5c0,2.347,1.903,4.25,4.25,4.25c2.347,0,4.25-1.903,4.25-4.25v-9.5
		C315.092,256.207,313.189,254.305,310.842,254.305z"/>
	<path d="M100.842,206.805h-37c-2.347,0-4.25,1.903-4.25,4.25c0,2.347,1.903,4.25,4.25,4.25h37c2.347,0,4.25-1.903,4.25-4.25
		C105.092,208.708,103.189,206.805,100.842,206.805z"/>
	<path d="M97.842,286.805h-63c-2.347,0-4.25,1.903-4.25,4.25c0,2.347,1.903,4.25,4.25,4.25h63c2.347,0,4.25-1.903,4.25-4.25
		C102.092,288.707,100.189,286.805,97.842,286.805z"/>
	<path d="M97.842,267.805h-16c-2.347,0-4.25,1.903-4.25,4.25c0,2.347,1.903,4.25,4.25,4.25h16c2.347,0,4.25-1.903,4.25-4.25
		C102.092,269.707,100.189,267.805,97.842,267.805z"/>
	<path d="M421.092,145.055c0-2.347-1.903-4.25-4.25-4.25h-39c-2.347,0-4.25,1.903-4.25,4.25c0,2.347,1.903,4.25,4.25,4.25h39
		C419.189,149.305,421.092,147.402,421.092,145.055z"/>
	<path d="M439.092,195.055c0-2.347-1.903-4.25-4.25-4.25h-43c-2.347,0-4.25,1.903-4.25,4.25c0,2.347,1.903,4.25,4.25,4.25h43
		C437.189,199.305,439.092,197.402,439.092,195.055z"/>
	<path d="M415.842,164.805h-17c-2.347,0-4.25,1.903-4.25,4.25c0,2.347,1.903,4.25,4.25,4.25h17c2.347,0,4.25-1.903,4.25-4.25
		C420.092,166.708,418.189,164.805,415.842,164.805z"/>
	<path d="M319.842,83.305h78c2.347,0,4.25-1.903,4.25-4.25c0-2.347-1.903-4.25-4.25-4.25h-78c-2.347,0-4.25,1.903-4.25,4.25
		C315.592,81.402,317.495,83.305,319.842,83.305z"/>
	<path d="M446.842,385.805h-49c-2.347,0-4.25,1.903-4.25,4.25c0,2.347,1.903,4.25,4.25,4.25h49c2.347,0,4.25-1.903,4.25-4.25
		C451.092,387.707,449.189,385.805,446.842,385.805z"/>
	<path d="M93.842,430.805h-35c-2.347,0-4.25,1.903-4.25,4.25c0,2.347,1.903,4.25,4.25,4.25h35c2.347,0,4.25-1.903,4.25-4.25
		C98.092,432.707,96.189,430.805,93.842,430.805z"/>
	<path d="M134.34,82.304h44c2.347,0,4.25-1.903,4.25-4.25c0-2.347-1.903-4.25-4.25-4.25h-44c-2.347,0-4.25,1.903-4.25,4.25
		C130.09,80.401,131.993,82.304,134.34,82.304z"/>
</g>
<g>
</g>
<g>
</g>
<g>
</g>
<g>
</g>
<g>
</g>
<g>
</g>
<g>
</g>
<g>
</g>
<g>
</g>
<g>
</g>
<g>
</g>
<g>
</g>
<g>
</g>
<g>
</g>
<g>
</g>
</svg>
