<?xml version="1.0" encoding="iso-8859-1"?>
<!-- Generator: Adobe Illustrator 18.0.0, SVG Export Plug-In . SVG Version: 6.00 Build 0)  -->
<!DOCTYPE svg PUBLIC "-//W3C//DTD SVG 1.1//EN" "http://www.w3.org/Graphics/SVG/1.1/DTD/svg11.dtd">
<svg version="1.1" id="Capa_1" xmlns="http://www.w3.org/2000/svg" xmlns:xlink="http://www.w3.org/1999/xlink" x="0px" y="0px"
	 viewBox="0 0 491.501 491.501" style="enable-background:new 0 0 491.501 491.501;" xml:space="preserve">
<g>
	<path d="M88.964,70.783H78.021c-2.348,0-4.25,1.902-4.25,4.25c0,2.348,1.902,4.25,4.25,4.25h10.942c2.348,0,4.25-1.902,4.25-4.25
		C93.214,72.685,91.311,70.783,88.964,70.783z"/>
	<path d="M473.995,172.031c-0.141-0.015-0.281-0.021-0.423-0.021h-21.455c-4.23-9.326-8.587-14.794-10.776-17.193v-41.693
		c0-28.743-23.384-52.128-52.127-52.128c-28.743,0-52.127,23.385-52.127,52.128v22.165h-17.943v-22.165
		c0-28.743-23.385-52.128-52.128-52.128c-28.743,0-52.127,23.385-52.127,52.128v35.384c-4.105,2.397-14.382,7.705-24.924,7.706
		c-8.398,0.001-14.898-3.312-19.871-10.127c-6.646-9.107-10.942-23.073-15.491-37.859c-5.051-16.418-10.265-33.365-19.431-46.718
		c4.489-9.431,5.195-19.257,5.226-19.705c0.081-1.201-0.352-2.38-1.19-3.244c-0.838-0.863-1.985-1.332-3.207-1.287
		c-9.86,0.365-20.037,2.423-27.237,4.214c-8.609-3.161-17.077-4.764-25.189-4.764c-18.18,0-29.21,7.978-31.778,10.059
		c-2.78,1.273-15.261,7.14-27.252,15.107C5.254,74.707-2.728,86.422,0.819,96.71c5.847,16.954,14.019,24.188,27.323,24.188
		c4.482,0,9.193-0.79,14.183-1.627c2.34-0.393,4.76-0.798,7.243-1.137c4.246-0.579,7.451-0.86,9.798-0.86
		c3.813,0,3.922,0.223,4.963,2.348c1.541,3.146,3.808,7.773,12.929,12.211c0.389,14.35,2.712,80.623,13.093,116.733
		c11.632,40.452,49.262,46.492,70.658,46.492c5.306,0,9.737-0.365,12.741-0.71c11.924,65.638,23.732,155.808,23.854,156.729
		c0.276,2.117,2.079,3.7,4.214,3.7h26.447c0.006,0,0.014,0,0.02,0c2.348,0,4.25-1.902,4.25-4.25c0-0.358-0.044-0.707-0.128-1.04
		c-8.078-54.491,5.617-129.553,9.213-147.671c14.374,2.51,32.583,3.781,54.216,3.781c39.32,0,79.409-4.241,91.704-5.658
		c7.196,35.015,7.908,149.416,7.915,150.611c0.013,2.338,1.912,4.227,4.25,4.227h23.94c2.069,0,3.838-1.49,4.189-3.53
		c0.15-0.875,15.224-88.543,30.772-175.752c8.1-45.431,3.538-75.859-3.105-94.986h17.78c1.612,0.265,9.722,2.261,9.722,15.584
		v55.401c0,2.348,1.902,4.25,4.25,4.25c2.348,0,4.25-1.902,4.25-4.25v-55.401C491.501,178.444,480.05,172.636,473.995,172.031z
		 M420.062,446.278h-16.141c-0.154-17.285-0.972-81.666-4.772-123.105h15.845c2.348,0,4.25-1.902,4.25-4.25
		c0-2.348-1.902-4.25-4.25-4.25H398.29c-0.955-8.518-2.069-15.62-3.37-20.499c-0.548-2.056-2.523-3.398-4.644-3.121
		c-0.475,0.061-48.026,6.045-94.441,6.045c-23.216,0-42.291-1.479-56.696-4.396c-2.284-0.464-4.503,0.991-4.996,3.261
		c-0.138,0.633-0.802,3.72-1.759,8.711h-16.39c-2.348,0-4.25,1.902-4.25,4.25c0,2.348,1.902,4.25,4.25,4.25h14.824
		c-0.575,3.247-1.192,6.873-1.826,10.833h-16.998c-2.348,0-4.25,1.902-4.25,4.25c0,2.348,1.902,4.25,4.25,4.25h15.69
		c-4.557,30.897-9.063,75.978-4.297,113.772h-17.846c-2.412-18.115-13.335-98.809-24.167-157.48
		c-0.205-1.109-0.844-2.091-1.772-2.729c-0.93-0.64-2.077-0.884-3.185-0.677c-0.064,0.011-6.404,1.166-15.409,1.166
		c-23.216,0-52.902-6.999-62.488-40.342C87.39,207.504,85.706,129.762,85.69,128.981c-0.033-1.675-1.048-3.174-2.589-3.827
		c-8.328-3.534-9.822-6.582-11.14-9.271c-1.973-4.027-4.152-7.108-12.596-7.108c-2.735,0-6.315,0.307-10.946,0.938
		c-2.612,0.357-5.098,0.772-7.501,1.176c-4.63,0.776-9.002,1.51-12.776,1.51c-6.538,0-13.413-1.425-19.288-18.46
		C5.016,82.807,34.007,64.052,55.817,54.29c0.394-0.177,0.776-0.428,1.099-0.713c0.095-0.084,9.637-8.354,26.657-8.354
		c7.466,0,15.344,1.573,23.415,4.677c0.826,0.316,1.729,0.371,2.582,0.149c5.646-1.449,13.58-3.181,21.646-3.941
		c-0.712,3.714-2.098,8.975-4.723,13.697c-0.811,1.46-0.692,3.259,0.303,4.6c9.271,12.483,14.563,29.686,19.682,46.321
		c4.764,15.486,9.264,30.113,16.748,40.37c6.502,8.909,15.748,13.618,26.739,13.617c16.126-0.002,30.933-9.896,31.555-10.317
		c1.168-0.79,1.868-2.109,1.868-3.52v-37.753c0-24.057,19.571-43.628,43.627-43.628c24.057,0,43.628,19.571,43.628,43.628v2.551
		h-23.649c-2.348,0-4.25,1.902-4.25,4.25c0,2.348,1.902,4.25,4.25,4.25h23.649v15.364c0,2.348,1.902,4.25,4.25,4.25h26.443
		c2.348,0,4.25-1.902,4.25-4.25v-26.415c0-24.057,19.571-43.628,43.627-43.628c24.056,0,43.627,19.571,43.627,43.628v1.551h-34.847
		c-2.348,0-4.25,1.902-4.25,4.25c0,2.348,1.902,4.25,4.25,4.25h34.847v33.371c0,1.182,0.511,2.328,1.377,3.132
		c0.078,0.072,7.832,7.412,13.662,24.993c3.282,9.897,6.335,24.351,6.493,44.004h-36.379c-2.348,0-4.25,1.902-4.25,4.25
		c0,2.348,1.902,4.25,4.25,4.25h36.273c-0.161,4.878-0.504,10.048-1.048,15.5h-91.226c-2.348,0-4.25,1.902-4.25,4.25
		c0,2.348,1.902,4.25,4.25,4.25h90.238c-0.548,4.126-1.205,8.396-1.995,12.83C436.45,351.33,423.037,429.017,420.062,446.278z"/>
	<path d="M176.419,251.146c-0.126,0.023-12.76,2.292-26.54-0.485c-17.727-3.577-29.064-13.565-33.7-29.69
		c-0.649-2.256-3.003-3.558-5.26-2.91c-2.255,0.649-3.559,3.004-2.91,5.26c5.529,19.229,19.517,31.582,40.451,35.725
		c5.795,1.147,11.338,1.509,16.025,1.509c7.732,0,13.136-0.984,13.491-1.051c2.306-0.432,3.823-2.648,3.395-4.954
		C180.942,252.243,178.724,250.721,176.419,251.146z"/>
	<path d="M267.016,75.09c-20.972,0-38.033,17.061-38.033,38.033c0,2.348,1.902,4.25,4.25,4.25c2.348,0,4.25-1.902,4.25-4.25
		c0-16.284,13.249-29.533,29.533-29.533c2.348,0,4.25-1.902,4.25-4.25C271.266,76.992,269.363,75.09,267.016,75.09z"/>
	<path d="M360.482,113.123c0-16.284,13.249-29.533,29.533-29.533c2.348,0,4.25-1.902,4.25-4.25c0-2.348-1.902-4.25-4.25-4.25
		c-20.972,0-38.033,17.061-38.033,38.033c0,2.348,1.902,4.25,4.25,4.25C358.58,117.373,360.482,115.471,360.482,113.123z"/>
</g>
<g>
</g>
<g>
</g>
<g>
</g>
<g>
</g>
<g>
</g>
<g>
</g>
<g>
</g>
<g>
</g>
<g>
</g>
<g>
</g>
<g>
</g>
<g>
</g>
<g>
</g>
<g>
</g>
<g>
</g>
</svg>
