<?xml version="1.0" encoding="iso-8859-1"?>
<!-- Generator: Adobe Illustrator 18.0.0, SVG Export Plug-In . SVG Version: 6.00 Build 0)  -->
<!DOCTYPE svg PUBLIC "-//W3C//DTD SVG 1.1//EN" "http://www.w3.org/Graphics/SVG/1.1/DTD/svg11.dtd">
<svg version="1.1" id="Capa_1" xmlns="http://www.w3.org/2000/svg" xmlns:xlink="http://www.w3.org/1999/xlink" x="0px" y="0px"
	 viewBox="0 0 466.428 466.428" style="enable-background:new 0 0 466.428 466.428;" xml:space="preserve">
<g>
	<path d="M224.175,441.361c-2.347,0-4.25,1.902-4.25,4.25c0,2.348,1.903,4.25,4.25,4.25c78.58,0,142.51-63.93,142.51-142.51
		c0-2.348-1.903-4.25-4.25-4.25c-2.347,0-4.25,1.902-4.25,4.25C358.185,381.245,298.068,441.361,224.175,441.361z"/>
	<path d="M224.175,179.335c-70.588,0-128.015,57.428-128.015,128.016c0,70.587,57.427,128.014,128.015,128.014
		c70.587,0,128.015-57.427,128.015-128.014C352.19,236.763,294.763,179.335,224.175,179.335z M311.848,388.481l-62.316-62.04
		c3.255-4.314,5.43-9.482,6.138-15.102l87.947,0.002C342.636,341.061,330.754,368.066,311.848,388.481z M104.734,311.339h87.947
		c0.708,5.624,2.887,10.797,6.146,15.112l-62.198,62.167C117.649,368.186,105.716,341.126,104.734,311.339z M136.84,225.857
		l62.192,62.133c-3.269,4.235-5.494,9.313-6.285,14.85h-87.994C105.862,273.149,117.849,246.197,136.84,225.857z M224.175,330.605
		c-12.822,0-23.253-10.432-23.253-23.254c0-12.822,10.432-23.254,23.253-23.254c12.822,0,23.253,10.432,23.253,23.254
		C247.428,320.173,236.997,330.605,224.175,330.605z M243.272,282c-4.248-3.208-9.325-5.368-14.847-6.11v-87.971
		c29.714,1.044,56.699,12.984,77.079,31.943L243.272,282z M219.925,275.89c-5.525,0.742-10.604,2.904-14.854,6.116l-62.214-62.154
		c20.379-18.952,47.36-30.889,77.068-31.933V275.89z M204.809,332.49c4.303,3.322,9.476,5.565,15.116,6.322v87.969
		c-29.818-1.048-56.89-13.068-77.294-32.143L204.809,332.49z M228.425,338.812c5.645-0.759,10.822-3.004,15.127-6.33l62.305,62.028
		c-20.421,19.148-47.546,31.221-77.431,32.271V338.812z M255.602,302.839c-0.792-5.539-3.019-10.62-6.291-14.857l62.209-62.113
		c18.985,20.338,30.968,47.287,32.076,76.973L255.602,302.839z"/>
	<path d="M224.175,289.349c-9.926,0-18.002,8.075-18.002,18.002c0,2.348,1.903,4.25,4.25,4.25c2.347,0,4.25-1.902,4.25-4.25
		c0-5.239,4.263-9.502,9.502-9.502c2.347,0,4.25-1.902,4.25-4.25C228.425,291.251,226.522,289.349,224.175,289.349z"/>
	<path d="M465.91,125.23L399.026,2.431c-1.123-2.059-3.704-2.822-5.765-1.699L47.383,189.109
		c-17.397,9.476-30.064,25.158-35.665,44.16c-3.333,11.304-3.906,22.973-1.846,34.238c-8.923,5.654-12.464,17.223-7.836,27.012
		c2.429,5.138,6.949,8.972,12.727,10.796c2.285,0.723,4.666,1.08,7.031,1.08c2.427,0,4.836-0.382,7.11-1.128
		c4.791,5.149,10.232,9.514,16.223,13.008L10.16,443.295c-1.144,4.094-0.396,7.771,2.054,10.088
		c1.561,1.477,3.634,2.232,5.975,2.232c1.331,0,2.75-0.244,4.209-0.741l93.188-31.682c28.427,26.664,66.631,43.021,108.59,43.021
		c87.598,0,158.863-71.266,158.863-158.863c0-41.69-16.15-79.673-42.512-108.042l123.706-68.325
		C466.278,129.853,467.027,127.283,465.91,125.23z M80.544,239.515L55.678,194.27l145.188-79.074l6.984,13.07
		c0.766,1.433,2.234,2.248,3.753,2.248c0.676,0,1.361-0.162,1.999-0.503c2.07-1.105,2.852-3.681,1.746-5.751l-7.017-13.13
		l17.516-9.54l25.142,49.172c-8.72-1.488-17.676-2.274-26.814-2.274C160.832,148.488,106.036,185.757,80.544,239.515z
		 M261.663,152.968l-28.349-55.445l13.834-7.534l38.612,70.924C278.02,157.646,269.966,154.984,261.663,152.968z M17.322,297.21
		c-3.496-1.104-6.196-3.35-7.602-6.324c-2.333-4.935-1.2-10.619,2.394-14.326c1.432,4.506,3.299,8.91,5.611,13.154
		c1.559,2.861,3.279,5.566,5.122,8.143C21.01,297.988,19.124,297.779,17.322,297.21z M25.189,285.648
		c-8.39-15.403-10.279-33.151-5.319-49.975c4.611-15.641,14.633-28.734,28.396-37.241l3.753,6.828
		c-25.635,16.121-34.681,49.717-20.002,76.67c0.771,1.415,2.23,2.218,3.736,2.218c0.687,0,1.383-0.167,2.029-0.519
		c2.062-1.123,2.822-3.704,1.7-5.766c-12.442-22.844-4.903-51.279,16.641-65.136l20.142,36.65
		c-7.068,17.97-10.954,37.526-10.954,57.975c0,3.433,0.122,6.837,0.338,10.217C48.306,313.105,34.061,301.937,25.189,285.648z
		 M17.671,447.716l35.188-125.535c4.322,1.857,8.871,3.297,13.61,4.314c4.18,34.646,19.551,65.894,42.388,90.008L17.671,447.716z
		 M224.175,457.714c-82.911,0-150.364-67.453-150.364-150.363c0-82.91,67.453-150.363,150.364-150.363
		c82.911,0,150.363,67.453,150.363,150.363C374.538,390.261,307.086,457.714,224.175,457.714z M334.347,193.011
		c-10.545-10.164-22.486-18.885-35.505-25.848l-44.23-81.24L359.937,28.56l7.756,14.24l-84.154,45.531
		c-2.064,1.117-2.833,3.696-1.715,5.761c0.769,1.422,2.232,2.229,3.742,2.229c0.683,0,1.375-0.165,2.019-0.513l84.175-45.543
		l44.27,81.281c0.771,1.415,2.23,2.218,3.736,2.218c0.687,0,1.383-0.167,2.029-0.519c2.062-1.123,2.822-3.704,1.7-5.766
		L367.403,24.494l26.191-14.265l62.83,115.356L334.347,193.011z"/>
</g>
<g>
</g>
<g>
</g>
<g>
</g>
<g>
</g>
<g>
</g>
<g>
</g>
<g>
</g>
<g>
</g>
<g>
</g>
<g>
</g>
<g>
</g>
<g>
</g>
<g>
</g>
<g>
</g>
<g>
</g>
</svg>
