<?xml version="1.0" encoding="iso-8859-1"?>
<!-- Generator: Adobe Illustrator 18.0.0, SVG Export Plug-In . SVG Version: 6.00 Build 0)  -->
<!DOCTYPE svg PUBLIC "-//W3C//DTD SVG 1.1//EN" "http://www.w3.org/Graphics/SVG/1.1/DTD/svg11.dtd">
<svg version="1.1" id="Capa_1" xmlns="http://www.w3.org/2000/svg" xmlns:xlink="http://www.w3.org/1999/xlink" x="0px" y="0px"
	 viewBox="0 0 485.979 485.979" style="enable-background:new 0 0 485.979 485.979;" xml:space="preserve">
<g>
	<path d="M251.374,99.489c0-2.348-1.903-4.25-4.25-4.25c-27.258,0-52.767,15.532-71.827,43.736
		c-18.715,27.693-29.022,64.434-29.022,103.453c0,2.348,1.903,4.25,4.25,4.25c2.347,0,4.25-1.902,4.25-4.25
		c0-76.474,41.427-138.689,92.349-138.689C249.471,103.739,251.374,101.837,251.374,99.489z"/>
	<path d="M376.402,426.759c30.79,0,58.93-18.882,79.236-53.168c19.565-33.035,30.34-77.604,30.34-125.494
		c0-47.891-10.775-92.459-30.34-125.494c-20.306-34.286-48.446-53.168-79.236-53.168H247.124c-32.939,0-63.79,18.806-86.867,52.954
		c-22.732,33.638-35.251,78.281-35.251,125.708c0,47.427,12.519,92.07,35.251,125.708c23.078,34.148,53.928,52.954,86.867,52.954
		H376.402z M345.226,77.935c13.474,0,26.405,3.539,38.408,10.016h-82.139c-5.445-3.957-11.087-7.303-16.886-10.016H345.226z
		 M403.894,393.769h-85.911c5.66-5.915,11.016-12.579,16.007-19.964c5.125-7.583,9.725-15.729,13.785-24.337h28.254
		c1.793,6.992,8.129,12.184,15.673,12.184h5.973c7.543,0,13.88-5.191,15.672-12.184h23.078
		C427.616,367.198,416.561,382.283,403.894,393.769z M384.005,345.456v-1.791c0-4.243,3.453-7.695,7.696-7.695h5.973
		c4.244,0,7.696,3.452,7.696,7.695v1.791c0,4.243-3.452,7.695-7.696,7.695h-5.973C387.458,353.151,384.005,349.699,384.005,345.456z
		 M440.381,340.968h-26.755c-1.29-7.647-7.943-13.498-15.952-13.498h-5.973c-8.01,0-14.662,5.851-15.953,13.498h-24.207
		c7.79-18.713,13.131-39.346,15.776-61.027h27.659c1.48,7.415,8.036,13.022,15.88,13.022h5.973c7.844,0,14.399-5.606,15.879-13.022
		h24.131C454.028,302.094,448.341,322.737,440.381,340.968z M391.721,218.778c1.549,7.325,8.062,12.842,15.842,12.842h5.973
		c7.78,0,14.293-5.517,15.842-12.842h27.772c1.109,9.527,1.693,19.322,1.693,29.318c0,7.919-0.372,15.709-1.074,23.344h-25.145
		c-1.619-7.234-8.081-12.662-15.796-12.662h-5.973c-7.716,0-14.178,5.428-15.796,12.662h-26.85
		c0.679-7.681,1.032-15.473,1.032-23.344c0-9.921-0.555-19.717-1.63-29.318H391.721z M399.867,215.425v-1.793
		c0-4.243,3.453-7.695,7.696-7.695h5.973c4.244,0,7.696,3.452,7.696,7.695v1.793c0,4.243-3.452,7.695-7.696,7.695h-5.973
		C403.32,223.12,399.867,219.668,399.867,215.425z M424.524,274.974v1.793c0,4.243-3.452,7.695-7.696,7.695h-5.973
		c-4.244,0-7.696-3.452-7.696-7.695v-1.793c0-4.243,3.453-7.695,7.696-7.695h5.973C421.072,267.278,424.524,270.731,424.524,274.974
		z M429.378,210.278c-1.549-7.325-8.062-12.842-15.842-12.842h-5.973c-7.781,0-14.293,5.517-15.842,12.842h-25.206
		c-2.717-18.588-7.433-36.331-13.993-52.664h23.038c1.55,7.326,8.062,12.842,15.842,12.842h5.973c7.78,0,14.292-5.516,15.842-12.842
		h28.189c6.722,15.971,11.723,33.719,14.605,52.664H429.378z M383.706,154.259v-1.791c0-4.243,3.453-7.695,7.696-7.695h5.973
		c4.244,0,7.696,3.452,7.696,7.695v1.791c0,4.244-3.453,7.697-7.696,7.697h-5.973C387.159,161.956,383.706,158.503,383.706,154.259z
		 M413.217,149.114c-1.549-7.325-8.061-12.842-15.842-12.842h-5.973c-7.781,0-14.293,5.517-15.842,12.842h-26.675
		c-4.324-9.493-9.298-18.444-14.895-26.726c-6.753-9.993-14.176-18.66-22.117-25.938h84.862
		c16.267,12.443,30.277,30.59,40.854,52.664H413.217z M159.895,357.003h33.388c2.347,0,4.25-1.902,4.25-4.25
		c0-2.348-1.903-4.25-4.25-4.25h-37.829c-2.231-4.556-4.313-9.283-6.238-14.166h90.734c2.347,0,4.25-1.902,4.25-4.25
		s-1.903-4.25-4.25-4.25h-93.876c-8.03-23.315-12.568-49.748-12.568-77.74c0-93.828,50.969-170.162,113.619-170.162
		c33.313,0,63.321,21.584,84.122,55.902H317.95c-2.347,0-4.25,1.902-4.25,4.25s1.903,4.25,4.25,4.25h18.115
		c4.845,9.121,9.078,19.001,12.607,29.5h-41.389c-2.347,0-4.25,1.902-4.25,4.25s1.903,4.25,4.25,4.25h44.051
		c0.656,2.254,1.28,4.531,1.872,6.834h-93.923c-2.347,0-4.25,1.902-4.25,4.25c0,2.348,1.903,4.25,4.25,4.25h95.934
		c3.581,16.521,5.525,34.139,5.525,52.426c0,67.76-26.585,126.389-64.951,153.74h-57.505c-2.347,0-4.25,1.902-4.25,4.25
		s1.903,4.25,4.25,4.25h43.119c-10.821,5.141-22.337,7.922-34.28,7.922C212.112,418.259,180.753,394.413,159.895,357.003z
		 M309.03,402.269h84.247c-14.603,10.25-30.886,15.99-48.05,15.99h-60.618C293.13,414.273,301.311,408.917,309.03,402.269z
		 M448.325,369.26c-17.085,28.847-39.862,45.853-64.75,48.597c18.141-8.707,34.719-23.634,48.517-44.052
		c22.732-33.638,35.251-78.281,35.251-125.708c0-47.427-12.519-92.07-35.251-125.708c-13.798-20.418-30.376-35.345-48.517-44.052
		c24.888,2.743,47.665,19.75,64.75,48.597c18.8,31.744,29.154,74.773,29.154,121.163
		C477.479,294.486,467.125,337.516,448.325,369.26z"/>
	<path d="M113.319,130.141c13.268-5.597,22.605-18.737,22.605-34.018c0-20.348-16.554-36.902-36.902-36.902
		c-20.348,0-36.902,16.555-36.902,36.902c0,14.976,8.973,27.889,21.821,33.667L78.894,270.41c-0.287,5.692,1.666,11.048,5.5,15.079
		c3.731,3.925,8.785,6.086,14.23,6.086c5.445,0,10.499-2.161,14.231-6.085c3.833-4.032,5.787-9.388,5.502-15.018L113.319,130.141z
		 M88.785,231.794h19.679l0.424,11.809H88.361L88.785,231.794z M99.022,67.72c15.661,0,28.402,12.741,28.402,28.402
		c0,4.875-10.805,11.676-28.402,11.676c-17.597,0-28.402-6.801-28.402-11.676C70.62,80.461,83.361,67.72,99.022,67.72z
		 M75.39,111.855c6.313,2.801,14.482,4.443,23.632,4.443c9.15,0,17.319-1.643,23.632-4.442
		c-5.097,7.631-13.786,12.669-23.632,12.669S80.487,119.486,75.39,111.855z M99.022,133.024c2.001,0,3.963-0.166,5.878-0.474
		l3.258,90.743H89.09l3.262-90.885C94.517,132.806,96.744,133.024,99.022,133.024z M106.694,279.633
		c-2.111,2.22-4.977,3.442-8.071,3.442c-3.094,0-5.959-1.223-8.071-3.442c-2.213-2.328-3.339-5.451-3.167-8.856l0.67-18.674h21.137
		l0.672,18.735C110.033,274.182,108.907,277.306,106.694,279.633z"/>
	<path d="M36.902,193.612C16.554,193.612,0,210.167,0,230.515c0,14.977,8.973,27.889,21.821,33.667l-5.047,140.621
		c-0.287,5.693,1.667,11.05,5.501,15.082c3.731,3.924,8.785,6.085,14.229,6.085c5.444,0,10.498-2.161,14.229-6.085
		c3.834-4.032,5.788-9.389,5.504-15.021L51.2,264.533c13.268-5.597,22.604-18.737,22.604-34.019
		C73.804,210.167,57.25,193.612,36.902,193.612z M46.768,377.995H26.241l0.424-11.807h19.679L46.768,377.995z M44.574,414.027
		c-2.111,2.22-4.977,3.442-8.07,3.442c-3.093,0-5.958-1.223-8.069-3.442c-2.213-2.328-3.34-5.452-3.169-8.858l0.67-18.674h21.137
		l0.673,18.735C47.914,408.575,46.788,411.699,44.574,414.027z M46.039,357.689H26.97l3.262-90.887
		c2.165,0.396,4.392,0.615,6.67,0.615c2.001,0,3.963-0.166,5.878-0.474L46.039,357.689z M36.902,258.917
		c-9.845,0-18.534-5.037-23.631-12.667c6.313,2.8,14.481,4.442,23.631,4.442c9.149,0,17.318-1.643,23.63-4.442
		C55.436,253.88,46.747,258.917,36.902,258.917z M36.902,242.192c-17.597,0-28.402-6.802-28.402-11.678
		c0-15.661,12.741-28.402,28.402-28.402c15.661,0,28.402,12.741,28.402,28.402C65.304,235.391,54.499,242.192,36.902,242.192z"/>
</g>
<g>
</g>
<g>
</g>
<g>
</g>
<g>
</g>
<g>
</g>
<g>
</g>
<g>
</g>
<g>
</g>
<g>
</g>
<g>
</g>
<g>
</g>
<g>
</g>
<g>
</g>
<g>
</g>
<g>
</g>
</svg>
