<?xml version="1.0" encoding="iso-8859-1"?>
<!-- Generator: Adobe Illustrator 18.0.0, SVG Export Plug-In . SVG Version: 6.00 Build 0)  -->
<!DOCTYPE svg PUBLIC "-//W3C//DTD SVG 1.1//EN" "http://www.w3.org/Graphics/SVG/1.1/DTD/svg11.dtd">
<svg version="1.1" id="Capa_1" xmlns="http://www.w3.org/2000/svg" xmlns:xlink="http://www.w3.org/1999/xlink" x="0px" y="0px"
	 viewBox="0 0 494.471 494.471" style="enable-background:new 0 0 494.471 494.471;" xml:space="preserve">
<g>
	<path d="M137.72,190.441c-20.473,0-37.129,16.655-37.129,37.128c0,20.473,16.656,37.129,37.129,37.129
		c20.473,0,37.128-16.656,37.128-37.129C174.848,207.096,158.192,190.441,137.72,190.441z M137.72,256.198
		c-15.786,0-28.629-12.843-28.629-28.629c0-15.785,12.843-28.628,28.629-28.628c15.786,0,28.628,12.843,28.628,28.628
		C166.348,243.355,153.505,256.198,137.72,256.198z"/>
	<path d="M146.864,225.498c-2.347,0-4.25,1.902-4.25,4.25c0,2.348,1.903,4.25,4.25,4.25h8.274c2.347,0,4.25-1.902,4.25-4.25
		c0-2.348-1.903-4.25-4.25-4.25H146.864z"/>
	<path d="M128.574,225.498H120.3c-2.347,0-4.25,1.902-4.25,4.25c0,2.348,1.903,4.25,4.25,4.25h8.274c2.347,0,4.25-1.902,4.25-4.25
		C132.824,227.4,130.921,225.498,128.574,225.498z"/>
	<path d="M103.647,190.554c0-2.348-1.903-4.25-4.25-4.25H80.236c-2.347,0-4.25,1.902-4.25,4.25c0,2.348,1.903,4.25,4.25,4.25h19.161
		C101.744,194.804,103.647,192.902,103.647,190.554z"/>
	<path d="M195.203,186.304h-19.161c-2.347,0-4.25,1.902-4.25,4.25c0,2.348,1.903,4.25,4.25,4.25h19.161
		c2.347,0,4.25-1.902,4.25-4.25C199.453,188.207,197.55,186.304,195.203,186.304z"/>
	<path d="M455.183,134.746c-4.608-4.358-17.217-10.441-31.949-2.255c-7.684,4.269-11.618,10.379-13.103,16.201
		c-0.534,0.346-1.06,0.707-1.583,1.075c-1.596-2.636-3.256-5.245-4.996-7.821c-0.71-1.052-1.853-1.731-3.116-1.852
		c-1.263-0.118-2.514,0.328-3.412,1.226L141.32,397.023c-0.897,0.896-1.347,2.148-1.225,3.411c0.121,1.264,0.801,2.406,1.852,3.116
		c31.936,21.561,68.595,32.101,105.089,32.101c48.679,0,97.054-18.766,133.452-55.164c55.475-55.475,69.978-138.747,39.536-208.563
		c0.541,0.242,1.093,0.463,1.663,0.644c10.105,3.207,18.028-1.865,20.63-8.535c2.34-6,0.538-14.472-8.947-18.893
		c-3.615-1.686-7.297-2.057-10.931-1.508c1.364-1.398,3.015-2.65,4.922-3.711c12.846-7.139,21.637,0.688,21.98,1.001
		c1.704,1.61,4.393,1.538,6.008-0.167C456.963,139.049,456.888,136.359,455.183,134.746z M399.337,151.027
		c0.875,1.379,1.72,2.77,2.553,4.165c-4.165,3.852-7.651,7.917-10.066,10.976c-1.054-1.534-2.141-2.995-3.265-4.362L399.337,151.027
		z M401.172,275.739h-73.387c-2.347,0-4.25,1.902-4.25,4.25c0,2.348,1.903,4.25,4.25,4.25h71.784
		c-1.269,6.012-2.784,11.861-4.469,17.5h-29.315c-2.347,0-4.25,1.902-4.25,4.25c0,2.348,1.903,4.25,4.25,4.25h26.603
		c-10.352,30.483-24.756,53.435-28.99,59.837h-15.576c-3.599-8.939-15.164-38.487-16.929-53.302
		c-0.183-1.533-1.194-2.838-2.624-3.422c-1.43-0.585-3.075-0.337-4.28,0.629c-0.264,0.212-26.361,20.358-106.122,18.515
		l34.257-34.257h33.661c2.347,0,4.25-1.902,4.25-4.25c0-2.348-1.903-4.25-4.25-4.25h-25.161l121.891-121.891
		c11.914,14.901,19.48,41.129,20.912,72.975C403.962,252.719,403.044,264.459,401.172,275.739z M374.477,374.477
		c-59.587,59.587-152.766,69.679-223.45,24.858l58.6-58.6c68.768,2.731,101.73-9.959,113.936-16.512
		c4.239,19.771,16.878,50.297,17.475,51.733c0.659,1.585,2.207,2.618,3.924,2.618h20.69c1.377,0,2.67-0.668,3.467-1.792
		c1.879-2.648,45.975-65.695,42.798-136.341c-1.2-26.689-6.656-49.845-15.392-66.442c2.241-3.075,5.674-7.262,9.669-11.169
		C442.893,231.816,430.803,318.152,374.477,374.477z M429.778,152.842c4.853,2.263,5.569,5.669,4.62,8.103
		c-1.126,2.888-4.779,5.221-10.139,3.521c-3.383-1.073-5.85-4.569-6.284-8.906c-0.053-0.528-0.076-1.055-0.069-1.577
		C422.044,151.911,426.17,151.163,429.778,152.842z"/>
	<path d="M422.058,72.414C375.361,25.718,313.274,0.001,247.236,0.001c-66.039,0-128.125,25.717-174.822,72.413
		C25.717,119.11,0,181.196,0,247.235c0,66.038,25.717,128.125,72.413,174.821c46.697,46.697,108.783,72.414,174.822,72.414
		s128.125-25.717,174.822-72.414c46.697-46.696,72.414-108.783,72.414-174.822S468.754,119.11,422.058,72.414z M416.047,416.047
		c-93.083,93.082-244.54,93.082-337.623,0c-93.082-93.084-93.082-244.54,0.001-337.623C124.966,31.884,186.1,8.613,247.235,8.613
		c61.135,0,122.27,23.271,168.811,69.811c45.091,45.091,69.924,105.042,69.924,168.811S461.138,370.955,416.047,416.047z"/>
	<path d="M396.606,396.606c-82.363,82.363-216.379,82.363-298.743,0c-1.66-1.66-4.351-1.66-6.011,0c-1.66,1.659-1.66,4.351,0,6.01
		c41.504,41.504,96.687,64.361,155.382,64.361s113.878-22.857,155.382-64.361c1.66-1.659,1.66-4.35,0-6.01
		C400.957,394.946,398.267,394.946,396.606,396.606z"/>
	<path d="M347.142,136.787l-131.951,131.95c-1.66,1.659-1.66,4.351,0,6.01c0.83,0.83,1.917,1.245,3.005,1.245
		c1.088,0,2.175-0.415,3.005-1.245l131.951-131.95c1.66-1.659,1.66-4.351,0-6.01C351.493,135.126,348.802,135.126,347.142,136.787z"
		/>
	<path d="M94.035,354.376c0.136,0.013,0.272,0.02,0.407,0.02c1.121,0,2.204-0.444,3.004-1.245l58.98-58.973
		c31.998-7.195,57.232-32.421,64.44-64.414L353.153,97.445c0.897-0.897,1.347-2.148,1.225-3.411
		c-0.122-1.264-0.801-2.406-1.853-3.116c-74.538-50.32-174.86-40.62-238.542,23.063c-6.277,6.275-11.502,12.263-16.611,19.054
		c-8.296-5.244-26.918-14.674-47.622-9.761c-1.65,0.392-2.909,1.727-3.204,3.396c-0.273,1.552-6.186,36.589,12.203,52.291
		c-4.036,9.904-6.279,20.723-6.279,32.061c0,11.404,2.267,22.284,6.348,32.235c-0.428,39.166,10.96,77.949,32.101,109.266
		C91.629,353.575,92.772,354.255,94.035,354.376z M128.524,310.056l-3.647-14.754c4.19,0.636,8.478,0.969,12.843,0.969
		c1.587,0,3.163-0.052,4.73-0.138L128.524,310.056z M137.72,287.771c-42.32,0-76.749-34.43-76.749-76.749
		c0-42.32,34.43-76.751,76.749-76.751c42.319,0.002,76.749,34.432,76.749,76.75C214.469,253.342,180.039,287.771,137.72,287.771z
		 M212.988,171.051c-6.792-12.738-16.724-23.55-28.755-31.416c7.25-4.38,21.52-11.194,37.024-8.669
		C222.088,138.684,223.297,160.057,212.988,171.051z M216.763,179.147c6.723-5.733,10.244-14.056,11.982-22.404
		c6.168-3.396,32.49-16.543,69.532-16.431l-75.448,75.468c0.087-1.576,0.14-3.161,0.14-4.759
		C222.969,199.755,220.751,189.002,216.763,179.147z M119.993,119.991c59.587-59.586,152.766-69.676,223.452-24.858l-36.909,36.918
		c-36.425-1.952-64.004,8.515-76.433,14.439c0.671-10.45-0.706-19.043-0.832-19.795c-0.283-1.686-1.547-3.037-3.21-3.432
		c-23.15-5.497-43.69,7.073-50.115,11.596c-11.506-5.8-24.486-9.087-38.226-9.088c-9.527,0-18.684,1.595-27.246,4.491
		C113.427,126.799,116.543,123.441,119.993,119.991z M54.533,130.979c15.45-2.542,29.679,4.124,36.971,8.463
		c-12.109,7.846-22.117,18.664-28.962,31.432C52.306,159.917,53.655,138.64,54.533,130.979z M115.639,293.355l5.865,23.721
		l-26.365,26.362c-15.541-24.624-24.978-53.686-27.282-83.65C79.205,275.997,96.033,288.091,115.639,293.355z"/>
</g>
<g>
</g>
<g>
</g>
<g>
</g>
<g>
</g>
<g>
</g>
<g>
</g>
<g>
</g>
<g>
</g>
<g>
</g>
<g>
</g>
<g>
</g>
<g>
</g>
<g>
</g>
<g>
</g>
<g>
</g>
</svg>
