<?xml version="1.0" encoding="iso-8859-1"?>
<!-- Generator: Adobe Illustrator 18.0.0, SVG Export Plug-In . SVG Version: 6.00 Build 0)  -->
<!DOCTYPE svg PUBLIC "-//W3C//DTD SVG 1.1//EN" "http://www.w3.org/Graphics/SVG/1.1/DTD/svg11.dtd">
<svg version="1.1" id="Capa_1" xmlns="http://www.w3.org/2000/svg" xmlns:xlink="http://www.w3.org/1999/xlink" x="0px" y="0px"
	 viewBox="0 0 489.736 489.736" style="enable-background:new 0 0 489.736 489.736;" xml:space="preserve">
<g>
	<path d="M448.299,246.363c-0.404-0.534-10.114-13.179-27.112-22.23c-14.929-7.947-38.275-14.383-66.569-1.867V74.36
		c0-19.034-15.485-34.519-34.519-34.519h-9.081c-10.716,0-20.502,4.881-27.091,12.424V34.52c0-19.034-15.485-34.52-34.52-34.52
		h-9.081c-19.033,0-34.518,15.484-34.518,34.518v17.35c-6.436-7.356-15.956-12.027-26.568-12.027h-9.082
		c-19.033,0-34.518,15.485-34.518,34.519v148.143c-28.526-12.826-52.07-6.367-67.09,1.63c-16.999,9.051-26.708,21.695-27.113,22.23
		c-0.976,1.285-1.139,3.013-0.421,4.459c0.718,1.445,2.192,2.359,3.807,2.359c11.815,0,21.646,4.187,30.052,12.798
		c29.634,30.356,28.221,103.736,28.203,104.474c-0.001,0.034-0.001,0.069-0.001,0.104c0,35.859,14.879,66.362,43.027,88.211
		c25.73,19.971,60.806,30.97,98.764,30.97c37.958,0,73.033-10.999,98.764-30.97c28.148-21.849,43.027-52.352,43.027-88.21
		c0-0.035,0-0.069-0.001-0.104c-0.019-0.737-1.462-74.075,28.195-104.467c8.408-8.616,18.24-12.805,30.06-12.805
		c1.614,0,3.089-0.914,3.807-2.359C449.438,249.376,449.275,247.648,448.299,246.363z M332.921,456.266h-56.632
		c-2.348,0-4.25,1.902-4.25,4.25c0,2.348,1.902,4.25,4.25,4.25h42.054c-22.254,11.114-48.241,16.471-73.475,16.471
		c-50.177,0-103.344-21.163-124.174-66.717c33.015,23.329,79.272,36.048,132.113,36.048c2.348,0,4.25-1.902,4.25-4.25
		c0-2.348-1.902-4.25-4.25-4.25c-56.101,0-106.182-15.494-137.505-42.516c-1.916-7.064-3.132-14.609-3.553-22.643
		c23.831,31.662,75.177,52.23,133.119,52.23c57.941,0,109.287-20.569,133.118-52.232c-1.228,23.491-9.26,42.797-21.705,58.134
		h-38.073c-2.348,0-4.25,1.902-4.25,4.25c0,2.348,1.902,4.25,4.25,4.25h30.332C343.757,448.232,338.521,452.473,332.921,456.266z
		 M297.91,362.908c0,29.248-23.795,53.043-53.042,53.043c-29.247,0-53.042-23.795-53.042-53.043
		c0-29.247,23.795-53.042,53.042-53.042C274.115,309.866,297.91,333.661,297.91,362.908z M306.41,362.908
		c0-23.03-12.723-43.133-31.502-53.683c19.306,2.552,37.478,7.564,53.584,14.886c22.199,10.09,39.092,24.178,47.843,39.839
		c-8.751,15.662-25.643,29.75-47.843,39.84c-17.628,8.012-37.728,13.264-59.085,15.542
		C291.162,409.834,306.41,388.123,306.41,362.908z M183.326,362.908c0,25.215,15.249,46.926,37.003,56.425
		c-21.358-2.279-41.458-7.531-59.086-15.543c-22.2-10.09-39.092-24.178-47.843-39.84c8.751-15.661,25.643-29.749,47.843-39.839
		c16.107-7.321,34.278-12.335,53.585-14.887C196.049,319.774,183.326,339.878,183.326,362.908z M408.77,260.05
		c-15.459,15.843-23.145,41.313-26.952,63.832c-31.379-29.07-84.822-46.865-142.055-46.865c-2.347,0-4.25,1.902-4.25,4.25
		c0,2.348,1.903,4.25,4.25,4.25c57.91,0,111.521,18.661,140.524,48.785c-0.808,6.421-1.317,12.389-1.638,17.563
		c-23.538-32.159-75.309-53.103-133.781-53.103c-58.474,0-110.243,20.943-133.782,53.103c-0.533-8.621-1.596-19.453-3.682-30.896
		h11.291c2.347,0,4.25-1.902,4.25-4.25c0-2.348-1.903-4.25-4.25-4.25h-13.016c-0.993-4.416-2.149-8.863-3.498-13.255h46.229
		c2.347,0,4.25-1.902,4.25-4.25c0-2.348-1.903-4.25-4.25-4.25H99.289c-4.379-11.641-10.306-22.447-18.323-30.663
		c-7.766-7.958-16.878-12.855-27.174-14.622c4.214-4.102,10.693-9.544,19.025-13.937c20.1-10.599,41.232-10.45,62.823,0.42v39.195
		c0,2.348,1.903,4.25,4.25,4.25s4.25-1.902,4.25-4.25V74.359c0-14.347,11.671-26.019,26.018-26.019h9.082
		c14.401,0,26.568,11.915,26.568,26.019v156.905c0,2.348,1.903,4.25,4.25,4.25c2.347,0,4.25-1.902,4.25-4.25V34.518
		c0-14.346,11.672-26.018,26.018-26.018h9.081c14.348,0,26.02,11.672,26.02,26.02v196.746c0,2.348,1.902,4.25,4.25,4.25
		c2.348,0,4.25-1.902,4.25-4.25V74.359c0-14.104,12.406-26.019,27.091-26.019h9.081c14.347,0,26.019,11.672,26.019,26.019v196.747
		c0,2.348,1.902,4.25,4.25,4.25c2.348,0,4.25-1.902,4.25-4.25V231.65c21.409-10.61,42.362-10.671,62.302-0.158
		c8.332,4.393,14.811,9.836,19.025,13.936C425.648,247.195,416.536,252.092,408.77,260.05z"/>
	<path d="M240.326,15.134c-10.688,0-19.384,8.695-19.384,19.384c0,2.348,1.903,4.25,4.25,4.25c2.347,0,4.25-1.902,4.25-4.25
		c0-6.001,4.882-10.884,10.884-10.884c2.347,0,4.25-1.902,4.25-4.25C244.576,17.036,242.674,15.134,240.326,15.134z"/>
	<path d="M327.759,83.241c-2.348,0-4.25,1.902-4.25,4.25v132.654c0,2.348,1.902,4.25,4.25,4.25c2.348,0,4.25-1.902,4.25-4.25V87.491
		C332.009,85.144,330.107,83.241,327.759,83.241z"/>
	<path d="M161.145,66.791c-2.347,0-4.25,1.902-4.25,4.25v52.531c0,2.348,1.903,4.25,4.25,4.25c2.347,0,4.25-1.902,4.25-4.25V71.041
		C165.395,68.693,163.492,66.791,161.145,66.791z"/>
	<path d="M211.554,365.01h11.197c1.063,11.27,10.574,20.117,22.117,20.117c9.455,0,17.545-5.939,20.747-14.281h10.889
		c2.348,0,4.25-1.902,4.25-4.25c0-2.348-1.902-4.25-4.25-4.25h-9.433c-0.3-11.991-10.141-21.655-22.203-21.655
		c-10.028,0-18.521,6.678-21.276,15.819h-12.039c-2.347,0-4.25,1.902-4.25,4.25C207.304,363.107,209.207,365.01,211.554,365.01z
		 M244.868,349.19c7.564,0,13.718,6.153,13.718,13.718c0,7.564-6.153,13.719-13.718,13.719c-7.565,0-13.719-6.154-13.719-13.719
		C231.149,355.344,237.303,349.19,244.868,349.19z"/>
	<path d="M208.525,241.979c-2.347,0-4.25,1.902-4.25,4.25v17.999c0,2.348,1.903,4.25,4.25,4.25c2.347,0,4.25-1.902,4.25-4.25
		v-17.999C212.775,243.881,210.872,241.979,208.525,241.979z"/>
	<path d="M279.022,240.479c-2.348,0-4.25,1.902-4.25,4.25v14.999c0,2.348,1.902,4.25,4.25,4.25c2.348,0,4.25-1.902,4.25-4.25
		v-14.999C283.272,242.381,281.369,240.479,279.022,240.479z"/>
</g>
<g>
</g>
<g>
</g>
<g>
</g>
<g>
</g>
<g>
</g>
<g>
</g>
<g>
</g>
<g>
</g>
<g>
</g>
<g>
</g>
<g>
</g>
<g>
</g>
<g>
</g>
<g>
</g>
<g>
</g>
</svg>
