<?xml version="1.0" encoding="iso-8859-1"?>
<!-- Generator: Adobe Illustrator 18.0.0, SVG Export Plug-In . SVG Version: 6.00 Build 0)  -->
<!DOCTYPE svg PUBLIC "-//W3C//DTD SVG 1.1//EN" "http://www.w3.org/Graphics/SVG/1.1/DTD/svg11.dtd">
<svg version="1.1" id="Capa_1" xmlns="http://www.w3.org/2000/svg" xmlns:xlink="http://www.w3.org/1999/xlink" x="0px" y="0px"
	 viewBox="0 0 489.1 489.1" style="enable-background:new 0 0 489.1 489.1;" xml:space="preserve">
<g>
	<path d="M244.648,30.615c-55.227,0-100.166,44.895-100.237,100.106c-0.29,4.818-4.117,80.009,35.012,121.702
		c16.604,17.691,38.548,26.661,65.225,26.661c23.956,0,44.212-8.238,60.203-24.485c40.863-41.517,40.087-120.472,40.034-123.745
		C344.885,75.582,299.919,30.615,244.648,30.615z M244.648,39.115c35.346,0,66.083,20.097,81.397,49.484h-10.851
		c-2.348,0-4.25,1.903-4.25,4.25c0,2.347,1.902,4.25,4.25,4.25h14.745c1.299,3.271,2.411,6.635,3.332,10.077H156.014
		c2.503-9.363,6.452-18.141,11.595-26.077h26.584c2.347,0,4.25-1.903,4.25-4.25c0-2.347-1.903-4.25-4.25-4.25h-20.362
		C190.671,52.165,216.164,39.115,244.648,39.115z M298.792,248.636c-14.334,14.563-32.551,21.948-54.145,21.948
		c-24.225,0-44.079-8.061-59.009-23.959c-37.058-39.459-32.784-114.747-32.736-115.503c0.005-0.089,0.008-0.179,0.008-0.268
		c0-5.17,0.436-10.238,1.263-15.177h180.942c0.831,4.959,1.271,10.051,1.271,15.244C336.398,131.704,337.184,209.63,298.792,248.636
		z"/>
	<path d="M422.217,303.94c-42.113-17.96-50.155-106.975-50.232-107.872c-0.198-2.338-2.248-4.067-4.594-3.875
		c-2.339,0.198-4.073,2.254-3.875,4.593c0.327,3.87,8.561,95.012,55.367,114.973c0.544,0.232,1.109,0.342,1.665,0.342
		c1.651,0,3.223-0.969,3.911-2.584C425.38,307.358,424.376,304.861,422.217,303.94z"/>
	<path d="M451.151,325.545c8.426-8.924,11.891-15.215,12.143-15.683c0.565-1.051,0.662-2.292,0.268-3.419
		c-0.396-1.126-1.245-2.035-2.344-2.503c-47.478-20.249-73.459-75.651-77.221-164.67c-1.585-37.516-16.5-72.453-41.997-98.376
		C316.062,14.523,281.453,0,244.55,0c-36.904,0-71.512,14.523-97.449,40.894c-25.497,25.923-40.412,60.861-41.997,98.376
		c-3.762,89.018-29.743,144.421-77.221,164.67c-1.098,0.468-1.949,1.376-2.344,2.503s-0.298,2.367,0.267,3.419
		c0.252,0.469,3.728,6.779,12.183,15.726C28.61,332.78,6.8,353.655,6.8,392.283v92.566c0,2.347,1.903,4.25,4.25,4.25
		c2.347,0,4.25-1.903,4.25-4.25V450.1h61.894c2.347,0,4.25-1.903,4.25-4.25c0-2.347-1.903-4.25-4.25-4.25H15.3v-14.5h24.894
		c2.347,0,4.25-1.903,4.25-4.25c0-2.347-1.903-4.25-4.25-4.25H15.3v-26.316c0-8.728,1.237-16.424,3.2-23.184h13.693
		c2.347,0,4.25-1.903,4.25-4.25c0-2.347-1.903-4.25-4.25-4.25H21.528c6.919-16.203,17.745-25.461,22.556-28.971
		c6.568,6.116,15.165,12.974,26.226,19.832C100.204,370,154.699,392.1,244.55,392.1S388.896,370,418.79,351.461
		c11.08-6.872,19.688-13.741,26.261-19.865c6.474,4.659,25.697,21.053,28.424,53.004h-31.281c-2.348,0-4.25,1.903-4.25,4.25
		c0,2.347,1.902,4.25,4.25,4.25H473.8v13h-69.606c-2.348,0-4.25,1.903-4.25,4.25c0,2.347,1.902,4.25,4.25,4.25H473.8v13h-19.606
		c-2.348,0-4.25,1.903-4.25,4.25c0,2.347,1.902,4.25,4.25,4.25H473.8v48.75c0,2.347,1.902,4.25,4.25,4.25
		c2.348,0,4.25-1.903,4.25-4.25v-92.566C482.3,353.288,460.286,332.495,451.151,325.545z M413.686,344.624
		C384.761,362.404,331.939,383.6,244.55,383.6c-87.389,0-140.211-21.195-169.136-38.976c-22.94-14.102-34.862-28.333-39.607-34.955
		c6.385-3.097,12.392-6.831,18.023-11.183c24.887,24.761,83.173,63.614,203.72,63.614c2.348,0,4.25-1.903,4.25-4.25
		c0-2.347-1.902-4.25-4.25-4.25c-116.69,0-172.99-36.804-197.179-60.6c3.777-3.436,7.36-7.188,10.75-11.247
		c8.298,8.211,18.156,15.884,29.384,22.829c0.697,0.431,1.469,0.636,2.232,0.636c1.423,0,2.814-0.715,3.618-2.015
		c1.235-1.997,0.618-4.616-1.378-5.85c-11.014-6.813-20.608-14.332-28.593-22.361c8.793-12.127,16.092-26.604,21.849-43.383
		c8.808-25.672,13.833-55.759,15.364-91.98C116.703,66.099,174.224,8.5,244.55,8.5c70.325,0,127.847,57.599,130.954,131.129
		c1.53,36.221,6.556,66.308,15.363,91.98c13.059,38.061,34.044,64.294,62.425,78.06
		C448.543,316.296,436.622,330.523,413.686,344.624z"/>
</g>
<g>
</g>
<g>
</g>
<g>
</g>
<g>
</g>
<g>
</g>
<g>
</g>
<g>
</g>
<g>
</g>
<g>
</g>
<g>
</g>
<g>
</g>
<g>
</g>
<g>
</g>
<g>
</g>
<g>
</g>
</svg>
