<?xml version="1.0" encoding="iso-8859-1"?>
<!-- Generator: Adobe Illustrator 18.0.0, SVG Export Plug-In . SVG Version: 6.00 Build 0)  -->
<!DOCTYPE svg PUBLIC "-//W3C//DTD SVG 1.1//EN" "http://www.w3.org/Graphics/SVG/1.1/DTD/svg11.dtd">
<svg version="1.1" id="Capa_1" xmlns="http://www.w3.org/2000/svg" xmlns:xlink="http://www.w3.org/1999/xlink" x="0px" y="0px"
	 viewBox="0 0 489.1 489.1" style="enable-background:new 0 0 489.1 489.1;" xml:space="preserve">
<g>
	<path d="M384.184,144.422c-1.458-37.52-16.688-77.605-42.185-103.528C316.062,14.524,281.453,0,244.55,0
		c-36.904,0-71.512,14.524-97.449,40.894c-25.497,25.924-40.47,62.242-42.048,99.757c-2.016,47.92-5.794,138.139-62.191,180.724
		c-1.291,0.975-2.604,1.933-3.926,2.898C23.872,335.269,6.8,347.733,6.8,392.283v92.566c0,2.348,1.903,4.25,4.25,4.25
		c2.347,0,4.25-1.902,4.25-4.25V450.1h61.894c2.347,0,4.25-1.902,4.25-4.25c0-2.348-1.903-4.25-4.25-4.25H15.3v-14.5h24.894
		c2.347,0,4.25-1.902,4.25-4.25c0-2.348-1.903-4.25-4.25-4.25H15.3v-26.316c0-9.148,0.759-16.753,2.088-23.184h14.805
		c2.347,0,4.25-1.902,4.25-4.25c0-2.348-1.903-4.25-4.25-4.25H19.685c4.862-14.167,13.138-21.234,21.588-27.5h35.919
		c2.347,0,4.25-1.902,4.25-4.25c0-2.348-1.903-4.25-4.25-4.25H52.452c23.491-19.646,40.306-49.534,50.017-88.953
		c8.561-34.753,10.091-71.556,11.077-94.996C116.639,67.119,174.224,8.5,244.55,8.5c70.325,0,128.283,62.382,131.141,135.922
		c1.965,50.553,5.317,149.795,67.368,185.131c11.516,6.558,28.563,16.276,30.546,55.047h-31.411c-2.348,0-4.25,1.902-4.25,4.25
		c0,2.348,1.902,4.25,4.25,4.25H473.8v13h-69.606c-2.348,0-4.25,1.902-4.25,4.25c0,2.348,1.902,4.25,4.25,4.25H473.8v13h-19.606
		c-2.348,0-4.25,1.902-4.25,4.25c0,2.348,1.902,4.25,4.25,4.25H473.8v48.75c0,2.348,1.902,4.25,4.25,4.25
		c2.348,0,4.25-1.902,4.25-4.25v-92.566c0-46.29-18.084-60.465-35.034-70.117C389.334,289.177,386.084,193.32,384.184,144.422z"/>
	<path d="M343.169,158.589c0.291-16.285,1.723-27.332,1.716-27.735c0-55.272-44.966-100.238-100.237-100.238
		c-55.217,0-100.149,44.882-100.237,100.08c-0.11,1.538,0.415,12.375,0.392,27.804c-0.082,53.43-17.146,213.032-17.146,213.032
		c-0.141,1.754,0.813,3.413,2.4,4.174c38.342,18.373,76.802,24.063,109.738,24.063c17.299,0,33.078-1.57,46.509-3.697
		c42.208-6.686,70.249-19.802,71.422-20.357c1.597-0.756,2.56-2.419,2.419-4.18C360.144,371.534,342.215,211.985,343.169,158.589z
		 M152.933,129.1h32.26c2.347,0,4.25-1.902,4.25-4.25c0-2.348-1.903-4.25-4.25-4.25h-31.706c0.185-1.654,0.414-3.296,0.686-4.923
		h180.943c0.831,4.959,1.271,10.051,1.271,15.244c0.001,0.102,0.13,9.516-1.293,23.346H153.027
		C151.46,143.531,152.933,129.1,152.933,129.1z M244.648,39.115c35.346,0,66.083,20.097,81.397,49.484h-10.851
		c-2.348,0-4.25,1.902-4.25,4.25c0,2.348,1.902,4.25,4.25,4.25h14.745c1.299,3.271,2.411,6.635,3.332,10.077H156.014
		c2.503-9.363,6.452-18.141,11.595-26.077h26.584c2.347,0,4.25-1.902,4.25-4.25c0-2.348-1.903-4.25-4.25-4.25h-20.362
		C190.671,52.165,216.163,39.115,244.648,39.115z M284.7,387.718c-32.874,5.177-80.236,6.897-129.19-10.612l10.589-146.282
		c0.169-2.341-1.591-4.376-3.932-4.546c-2.33-0.148-4.376,1.592-4.545,3.933l-10.406,143.757c-3.614-1.452-7.232-3.009-10.85-4.685
		l16.621-206.515h181.99l1.619,20.307h-89.312c-2.348,0-4.25,1.902-4.25,4.25c0,2.348,1.902,4.25,4.25,4.25h89.989L347.636,321.6
		h-23.442c-2.348,0-4.25,1.902-4.25,4.25c0,2.348,1.902,4.25,4.25,4.25h24.12l0.997,12.5h-44.117c-2.348,0-4.25,1.902-4.25,4.25
		c0,2.348,1.902,4.25,4.25,4.25h44.794l1.443,18.103C343.511,372.574,318.527,382.392,284.7,387.718z"/>
</g>
<g>
</g>
<g>
</g>
<g>
</g>
<g>
</g>
<g>
</g>
<g>
</g>
<g>
</g>
<g>
</g>
<g>
</g>
<g>
</g>
<g>
</g>
<g>
</g>
<g>
</g>
<g>
</g>
<g>
</g>
</svg>
