<?xml version="1.0" encoding="iso-8859-1"?>
<!-- Generator: Adobe Illustrator 18.0.0, SVG Export Plug-In . SVG Version: 6.00 Build 0)  -->
<!DOCTYPE svg PUBLIC "-//W3C//DTD SVG 1.1//EN" "http://www.w3.org/Graphics/SVG/1.1/DTD/svg11.dtd">
<svg version="1.1" id="Capa_1" xmlns="http://www.w3.org/2000/svg" xmlns:xlink="http://www.w3.org/1999/xlink" x="0px" y="0px"
	 viewBox="0 0 489.493 489.493" style="enable-background:new 0 0 489.493 489.493;" xml:space="preserve">
<g>
	<path d="M4.25,296.033h480.993c2.347,0,4.25-1.903,4.25-4.25s-1.903-4.25-4.25-4.25h-161.82
		c11.833-11.019,21.062-24.181,27.286-38.693h52.433c2.347,0,4.25-1.903,4.25-4.25c0-2.347-1.903-4.25-4.25-4.25h-49.188
		c3.958-11.738,6.042-24.203,6.042-37.018c0-6.494-0.553-13.039-1.643-19.454c-0.343-2.015-2.071-3.501-4.116-3.537
		c-2.009-0.027-3.823,1.389-4.237,3.391c-6.899,33.448-36.734,57.725-70.942,57.725c-39.942,0-72.437-32.495-72.437-72.438
		c0-9.909,2.048-19.446,5.756-28.17h25.765c2.347,0,4.25-1.903,4.25-4.25c0-2.347-1.903-4.25-4.25-4.25h-21.474
		c3.116-5.287,6.886-10.16,11.21-14.5h59.263c2.347,0,4.25-1.903,4.25-4.25c0-2.347-1.903-4.25-4.25-4.25h-49.1
		c7.764-5.368,16.648-9.28,26.304-11.272c2.002-0.413,3.427-2.193,3.391-4.237c-0.036-2.044-1.522-3.773-3.537-4.116
		c-6.415-1.09-12.96-1.643-19.454-1.643c-45.848,0-85.524,26.913-104.073,65.768H95.142c-2.347,0-4.25,1.903-4.25,4.25
		c0,2.347,1.903,4.25,4.25,4.25h41.891c-4.864,12.74-7.537,26.554-7.537,40.982c0,18.828,4.485,36.903,12.837,53.018h-25.357
		c-2.347,0-4.25,1.903-4.25,4.25c0,2.347,1.903,4.25,4.25,4.25h30.238c5.228,8.259,11.544,15.885,18.855,22.693H4.25
		c-2.347,0-4.25,1.903-4.25,4.25S1.903,296.033,4.25,296.033z M137.997,203.322c0-58.248,46.897-105.749,104.914-106.734
		c-26.828,13.458-44.789,41.323-44.789,72.422c0,44.629,36.309,80.938,80.937,80.938c31.099,0,58.964-17.962,72.422-44.79
		c-0.543,32.453-15.465,62.352-41.146,82.376H179.158C152.993,267.131,137.997,236.481,137.997,203.322z"/>
	<path d="M485.243,314.299H4.25c-2.347,0-4.25,1.903-4.25,4.25s1.903,4.25,4.25,4.25h480.993c2.347,0,4.25-1.903,4.25-4.25
		S487.59,314.299,485.243,314.299z"/>
	<path d="M436.681,361.55H296.67c-2.347,0-4.25,1.903-4.25,4.25c0,2.347,1.903,4.25,4.25,4.25h140.011c2.347,0,4.25-1.903,4.25-4.25
		C440.931,363.453,439.028,361.55,436.681,361.55z"/>
	<path d="M220.99,361.55H96.117c-2.347,0-4.25,1.903-4.25,4.25c0,2.347,1.903,4.25,4.25,4.25H220.99c2.347,0,4.25-1.903,4.25-4.25
		C225.24,363.453,223.337,361.55,220.99,361.55z"/>
	<path d="M135.848,385.353H16.651c-2.347,0-4.25,1.903-4.25,4.25s1.903,4.25,4.25,4.25h119.197c2.347,0,4.25-1.903,4.25-4.25
		S138.195,385.353,135.848,385.353z"/>
	<path d="M308.023,392.921h-71.896c-2.347,0-4.25,1.903-4.25,4.25c0,2.347,1.903,4.25,4.25,4.25h71.896
		c2.347,0,4.25-1.903,4.25-4.25C312.273,394.824,310.37,392.921,308.023,392.921z"/>
	<path d="M183.658,261.853c-17.26-13.289-27.16-33.383-27.16-55.13c0-2.347-1.903-4.25-4.25-4.25c-2.347,0-4.25,1.903-4.25,4.25
		c0,24.406,11.107,46.955,30.474,61.866c0.772,0.595,1.685,0.882,2.59,0.882c1.273,0,2.533-0.57,3.371-1.657
		C185.864,265.954,185.518,263.286,183.658,261.853z"/>
	<path d="M36.142,162.339h33c2.347,0,4.25-1.903,4.25-4.25c0-2.347-1.903-4.25-4.25-4.25h-33c-2.347,0-4.25,1.903-4.25,4.25
		C31.892,160.436,33.795,162.339,36.142,162.339z"/>
	<path d="M50.892,197.589c0,2.347,1.903,4.25,4.25,4.25h39c2.347,0,4.25-1.903,4.25-4.25c0-2.347-1.903-4.25-4.25-4.25h-39
		C52.795,193.339,50.892,195.242,50.892,197.589z"/>
</g>
<g>
</g>
<g>
</g>
<g>
</g>
<g>
</g>
<g>
</g>
<g>
</g>
<g>
</g>
<g>
</g>
<g>
</g>
<g>
</g>
<g>
</g>
<g>
</g>
<g>
</g>
<g>
</g>
<g>
</g>
</svg>
