<?xml version="1.0" encoding="iso-8859-1"?>
<!-- Generator: Adobe Illustrator 18.0.0, SVG Export Plug-In . SVG Version: 6.00 Build 0)  -->
<!DOCTYPE svg PUBLIC "-//W3C//DTD SVG 1.1//EN" "http://www.w3.org/Graphics/SVG/1.1/DTD/svg11.dtd">
<svg version="1.1" id="Capa_1" xmlns="http://www.w3.org/2000/svg" xmlns:xlink="http://www.w3.org/1999/xlink" x="0px" y="0px"
	 viewBox="0 0 474.271 474.271" style="enable-background:new 0 0 474.271 474.271;" xml:space="preserve">
<g>
	<path d="M27.657,199.339c0-2.348-1.902-4.25-4.25-4.25c-2.348,0-4.25,1.902-4.25,4.25c0,58.96,32.214,113.086,84.07,141.256
		c0.645,0.351,1.339,0.517,2.024,0.517c1.508,0,2.968-0.805,3.738-2.223c1.12-2.063,0.357-4.643-1.706-5.763
		C58.169,306.445,27.657,255.18,27.657,199.339z"/>
	<path d="M415.567,186.764c-7.847-23.043-27.446-40.783-51.139-46.232l-6.358-28.379c4.09-2.954,6.767-7.75,6.767-13.169
		c0-7.487-5.098-13.791-12-15.667V60.484c0-2.348-1.902-4.25-4.25-4.25c-2.348,0-4.25,1.902-4.25,4.25v22.833
		c-6.902,1.876-12,8.18-12,15.667c0,5.42,2.677,10.215,6.768,13.169l-6.357,28.379c-23.694,5.449-43.294,23.189-51.139,46.232
		h-0.929c-1.452,0-2.804,0.741-3.584,1.966c-0.68,1.066-0.844,2.371-0.469,3.559H170.02c-2.051,0-3.809,1.464-4.18,3.48
		c-0.103,0.559-2.302,13.739,16.235,20.227l2.021,0.701c55.939,19.36,89.295,42.176,99.205,67.827
		c-1.02,3.405-2.169,6.766-3.47,10.064c-11.684,2.631-24.339,4.189-34.203,4.189c-79.288,0-143.793-64.505-143.793-143.793
		c0-70.819,52.753-131.974,122.708-142.252c2.101-0.309,3.651-2.121,3.632-4.245c-0.02-2.123-1.604-3.906-3.711-4.176
		c-8.407-1.075-16.988-1.621-25.504-1.621C89.254,2.69,0,91.944,0,201.652c0,36.159,10.823,72.32,31.299,104.574
		c18.786,29.592,44.373,54.06,74.152,71.021c-0.567,0.929-1.154,1.847-1.779,2.743c-0.034,0.048-0.066,0.097-0.098,0.147
		c-6.416,10.058-9.808,21.821-9.808,34.018c0,13.16,4.033,25.94,11.489,36.788H67.509c-2.348,0-4.25,1.902-4.25,4.25
		c0,11.997,6.202,16.272,12.006,16.272h152.02c5.804,0,12.006-4.274,12.006-16.272c0-2.348-1.902-4.25-4.25-4.25h-37.749
		c7.457-10.849,11.491-23.629,11.491-36.788c0-4.758-0.521-9.444-1.533-13.991c13.248-0.189,24.211-1.186,37.589-4.521
		c0.498,36.598,15.828,52.617,36.93,74.629c0.802,0.836,1.91,1.309,3.068,1.309h127.5c1.158,0,2.267-0.473,3.068-1.309
		c21.454-22.381,36.956-38.551,36.956-76.463c0-22.185-5.216-43.658-15.158-62.874c35.781-4.149,37.059-41.373,37.068-41.86v-98.061
		c0-2.348-1.902-4.25-4.25-4.25H415.567z M446.951,280.764c0.003,0.083,0.132,8.499-5.953,14.81
		c-4.434,4.598-11.146,7.101-19.964,7.464c-8.368-17.259-12.742-36.292-12.742-55.931c0-11.329,1.43-22.378,4.241-33.047h34.415
		v66.549C446.948,280.662,446.949,280.712,446.951,280.764z M297.099,240.734c-0.704-15.786-4.029-31.03-9.926-45.47h122.691
		c-5.896,14.44-9.222,29.685-9.927,45.47H297.099z M348.587,91.234c4.273,0,7.75,3.477,7.75,7.75c0,4.273-3.477,7.75-7.75,7.75
		c-4.273,0-7.75-3.477-7.75-7.75C340.837,94.71,344.314,91.234,348.587,91.234z M337.077,148.31c1.671-0.313,2.994-1.59,3.366-3.249
		l6.698-29.9c0.478,0.042,0.958,0.073,1.445,0.073c0.487,0,0.968-0.031,1.445-0.073l6.7,29.901c0.372,1.658,1.695,2.936,3.366,3.248
		c20.968,3.923,38.65,18.747,46.426,38.454H290.65C298.425,167.057,316.107,152.233,337.077,148.31z M186.877,208.665l-1.993-0.692
		c-6.137-2.148-8.778-4.962-9.898-7.184h105.222c5.66,14.677,8.536,30.217,8.536,46.319c0,8.373-0.781,16.617-2.31,24.648
		C271.843,247.696,238.449,226.512,186.877,208.665z M181.757,360.734h-61.006c0.739-3.924,1.115-7.949,1.115-12.035
		c0-12.702-3.687-24.869-10.515-35.07h79.784c-6.828,10.203-10.516,22.37-10.516,35.07
		C180.62,352.777,181.007,356.802,181.757,360.734z M227.284,462.964H75.265c-1.743,0-2.63-1.649-3.074-3.522h158.168
		C229.914,461.315,229.027,462.964,227.284,462.964z M186.577,450.943H115.97c-3.575-4.188-6.503-8.803-8.716-13.709h36.333
		c2.348,0,4.25-1.902,4.25-4.25c0-2.348-1.902-4.25-4.25-4.25h-39.37c-1.277-4.728-1.95-9.621-1.95-14.579
		c0-10.546,2.914-20.702,8.429-29.377c3.346-4.812,5.961-10.038,7.822-15.544H184c1.764,5.176,4.2,10.112,7.282,14.697
		c0.031,0.053,0.064,0.105,0.099,0.157c5.823,8.845,8.901,19.241,8.901,30.066C200.282,427.593,195.421,440.583,186.577,450.943z
		 M198.617,379.623c-0.051-0.087-0.104-0.172-0.161-0.256c-6.107-9.01-9.336-19.614-9.336-30.668
		c0-13.685,4.925-26.633,13.866-36.46c1.132-1.244,1.424-3.04,0.743-4.579c-0.68-1.539-2.204-2.531-3.887-2.531h-97.199
		c-1.683,0-3.207,0.993-3.887,2.532c-0.681,1.538-0.389,3.334,0.743,4.578c8.942,9.825,13.866,22.773,13.866,36.46
		c0,7.328-1.398,14.422-4.082,20.974C47.922,334.597,8.5,269.118,8.5,201.652C8.5,97.855,91.959,13.185,195.295,11.225
		c-24.744,8.673-47.054,23.701-64.545,43.78c-24.126,27.697-37.413,63.203-37.413,99.979c0,83.975,68.318,152.293,152.293,152.293
		c8.738,0,19.496-1.145,29.958-3.131c-2.759,5.579-5.93,10.965-9.519,16.11c-0.034,0.048-0.066,0.097-0.098,0.146
		c-12.613,19.771-19.787,42.607-20.964,66.428c-14.518,3.84-25.529,4.764-40.276,4.863
		C203.143,387.47,201.099,383.425,198.617,379.623z M425.807,446.227h-81.954c-2.348,0-4.25,1.902-4.25,4.25
		c0,2.348,1.902,4.25,4.25,4.25h74.552c-2.487,2.706-5.117,5.467-7.882,8.353H286.649c-11.929-12.451-21.427-22.604-27.186-35.847
		h28.057c2.348,0,4.25-1.902,4.25-4.25c0-2.348-1.902-4.25-4.25-4.25h-31.088c-1.485-5.224-2.462-10.981-2.88-17.5h130.468
		c2.348,0,4.25-1.902,4.25-4.25c0-2.348-1.902-4.25-4.25-4.25H253.333c0.196-24.289,7.009-47.673,19.758-67.688
		c15.406-22.115,23.706-48.285,24.114-75.813h102.626c0.402,26.662,8.345,52.225,23.075,74.071c0.043,0.074,0.088,0.147,0.136,0.22
		c13.619,20.687,20.818,44.99,20.818,70.284C443.86,418.041,437.068,432.334,425.807,446.227z M432.603,322.753
		c-0.744-1.22-1.499-2.434-2.283-3.631c-0.061-0.108-0.126-0.215-0.197-0.319c-1.676-2.472-3.25-5-4.738-7.569
		c9.178-1.032,16.469-4.302,21.732-9.759c8.335-8.643,8.358-19.661,8.332-20.917v-70.747c0-2.348-1.902-4.25-4.25-4.25h-36.11
		c1.185-3.48,2.527-6.912,4.019-10.297h46.664l0.001,93.716C465.741,290.332,464.648,321.438,432.603,322.753z"/>
</g>
<g>
</g>
<g>
</g>
<g>
</g>
<g>
</g>
<g>
</g>
<g>
</g>
<g>
</g>
<g>
</g>
<g>
</g>
<g>
</g>
<g>
</g>
<g>
</g>
<g>
</g>
<g>
</g>
<g>
</g>
</svg>
