<?xml version="1.0" encoding="iso-8859-1"?>
<!-- Generator: Adobe Illustrator 18.0.0, SVG Export Plug-In . SVG Version: 6.00 Build 0)  -->
<!DOCTYPE svg PUBLIC "-//W3C//DTD SVG 1.1//EN" "http://www.w3.org/Graphics/SVG/1.1/DTD/svg11.dtd">
<svg version="1.1" id="Capa_1" xmlns="http://www.w3.org/2000/svg" xmlns:xlink="http://www.w3.org/1999/xlink" x="0px" y="0px"
	 viewBox="0 0 487.5 487.5" style="enable-background:new 0 0 487.5 487.5;" xml:space="preserve">
<g>
	<path d="M374.034,33.265V4.25c0-2.347-1.902-4.25-4.25-4.25c-2.348,0-4.25,1.903-4.25,4.25v28.471h-14.409V4.25
		c0-2.347-1.902-4.25-4.25-4.25c-2.348,0-4.25,1.903-4.25,4.25v28.471h-14.409V4.25c0-2.347-1.902-4.25-4.25-4.25
		c-2.348,0-4.25,1.903-4.25,4.25v28.471h-14.409V4.25c0-2.347-1.902-4.25-4.25-4.25c-2.348,0-4.25,1.903-4.25,4.25v28.471h-14.409
		V4.25c0-2.347-1.902-4.25-4.25-4.25c-2.348,0-4.25,1.903-4.25,4.25v28.471h-14.409V4.25c0-2.347-1.902-4.25-4.25-4.25
		c-2.348,0-4.25,1.903-4.25,4.25v28.471H236.58V4.25c0-2.347-1.903-4.25-4.25-4.25c-2.347,0-4.25,1.903-4.25,4.25v28.471h-14.409
		V4.25c0-2.347-1.903-4.25-4.25-4.25c-2.347,0-4.25,1.903-4.25,4.25v28.471h-14.409V4.25c0-2.347-1.903-4.25-4.25-4.25
		c-2.347,0-4.25,1.903-4.25,4.25v28.471h-14.409V4.25c0-2.347-1.903-4.25-4.25-4.25c-2.347,0-4.25,1.903-4.25,4.25v28.471h-14.409
		V4.25c0-2.347-1.903-4.25-4.25-4.25c-2.347,0-4.25,1.903-4.25,4.25v28.471h-14.409V4.25c0-2.347-1.903-4.25-4.25-4.25
		c-2.347,0-4.25,1.903-4.25,4.25v28.978c-1.349,0.712-2.278,2.112-2.278,3.743V449.45c0,1.631,0.929,3.031,2.278,3.744v30.056
		c0,2.347,1.903,4.25,4.25,4.25c2.347,0,4.25-1.903,4.25-4.25V453.7h14.409v29.55c0,2.347,1.903,4.25,4.25,4.25
		c2.347,0,4.25-1.903,4.25-4.25V453.7h14.409v29.55c0,2.347,1.903,4.25,4.25,4.25c2.347,0,4.25-1.903,4.25-4.25V453.7h14.409v29.55
		c0,2.347,1.903,4.25,4.25,4.25c2.347,0,4.25-1.903,4.25-4.25V453.7h14.409v29.55c0,2.347,1.903,4.25,4.25,4.25
		c2.347,0,4.25-1.903,4.25-4.25V453.7h14.409v29.55c0,2.347,1.903,4.25,4.25,4.25c2.347,0,4.25-1.903,4.25-4.25V453.7h14.409v29.55
		c0,2.347,1.902,4.25,4.25,4.25c2.348,0,4.25-1.903,4.25-4.25V453.7h14.409v29.55c0,2.347,1.902,4.25,4.25,4.25
		c2.348,0,4.25-1.903,4.25-4.25V453.7h14.409v29.55c0,2.347,1.902,4.25,4.25,4.25c2.348,0,4.25-1.903,4.25-4.25V453.7h14.409v29.55
		c0,2.347,1.902,4.25,4.25,4.25c2.348,0,4.25-1.903,4.25-4.25V453.7h14.409v29.55c0,2.347,1.902,4.25,4.25,4.25
		c2.348,0,4.25-1.903,4.25-4.25V453.7h14.409v29.55c0,2.347,1.902,4.25,4.25,4.25c2.348,0,4.25-1.903,4.25-4.25v-30.093
		c1.311-0.724,2.209-2.104,2.209-3.707V36.971C376.243,35.368,375.345,33.989,374.034,33.265z M119.757,445.2V156.5h11.028
		c2.347,0,4.25-1.903,4.25-4.25c0-2.347-1.903-4.25-4.25-4.25h-11.028V94.5h22.028c2.347,0,4.25-1.903,4.25-4.25
		c0-2.347-1.903-4.25-4.25-4.25h-22.028V74h91.028c2.347,0,4.25-1.903,4.25-4.25c0-2.347-1.903-4.25-4.25-4.25h-91.028v-8.667h9.028
		c2.347,0,4.25-1.903,4.25-4.25c0-2.347-1.903-4.25-4.25-4.25h-9.028v-7.112h247.987v7.112h-16.959c-2.348,0-4.25,1.903-4.25,4.25
		c0,2.347,1.902,4.25,4.25,4.25h16.959V65.5h-78.959c-2.348,0-4.25,1.903-4.25,4.25c0,2.347,1.902,4.25,4.25,4.25h78.959v10h-34.959
		c-2.348,0-4.25,1.903-4.25,4.25c0,2.347,1.902,4.25,4.25,4.25h34.959V132h-9.959c-2.348,0-4.25,1.903-4.25,4.25
		c0,2.347,1.902,4.25,4.25,4.25h9.959v304.7H119.757z"/>
	<path d="M347.784,179.933h-9.894c-4.589-50.352-88.173-105.158-91.827-107.53c-1.406-0.914-3.221-0.913-4.627,0
		c-3.654,2.371-87.238,57.178-91.827,107.53h-9.894c-2.347,0-4.25,1.903-4.25,4.25v241.334c0,2.347,1.903,4.25,4.25,4.25h208.069
		c2.348,0,4.25-1.903,4.25-4.25V184.183C352.034,181.835,350.132,179.933,347.784,179.933z M332.034,421.267V358.25
		c0-2.347-1.902-4.25-4.25-4.25c-2.348,0-4.25,1.903-4.25,4.25v63.017h-160.5V308.25c0-2.347-1.903-4.25-4.25-4.25
		c-2.347,0-4.25,1.903-4.25,4.25v113.017h-10.569V208.5h27.819c2.347,0,4.25-1.903,4.25-4.25c0-2.347-1.903-4.25-4.25-4.25h-27.819
		v-11.567h9.698c2.347,0,4.25-1.903,4.25-4.25c0-42.545,71.906-93.608,85.837-103.098c13.931,9.486,85.835,60.525,85.835,103.098
		c0,2.347,1.902,4.25,4.25,4.25h9.698V220h-12.75c-2.348,0-4.25,1.903-4.25,4.25c0,2.347,1.902,4.25,4.25,4.25h12.75v192.767
		H332.034z"/>
	<path d="M246.064,112.456c-1.406-0.913-3.221-0.913-4.627,0c-2.394,1.554-58.635,38.434-58.635,71.674
		c0,2.347,1.903,4.25,4.25,4.25s4.25-1.903,4.25-4.25c0-25.218,42.025-55.787,52.449-62.979
		c10.424,7.192,52.448,37.76,52.448,62.979c0,2.347,1.902,4.25,4.25,4.25c2.348,0,4.25-1.903,4.25-4.25
		C304.699,150.889,248.458,114.01,246.064,112.456z"/>
	<path d="M158.784,259c-2.347,0-4.25,1.903-4.25,4.25v24c0,2.347,1.903,4.25,4.25,4.25c2.347,0,4.25-1.903,4.25-4.25v-24
		C163.034,260.903,161.132,259,158.784,259z"/>
	<path d="M327.784,309c-2.348,0-4.25,1.903-4.25,4.25v24c0,2.347,1.902,4.25,4.25,4.25c2.348,0,4.25-1.903,4.25-4.25v-24
		C332.034,310.903,330.132,309,327.784,309z"/>
	<path d="M180.884,48.333h-21c-2.347,0-4.25,1.903-4.25,4.25c0,2.347,1.903,4.25,4.25,4.25h21c2.347,0,4.25-1.903,4.25-4.25
		C185.134,50.236,183.232,48.333,180.884,48.333z"/>
	<path d="M232.735,52.583c0-2.347-1.903-4.25-4.25-4.25h-21c-2.347,0-4.25,1.903-4.25,4.25c0,2.347,1.903,4.25,4.25,4.25h21
		C230.832,56.833,232.735,54.93,232.735,52.583z"/>
	<path d="M253.584,56.833h24c2.348,0,4.25-1.903,4.25-4.25c0-2.347-1.902-4.25-4.25-4.25h-24c-2.348,0-4.25,1.903-4.25,4.25
		C249.334,54.93,251.237,56.833,253.584,56.833z"/>
	<path d="M304.185,56.833h18c2.348,0,4.25-1.903,4.25-4.25c0-2.347-1.902-4.25-4.25-4.25h-18c-2.348,0-4.25,1.903-4.25,4.25
		C299.935,54.93,301.837,56.833,304.185,56.833z"/>
</g>
<g>
</g>
<g>
</g>
<g>
</g>
<g>
</g>
<g>
</g>
<g>
</g>
<g>
</g>
<g>
</g>
<g>
</g>
<g>
</g>
<g>
</g>
<g>
</g>
<g>
</g>
<g>
</g>
<g>
</g>
</svg>
