<?xml version="1.0" encoding="iso-8859-1"?>
<!-- Generator: Adobe Illustrator 18.0.0, SVG Export Plug-In . SVG Version: 6.00 Build 0)  -->
<!DOCTYPE svg PUBLIC "-//W3C//DTD SVG 1.1//EN" "http://www.w3.org/Graphics/SVG/1.1/DTD/svg11.dtd">
<svg version="1.1" id="Capa_1" xmlns="http://www.w3.org/2000/svg" xmlns:xlink="http://www.w3.org/1999/xlink" x="0px" y="0px"
	 viewBox="0 0 487.873 487.873" style="enable-background:new 0 0 487.873 487.873;" xml:space="preserve">
<g>
	<path d="M133.722,181.732c-21.242,0-38.524,17.282-38.524,38.524c0,2.348,1.903,4.25,4.25,4.25c2.347,0,4.25-1.902,4.25-4.25
		c0-16.556,13.469-30.024,30.024-30.024c2.347,0,4.25-1.902,4.25-4.25C137.972,183.635,136.069,181.732,133.722,181.732z"/>
	<path d="M406.632,0c-2.348,0-4.25,1.902-4.25,4.25v158.572h-91.484v-2.561c0-7.424-6.039-13.463-13.463-13.463h-9.692v-35.154
		c8.359-3.648,15.272-10.28,19.134-18.817h23.403c5.791,11.614,17.55,18.97,30.713,18.97c18.938,0,34.345-15.407,34.345-34.345
		s-15.407-34.345-34.345-34.345c-13.163,0-24.922,7.355-30.713,18.97h-23.403c-5.991-13.242-19.297-21.944-34.009-21.944
		s-28.018,8.702-34.008,21.944h-23.404c-5.79-11.614-17.549-18.97-30.712-18.97c-18.938,0-34.345,15.407-34.345,34.345
		s15.407,34.345,34.345,34.345c13.164,0,24.922-7.355,30.712-18.97h23.404c3.862,8.537,10.774,15.169,19.133,18.817v35.154H248.3
		c-7.423,0-13.463,6.039-13.463,13.463v2.561H133.722c-31.669,0-57.434,25.765-57.434,57.435v58.529h-4.926
		c-7.423,0-13.462,6.039-13.462,13.463v50.362c0,7.424,6.039,13.463,13.462,13.463h101.957c7.423,0,13.463-6.039,13.463-13.463
		v-50.362c0-7.424-6.04-13.463-13.463-13.463h-5.872v-17.048c0-9.699,7.89-17.59,17.589-17.59h49.801v4.554
		c0,7.424,6.04,13.463,13.463,13.463h49.135c7.424,0,13.463-6.039,13.463-13.463v-4.554l91.484,0.001v239.474
		c0,2.348,1.902,4.25,4.25,4.25c2.348,0,4.25-1.902,4.25-4.25V4.25C410.882,1.902,408.98,0,406.632,0z M245.724,87.147
		c-0.604-1.691-2.206-2.82-4.002-2.82h-29.018c-1.74,0-3.305,1.061-3.949,2.678c-3.94,9.897-13.366,16.292-24.013,16.292
		c-14.251,0-25.845-11.594-25.845-25.845s11.594-25.845,25.845-25.845c10.647,0,20.072,6.395,24.013,16.292
		c0.644,1.617,2.209,2.678,3.949,2.678h29.018c1.796,0,3.398-1.129,4.002-2.82c4.086-11.438,14.994-19.124,27.144-19.124
		s23.058,7.685,27.144,19.124c0.604,1.691,2.206,2.82,4.002,2.82h29.018c1.74,0,3.305-1.061,3.948-2.678
		c3.941-9.897,13.367-16.292,24.014-16.292c14.251,0,25.845,11.594,25.845,25.845s-11.594,25.845-25.845,25.845
		c-10.646,0-20.072-6.395-24.014-16.292c-0.644-1.617-2.208-2.678-3.948-2.678h-29.018c-1.796,0-3.398,1.129-4.002,2.82
		c-4.086,11.438-14.994,19.124-27.144,19.124S249.81,98.586,245.724,87.147z M266.493,114.198c2.084,0.363,4.211,0.573,6.375,0.573
		c2.164,0,4.291-0.21,6.375-0.573v32.601h-12.75V114.198z M178.282,292.249v34.163h-57.015c-2.347,0-4.25,1.902-4.25,4.25
		c0,2.348,1.903,4.25,4.25,4.25h57.015v7.699c0,2.736-2.227,4.963-4.963,4.963H71.362c-2.736,0-4.962-2.227-4.962-4.963v-32.449
		h67.617c2.347,0,4.25-1.902,4.25-4.25c0-2.348-1.903-4.25-4.25-4.25H66.4v-9.413c0-2.736,2.226-4.963,4.962-4.963h101.957
		C176.055,287.286,178.282,289.513,178.282,292.249z M185.036,235.648c-14.385,0-26.089,11.704-26.089,26.09v17.048H84.788v-58.529
		c0-26.982,21.952-48.935,48.934-48.935h101.116v45.59h-65.57c-2.347,0-4.25,1.902-4.25,4.25c0,2.348,1.903,4.25,4.25,4.25h65.57
		v10.236H185.036z M302.398,248.702c0,2.736-2.227,4.963-4.963,4.963h-34.418v-70.503c0-2.348-1.902-4.25-4.25-4.25
		c-2.348,0-4.25,1.902-4.25,4.25v70.503H248.3c-2.736,0-4.963-2.227-4.963-4.963v-88.44c0-2.736,2.227-4.963,4.963-4.963h49.135
		c2.736,0,4.963,2.227,4.963,4.963V248.702z M310.898,235.648v-19.736h36.869c2.348,0,4.25-1.902,4.25-4.25
		c0-2.348-1.902-4.25-4.25-4.25h-36.869v-15.5h63.369c2.348,0,4.25-1.902,4.25-4.25c0-2.348-1.902-4.25-4.25-4.25h-63.369v-12.09
		h91.484v64.327L310.898,235.648z"/>
	<path d="M122.34,366.163c-25.209,0-41.52,58.534-41.52,78.79c0,22.896,18.626,41.522,41.52,41.522
		c22.895,0,41.521-18.626,41.521-41.522C163.861,424.697,147.55,366.163,122.34,366.163z M122.34,477.975
		c-18.208,0-33.02-14.814-33.02-33.022c0-21.517,16.921-70.29,33.02-70.29c16.099,0,33.021,48.773,33.021,70.29
		C155.361,463.161,140.548,477.975,122.34,477.975z"/>
	<path d="M122.34,463.345c-10.141,0-18.391-8.25-18.391-18.392c0-2.348-1.903-4.25-4.25-4.25c-2.347,0-4.25,1.902-4.25,4.25
		c0,14.828,12.063,26.892,26.891,26.892c2.347,0,4.25-1.902,4.25-4.25C126.59,465.247,124.687,463.345,122.34,463.345z"/>
	<path d="M274.54,56.948c0-2.348-1.902-4.25-4.25-4.25c-7.75,0-14.708,4.902-17.314,12.199c-0.789,2.211,0.363,4.643,2.573,5.433
		c0.473,0.168,0.955,0.248,1.43,0.248c1.745,0,3.382-1.084,4.003-2.821c1.4-3.923,5.142-6.559,9.309-6.559
		C272.637,61.198,274.54,59.296,274.54,56.948z"/>
	<path d="M425.723,308.945c-2.348,0-4.25,1.902-4.25,4.25v170.428c0,2.348,1.902,4.25,4.25,4.25c2.348,0,4.25-1.902,4.25-4.25
		V313.195C429.973,310.848,428.071,308.945,425.723,308.945z"/>
</g>
<g>
</g>
<g>
</g>
<g>
</g>
<g>
</g>
<g>
</g>
<g>
</g>
<g>
</g>
<g>
</g>
<g>
</g>
<g>
</g>
<g>
</g>
<g>
</g>
<g>
</g>
<g>
</g>
<g>
</g>
</svg>
