<?xml version="1.0" encoding="iso-8859-1"?>
<!-- Generator: Adobe Illustrator 18.0.0, SVG Export Plug-In . SVG Version: 6.00 Build 0)  -->
<!DOCTYPE svg PUBLIC "-//W3C//DTD SVG 1.1//EN" "http://www.w3.org/Graphics/SVG/1.1/DTD/svg11.dtd">
<svg version="1.1" id="Capa_1" xmlns="http://www.w3.org/2000/svg" xmlns:xlink="http://www.w3.org/1999/xlink" x="0px" y="0px"
	 viewBox="0 0 488.542 488.542" style="enable-background:new 0 0 488.542 488.542;" xml:space="preserve">
<g>
	<path d="M59.58,154.119h11.189c2.347,0,4.25-1.902,4.25-4.25c0-2.348-1.903-4.25-4.25-4.25H59.58c-2.347,0-4.25,1.902-4.25,4.25
		C55.33,152.217,57.233,154.119,59.58,154.119z"/>
	<path d="M154.683,145.619h-11.189c-2.347,0-4.25,1.902-4.25,4.25c0,2.348,1.903,4.25,4.25,4.25h11.189
		c2.347,0,4.25-1.902,4.25-4.25C158.933,147.522,157.03,145.619,154.683,145.619z"/>
	<path d="M130.907,222.649c6.97,0,12.641-5.671,12.641-12.642c0-6.971-5.671-12.642-12.641-12.642
		c-6.971,0-12.642,5.671-12.642,12.642C118.266,216.978,123.937,222.649,130.907,222.649z M130.907,205.865
		c2.283,0,4.141,1.858,4.141,4.142c0,2.283-1.858,4.142-4.141,4.142c-2.284,0-4.142-1.858-4.142-4.142
		C126.766,207.724,128.624,205.865,130.907,205.865z"/>
	<path d="M83.356,197.365c-6.971,0-12.642,5.671-12.642,12.642c0,6.971,5.671,12.642,12.642,12.642
		c6.97,0,12.641-5.671,12.641-12.642C95.997,203.036,90.326,197.365,83.356,197.365z M83.356,214.149
		c-2.284,0-4.142-1.858-4.142-4.142c0-2.283,1.858-4.142,4.142-4.142c2.283,0,4.141,1.858,4.141,4.142
		C87.497,212.29,85.639,214.149,83.356,214.149z"/>
	<path d="M474.629,332.866V214.902c0-24.359-15.152-24.988-20.856-25.225c-0.059-0.003-0.118-0.004-0.176-0.004h-28.503
		c-2.102-3.101-4.54-5.963-7.32-8.576c-20.652-19.414-52.483-18.14-55.204-17.996H174.693l3.388-18.991
		c0.045-0.251,0.075-0.5,0.115-0.75c22.521-2.996,35.168-31.827,35.723-33.12c0.564-1.313,0.43-2.821-0.356-4.015
		c-0.787-1.193-2.12-1.911-3.549-1.911h-43.917c4.973-13.152,5.009-24.846,0.076-34.826c-9.4-19.017-33.287-24.26-34.299-24.474
		c-1.938-0.415-3.904,0.575-4.736,2.375c-0.832,1.799-0.31,3.934,1.259,5.146c7.222,5.58,11.33,12.341,12.21,20.094
		c1.557,13.713-7.114,27.215-10.329,31.685H83.981c-3.215-4.449-11.871-17.883-10.328-31.646c0.871-7.77,4.981-14.543,12.215-20.133
		c1.568-1.212,2.091-3.348,1.259-5.146c-0.832-1.799-2.796-2.787-4.736-2.375c-1.012,0.214-24.899,5.457-34.299,24.474
		c-4.933,9.98-4.897,21.674,0.076,34.826H4.25c-1.428,0-2.761,0.718-3.548,1.91s-0.921,2.7-0.359,4.014
		c0.554,1.293,13.188,30.149,35.725,33.125c0.04,0.249,0.07,0.497,0.114,0.747l11.615,65.109
		c3.357,18.813,20.023,34.486,38.789,37.658l32.058,192.492c0.337,2.024,2.074,3.52,4.126,3.551l44.745,0.699
		c0.022,0.001,0.044,0.001,0.066,0.001c1.115,0,2.186-0.439,2.982-1.222c0.812-0.799,1.268-1.89,1.268-3.028v-72.307
		c52.211,11.091,103.914,2.392,138.566-7.07c28.491-7.781,49.911-17.096,59.67-21.701c2.838,28.991,17.883,88.231,18.573,90.939
		c0.48,1.883,2.175,3.2,4.118,3.2h37.761c2.347,0,4.25-1.902,4.25-4.25V224.692c0-9.94-1.697-18.795-5.037-26.518h23.775
		c5.647,0.234,12.621,0.607,12.621,16.729v117.927c-8.045,1.897-14.057,9.118-14.057,17.733c0,7.139,5.865,36.074,18.235,36.074
		s18.235-28.936,18.235-36.074C488.542,341.999,482.601,334.815,474.629,332.866z M362.69,171.602c0.085,0,0.174-0.003,0.258-0.008
		c0.057-0.003,1.14-0.06,2.977-0.042c1.074,1.69,2.811,4.441,5.009,7.982h-25.727c-2.347,0-4.25,1.902-4.25,4.25
		c0,2.348,1.903,4.25,4.25,4.25h27.272c1.146,0,2.182-0.458,2.946-1.196c3.022,4.962,6.463,10.706,10.019,16.821h-69.607
		c-2.347,0-4.25,1.902-4.25,4.25c0,2.348,1.903,4.25,4.25,4.25h71.326c0.997,0,1.901-0.357,2.626-0.932
		c0.686,1.211,1.372,2.427,2.056,3.65c10.278,18.393,6.574,35.686-11.01,51.399c-32.644,29.172-88.577,33.291-114.76,24.99
		c-12.487-3.96-18.239-11.06-24.308-21.418h23.722c2.347,0,4.25-1.902,4.25-4.25c0-2.348-1.903-4.25-4.25-4.25h-28.51
		c-5.467-9.831-12.354-21.835-24.325-34.662c-26.061-27.924,0.054-53.733,1.23-54.866c0.071-0.068,0.122-0.148,0.188-0.22H362.69z
		 M159.285,201.074c-5.108-8.356-14.423-20.903-30.186-34.177c-9.63-8.109-12.65-19.785-8.978-34.703
		c2.135-8.672,6.01-16.044,7.937-19.38h16.738c8.098,0,15.142,3.087,19.835,8.691c4.704,5.617,6.508,13.115,5.082,21.112
		L159.285,201.074z M178.594,134.683c-0.508-6.951-3.038-13.369-7.446-18.634c-0.974-1.163-2.027-2.235-3.137-3.234h35.027
		C198.753,120.231,190.18,132.246,178.594,134.683z M140.457,104.315c4.412-7.332,10.059-19.586,8.6-32.593
		c-0.477-4.258-1.672-8.265-3.571-12.003c5.015,3.077,10.061,7.458,13.065,13.536c4.192,8.48,3.644,18.92-1.621,31.06H140.457z
		 M57.333,104.315c-5.257-12.12-5.812-22.547-1.642-31.02c2.985-6.065,8.039-10.451,13.067-13.539
		c-1.889,3.728-3.077,7.722-3.553,11.966c-1.458,13.007,4.188,25.261,8.6,32.593H57.333z M11.232,112.815h35.02
		c-1.11,0.999-2.163,2.071-3.137,3.234c-4.409,5.266-6.938,11.685-7.446,18.638C24.11,132.256,15.526,120.233,11.232,112.815z
		 M44.551,142.618c-1.427-7.997,0.378-15.495,5.082-21.112c4.693-5.604,11.738-8.691,19.835-8.691h16.739
		c4.448,7.711,19.258,36.988-1.043,54.083c-15.762,13.273-25.077,25.82-30.185,34.176L44.551,142.618z M57.84,213.757
		c1.427-3.31,9.771-20.966,32.799-40.357c20.271-17.07,13.736-44.173,5.328-60.585h22.33c-8.408,16.412-14.943,43.515,5.328,60.585
		c22.892,19.276,31.354,37.049,32.797,40.361c-5.425,14.352-20.235,25.214-35.641,25.214H93.482
		C78.075,238.975,63.264,228.111,57.84,213.757z M396.074,423.933c-3.512-14.114-17.353-70.949-17.948-92.369
		c-0.041-1.468-0.836-2.81-2.104-3.551c-1.267-0.741-2.827-0.775-4.126-0.091c-1.021,0.538-103.247,53.527-203.331,29.694
		c-1.264-0.3-2.598-0.007-3.619,0.8c-1.021,0.806-1.616,2.034-1.616,3.335v45.398h-11.125c-2.347,0-4.25,1.902-4.25,4.25
		c0,2.348,1.903,4.25,4.25,4.25h11.125v19.404l-36.885-0.576l-13.267-79.665h9.657c2.347,0,4.25-1.902,4.25-4.25
		c0-2.348-1.903-4.25-4.25-4.25h-11.073l-6.445-38.701h74.16c2.347,0,4.25-1.902,4.25-4.25c0-2.348-1.903-4.25-4.25-4.25h-75.575
		l-2.253-13.527h25.382c2.347,0,4.25-1.902,4.25-4.25c0-2.348-1.903-4.25-4.25-4.25h-26.798l-1.554-9.332h11.569
		c2.347,0,4.25-1.902,4.25-4.25c0-2.348-1.903-4.25-4.25-4.25H97.264l-1.961-11.777h25.479c21.427,0,41.921-17.161,45.685-38.255
		l6.71-37.618h29.855c-7.964,10.908-20.384,35.394,3.409,60.885c11.837,12.683,18.241,24.22,23.891,34.399
		c8.267,14.893,14.796,26.656,33.175,32.483c8.754,2.776,19.673,4.183,31.46,4.183c9.158,0,18.84-0.849,28.438-2.563
		c25.261-4.511,47.669-14.588,63.097-28.374c20.659-18.461,25.073-39.86,12.766-61.884c-8.605-15.4-17.578-30.04-22.823-38.43
		c10.487,1.354,24.973,5.064,35.543,15.021c9.478,8.929,14.284,21.502,14.284,37.368v177.214h-24.42c-2.347,0-4.25,1.902-4.25,4.25
		c0,2.348,1.903,4.25,4.25,4.25h24.42v13.527H396.074z M476.521,367.017c-2.805,8.121-5.385,10.724-6.214,11.095
		c-0.829-0.371-3.409-2.974-6.214-11.095c-2.205-6.383-3.521-13.379-3.521-16.454c0-5.368,4.367-9.735,9.735-9.735
		c5.368,0,9.735,4.367,9.735,9.735C480.042,353.638,478.725,360.634,476.521,367.017z"/>
</g>
<g>
</g>
<g>
</g>
<g>
</g>
<g>
</g>
<g>
</g>
<g>
</g>
<g>
</g>
<g>
</g>
<g>
</g>
<g>
</g>
<g>
</g>
<g>
</g>
<g>
</g>
<g>
</g>
<g>
</g>
</svg>
