<?xml version="1.0" encoding="iso-8859-1"?>
<!-- Generator: Adobe Illustrator 18.0.0, SVG Export Plug-In . SVG Version: 6.00 Build 0)  -->
<!DOCTYPE svg PUBLIC "-//W3C//DTD SVG 1.1//EN" "http://www.w3.org/Graphics/SVG/1.1/DTD/svg11.dtd">
<svg version="1.1" id="Capa_1" xmlns="http://www.w3.org/2000/svg" xmlns:xlink="http://www.w3.org/1999/xlink" x="0px" y="0px"
	 viewBox="0 0 487.035 487.035" style="enable-background:new 0 0 487.035 487.035;" xml:space="preserve">
<g>
	<path d="M225.259,68.668v58.597c-29.609,3.847-59.547,16.121-87.673,36.07h-15.562c-9.333,0-21.678,5.305-28.104,12.078
		l-34.618,36.5c-1.615,1.703-1.544,4.394,0.159,6.009c0.807,0.765,1.865,1.144,2.895,1.158c0.021,0.003-0.023,0,0,0h366.181l0,0
		c0.001,0,0,0,0,0c0.001,0-0.002,0,0,0c0.159-0.001-0.112,0.023,0,0c0.91-0.087,1.801-0.48,2.517-1.158
		c1.703-1.615,1.774-4.306,0.159-6.009l-34.618-36.5c-6.426-6.773-18.771-12.078-28.104-12.078h-15.564
		c-28.127-19.948-58.063-32.223-87.673-36.07V32.923c0-2.348-1.902-4.25-4.25-4.25H4.25c-2.348,0-4.25,1.902-4.25,4.25
		s1.902,4.25,4.25,4.25h252.504v89.223c-3.843-0.29-7.678-0.444-11.498-0.444c-3.82,0-7.654,0.154-11.497,0.444V64.418
		c0-2.348-1.902-4.25-4.25-4.25H4.25c-2.348,0-4.25,1.902-4.25,4.25c0,2.348,1.902,4.25,4.25,4.25H225.259z M390.427,181.263
		l3.383,3.566H261.358c-2.348,0-4.25,1.902-4.25,4.25c0,2.348,1.902,4.25,4.25,4.25H401.87l16.369,17.259H72.274l27.813-29.325
		c4.849-5.11,14.896-9.428,21.938-9.428H368.49C375.532,171.835,385.579,176.153,390.427,181.263z M337.651,163.335H152.86
		c30.032-18.933,61.732-28.884,92.396-28.884C275.917,134.453,307.619,144.404,337.651,163.335z"/>
	<path d="M245.053,233.979c-2.348,0-4.25,1.902-4.25,4.25v6c0,2.348,1.902,4.25,4.25,4.25c2.348,0,4.25-1.902,4.25-4.25v-6
		C249.303,235.881,247.4,233.979,245.053,233.979z"/>
	<path d="M245.053,320.762c-2.348,0-4.25,1.902-4.25,4.25v11.541c0,2.348,1.902,4.25,4.25,4.25c2.348,0,4.25-1.902,4.25-4.25
		v-11.541C249.303,322.664,247.4,320.762,245.053,320.762z"/>
	<path d="M245.053,413.086c-2.348,0-4.25,1.902-4.25,4.25v11.54c0,2.348,1.902,4.25,4.25,4.25c2.348,0,4.25-1.902,4.25-4.25v-11.54
		C249.303,414.989,247.4,413.086,245.053,413.086z"/>
	<path d="M245.053,382.312c-2.348,0-4.25,1.902-4.25,4.25v11.54c0,2.348,1.902,4.25,4.25,4.25c2.348,0,4.25-1.902,4.25-4.25v-11.54
		C249.303,384.214,247.4,382.312,245.053,382.312z"/>
	<path d="M245.053,289.988c-2.348,0-4.25,1.902-4.25,4.25v11.541c0,2.348,1.902,4.25,4.25,4.25c2.348,0,4.25-1.902,4.25-4.25
		v-11.541C249.303,291.89,247.4,289.988,245.053,289.988z"/>
	<path d="M245.053,351.538c-2.348,0-4.25,1.902-4.25,4.25v11.54c0,2.348,1.902,4.25,4.25,4.25c2.348,0,4.25-1.902,4.25-4.25v-11.54
		C249.303,353.44,247.4,351.538,245.053,351.538z"/>
	<path d="M245.053,259.213c-2.348,0-4.25,1.902-4.25,4.25v11.54c0,2.348,1.902,4.25,4.25,4.25c2.348,0,4.25-1.902,4.25-4.25v-11.54
		C249.303,261.116,247.4,259.213,245.053,259.213z"/>
	<path d="M245.053,443.861c-2.348,0-4.25,1.902-4.25,4.25v6c0,2.348,1.902,4.25,4.25,4.25c2.348,0,4.25-1.902,4.25-4.25v-6
		C249.303,445.763,247.4,443.861,245.053,443.861z"/>
	<path d="M348.299,234.605c-2.001,1.227-2.63,3.843-1.403,5.845l3.135,5.116c0.802,1.309,2.198,2.03,3.628,2.03
		c0.757,0,1.523-0.203,2.217-0.627c2.001-1.227,2.63-3.843,1.403-5.845l-3.135-5.116
		C352.918,234.007,350.303,233.381,348.299,234.605z"/>
	<path d="M417.178,338.893c-1.226-2.003-3.843-2.631-5.844-1.404c-2.002,1.227-2.631,3.843-1.404,5.844l6.196,10.114
		c0.802,1.31,2.198,2.031,3.628,2.031c0.757,0,1.523-0.202,2.216-0.627c2.002-1.227,2.631-3.843,1.404-5.844L417.178,338.893z"/>
	<path d="M466.749,419.804c-1.227-2.001-3.84-2.627-5.845-1.403c-2.001,1.227-2.63,3.843-1.403,5.845l6.196,10.113
		c0.802,1.309,2.198,2.03,3.628,2.03c0.757,0,1.523-0.202,2.217-0.627c2.001-1.227,2.63-3.843,1.403-5.845L466.749,419.804z"/>
	<path d="M400.653,311.922c-1.225-2.001-3.841-2.631-5.845-1.403c-2.001,1.227-2.63,3.843-1.403,5.845l6.196,10.113
		c0.802,1.309,2.198,2.03,3.628,2.03c0.757,0,1.523-0.202,2.217-0.627c2.001-1.227,2.63-3.843,1.403-5.845L400.653,311.922z"/>
	<path d="M433.701,365.864c-1.226-2.002-3.843-2.628-5.844-1.404c-2.002,1.227-2.631,3.843-1.404,5.844l6.196,10.114
		c0.802,1.31,2.198,2.031,3.628,2.031c0.757,0,1.523-0.203,2.216-0.627c2.002-1.227,2.631-3.843,1.404-5.844L433.701,365.864z"/>
	<path d="M450.226,392.834c-1.226-2.003-3.843-2.629-5.844-1.404c-2.002,1.227-2.631,3.843-1.404,5.844l6.196,10.114
		c0.802,1.31,2.198,2.031,3.628,2.031c0.757,0,1.523-0.203,2.216-0.627c2.002-1.227,2.631-3.843,1.404-5.844L450.226,392.834z"/>
	<path d="M367.605,257.982c-1.226-2.002-3.842-2.628-5.844-1.404c-2.002,1.227-2.631,3.843-1.404,5.844l6.196,10.114
		c0.802,1.31,2.198,2.031,3.628,2.031c0.757,0,1.523-0.203,2.216-0.627c2.002-1.227,2.631-3.843,1.404-5.844L367.605,257.982z"/>
	<path d="M384.13,284.952c-1.226-2.001-3.841-2.63-5.845-1.403c-2.001,1.227-2.63,3.843-1.403,5.845l6.196,10.113
		c0.802,1.309,2.198,2.03,3.628,2.03c0.757,0,1.523-0.202,2.217-0.627c2.001-1.227,2.63-3.843,1.403-5.845L384.13,284.952z"/>
	<path d="M486.408,451.89l-3.135-5.116c-1.227-2.001-3.84-2.627-5.845-1.403c-2.001,1.227-2.63,3.843-1.403,5.845l3.135,5.116
		c0.802,1.309,2.198,2.03,3.628,2.03c0.757,0,1.523-0.203,2.217-0.627C487.006,456.508,487.635,453.892,486.408,451.89z"/>
	<path d="M300.487,242.56l-1.913-5.686c-0.749-2.225-3.159-3.42-5.384-2.673c-2.225,0.749-3.421,3.159-2.673,5.384l1.913,5.687
		c0.598,1.775,2.253,2.896,4.027,2.896c0.449,0,0.907-0.071,1.357-0.223C300.039,247.195,301.235,244.785,300.487,242.56z"/>
	<path d="M362.784,427.777l-3.894-11.576c-0.749-2.225-3.155-3.427-5.383-2.674c-2.226,0.748-3.422,3.158-2.674,5.383l3.894,11.576
		c0.598,1.776,2.253,2.896,4.027,2.896c0.449,0,0.906-0.071,1.355-0.223C362.336,432.412,363.532,430.001,362.784,427.777z"/>
	<path d="M352.401,396.908l-3.894-11.576c-0.748-2.226-3.157-3.421-5.383-2.674c-2.226,0.748-3.422,3.158-2.674,5.383l3.893,11.576
		c0.598,1.776,2.253,2.896,4.027,2.896c0.449,0,0.906-0.071,1.355-0.223C351.953,401.542,353.149,399.132,352.401,396.908z"/>
	<path d="M310.87,273.431l-3.893-11.576c-0.748-2.226-3.157-3.422-5.383-2.674c-2.226,0.748-3.422,3.158-2.674,5.383l3.894,11.576
		c0.598,1.776,2.253,2.896,4.027,2.896c0.449,0,0.906-0.071,1.355-0.223C310.422,278.066,311.618,275.656,310.87,273.431z"/>
	<path d="M331.636,335.169l-3.894-11.576c-0.749-2.226-3.159-3.423-5.383-2.674c-2.226,0.748-3.422,3.158-2.674,5.383l3.893,11.576
		c0.598,1.776,2.253,2.897,4.027,2.897c0.449,0,0.906-0.071,1.355-0.223C331.188,339.804,332.384,337.394,331.636,335.169z"/>
	<path d="M342.019,366.038l-3.894-11.576c-0.749-2.226-3.158-3.422-5.383-2.674c-2.226,0.748-3.422,3.158-2.674,5.383l3.894,11.576
		c0.598,1.776,2.253,2.897,4.027,2.897c0.449,0,0.906-0.071,1.355-0.223C341.57,370.673,342.767,368.263,342.019,366.038z"/>
	<path d="M321.253,304.3l-3.893-11.576c-0.749-2.226-3.157-3.421-5.383-2.674c-2.226,0.748-3.422,3.158-2.674,5.383l3.893,11.576
		c0.598,1.776,2.253,2.897,4.027,2.897c0.449,0,0.906-0.071,1.355-0.223C320.805,308.935,322.001,306.525,321.253,304.3z"/>
	<path d="M369.272,447.069c-0.749-2.225-3.158-3.422-5.384-2.673c-2.225,0.749-3.421,3.159-2.673,5.384l1.913,5.687
		c0.598,1.775,2.253,2.895,4.027,2.895c0.449,0,0.907-0.071,1.356-0.223c2.225-0.749,3.421-3.159,2.673-5.384L369.272,447.069z"/>
	<path d="M136.369,236.008l-3.135,5.116c-1.227,2.002-0.598,4.618,1.403,5.845c0.693,0.425,1.46,0.627,2.217,0.627
		c1.43,0,2.826-0.722,3.628-2.03l3.135-5.116c1.227-2.002,0.598-4.618-1.403-5.845C140.212,233.378,137.596,234.007,136.369,236.008
		z"/>
	<path d="M79.179,337.489c-2-1.227-4.617-0.599-5.844,1.404l-6.196,10.114c-1.227,2.001-0.598,4.617,1.404,5.844
		c0.692,0.425,1.459,0.627,2.216,0.627c1.43,0,2.826-0.722,3.628-2.031l6.196-10.114C81.81,341.331,81.181,338.715,79.179,337.489z"
		/>
	<path d="M62.656,364.459c-2.003-1.227-4.618-0.598-5.845,1.403l-6.196,10.113c-1.227,2.002-0.598,4.618,1.403,5.845
		c0.693,0.425,1.46,0.627,2.217,0.627c1.43,0,2.826-0.722,3.628-2.03l6.196-10.113C65.286,368.302,64.657,365.686,62.656,364.459z"
		/>
	<path d="M95.703,310.518c-1.999-1.227-4.617-0.599-5.844,1.404l-6.196,10.114c-1.227,2.001-0.598,4.617,1.404,5.844
		c0.692,0.425,1.459,0.627,2.216,0.627c1.43,0,2.826-0.722,3.628-2.031l6.196-10.114C98.334,314.361,97.705,311.745,95.703,310.518z
		"/>
	<path d="M29.607,418.4c-1.999-1.227-4.617-0.599-5.844,1.404l-6.196,10.114c-1.227,2.001-0.598,4.617,1.404,5.844
		c0.692,0.425,1.459,0.627,2.216,0.627c1.43,0,2.826-0.722,3.628-2.031l6.196-10.114C32.238,422.243,31.609,419.626,29.607,418.4z"
		/>
	<path d="M46.131,391.429c-1.999-1.227-4.617-0.598-5.844,1.404l-6.196,10.114c-1.227,2.001-0.598,4.617,1.404,5.844
		c0.692,0.425,1.459,0.627,2.216,0.627c1.43,0,2.826-0.722,3.628-2.031l6.196-10.114C48.762,395.272,48.133,392.656,46.131,391.429z
		"/>
	<path d="M112.228,283.548c-2.002-1.227-4.618-0.598-5.845,1.403l-6.196,10.113c-1.227,2.002-0.598,4.618,1.403,5.845
		c0.693,0.425,1.46,0.627,2.217,0.627c1.43,0,2.826-0.722,3.628-2.03l6.196-10.113C114.857,287.391,114.229,284.775,112.228,283.548
		z"/>
	<path d="M123.959,272.536l6.196-10.114c1.227-2.001,0.598-4.617-1.404-5.844c-2-1.227-4.617-0.598-5.844,1.404l-6.196,10.114
		c-1.227,2.001-0.598,4.617,1.404,5.844c0.692,0.425,1.459,0.627,2.216,0.627C121.761,274.567,123.157,273.845,123.959,272.536z"/>
	<path d="M13.085,445.371c-2.002-1.227-4.618-0.598-5.845,1.403l-3.135,5.116c-1.227,2.002-0.598,4.618,1.403,5.845
		c0.693,0.425,1.46,0.627,2.217,0.627c1.43,0,2.826-0.722,3.628-2.03l3.135-5.116C15.715,449.213,15.086,446.597,13.085,445.371z"/>
	<path d="M197.321,234.201c-2.223-0.748-4.635,0.447-5.384,2.673l-1.913,5.686c-0.748,2.225,0.448,4.635,2.673,5.384
		c0.45,0.151,0.906,0.223,1.356,0.223c1.774,0,3.43-1.12,4.027-2.896l1.913-5.687C200.742,237.36,199.546,234.95,197.321,234.201z"
		/>
	<path d="M188.918,259.181c-2.218-0.746-4.633,0.448-5.383,2.674l-3.894,11.576c-0.748,2.225,0.448,4.635,2.674,5.383
		c0.449,0.151,0.905,0.223,1.355,0.223c1.775,0,3.431-1.121,4.028-2.896l3.893-11.576
		C192.34,262.339,191.144,259.929,188.918,259.181z"/>
	<path d="M178.535,290.05c-2.223-0.748-4.634,0.449-5.383,2.674l-3.894,11.576c-0.748,2.225,0.448,4.635,2.674,5.383
		c0.449,0.151,0.906,0.223,1.355,0.223c1.774,0,3.43-1.121,4.027-2.897l3.894-11.576
		C181.957,293.208,180.761,290.798,178.535,290.05z"/>
	<path d="M168.152,320.919c-2.224-0.749-4.635,0.449-5.383,2.674l-3.893,11.576c-0.748,2.225,0.449,4.635,2.674,5.383
		c0.449,0.151,0.906,0.223,1.355,0.223c1.774,0,3.431-1.121,4.027-2.897l3.893-11.576
		C171.574,324.078,170.377,321.667,168.152,320.919z"/>
	<path d="M157.77,351.788c-2.223-0.749-4.634,0.449-5.383,2.674l-3.893,11.576c-0.748,2.225,0.448,4.635,2.674,5.383
		c0.449,0.151,0.906,0.223,1.355,0.223c1.774,0,3.43-1.121,4.027-2.897l3.894-11.576
		C161.192,354.947,159.996,352.537,157.77,351.788z"/>
	<path d="M137.005,413.527c-2.223-0.749-4.634,0.449-5.383,2.674l-3.894,11.576c-0.748,2.225,0.448,4.635,2.674,5.383
		c0.449,0.151,0.905,0.223,1.355,0.223c1.774,0,3.43-1.121,4.027-2.896l3.893-11.576
		C140.427,416.685,139.23,414.275,137.005,413.527z"/>
	<path d="M147.388,382.658c-2.223-0.748-4.634,0.449-5.383,2.674l-3.894,11.576c-0.748,2.225,0.448,4.635,2.674,5.383
		c0.449,0.151,0.906,0.223,1.355,0.223c1.775,0,3.43-1.121,4.027-2.896l3.893-11.576
		C150.81,385.816,149.613,383.406,147.388,382.658z"/>
	<path d="M126.624,444.396c-2.223-0.746-4.634,0.447-5.384,2.673l-1.913,5.687c-0.748,2.225,0.448,4.635,2.673,5.384
		c0.45,0.151,0.906,0.223,1.356,0.223c1.774,0,3.43-1.12,4.027-2.895l1.913-5.687C130.045,447.555,128.849,445.145,126.624,444.396z
		"/>
	<path d="M186.06,193.329h43.651c2.348,0,4.25-1.902,4.25-4.25c0-2.348-1.902-4.25-4.25-4.25H186.06c-2.348,0-4.25,1.902-4.25,4.25
		C181.81,191.427,183.712,193.329,186.06,193.329z"/>
</g>
<g>
</g>
<g>
</g>
<g>
</g>
<g>
</g>
<g>
</g>
<g>
</g>
<g>
</g>
<g>
</g>
<g>
</g>
<g>
</g>
<g>
</g>
<g>
</g>
<g>
</g>
<g>
</g>
<g>
</g>
</svg>
