<?xml version="1.0" encoding="iso-8859-1"?>
<!-- Generator: Adobe Illustrator 18.0.0, SVG Export Plug-In . SVG Version: 6.00 Build 0)  -->
<!DOCTYPE svg PUBLIC "-//W3C//DTD SVG 1.1//EN" "http://www.w3.org/Graphics/SVG/1.1/DTD/svg11.dtd">
<svg version="1.1" id="Capa_1" xmlns="http://www.w3.org/2000/svg" xmlns:xlink="http://www.w3.org/1999/xlink" x="0px" y="0px"
	 viewBox="0 0 475.486 475.486" style="enable-background:new 0 0 475.486 475.486;" xml:space="preserve">
<g>
	<path d="M310.474,204.809c0.164,0.019,0.328,0.027,0.489,0.027c2.131,0,3.969-1.599,4.218-3.766
		c5.76-50.193,29.676-60.108,30.105-60.278c2.185-0.81,3.312-3.232,2.519-5.429c-0.798-2.207-3.232-3.347-5.441-2.553
		c-1.189,0.43-29.187,11.161-35.628,67.291C306.468,202.434,308.142,204.541,310.474,204.809z"/>
	<path d="M471.236,454.668h-41.735l-12.615-200.363c-0.015-0.226-0.061-0.441-0.108-0.654l15.026-5.504
		c4.39-1.567,7.906-4.75,9.901-8.963c1.996-4.212,2.23-8.949,0.663-13.336l-2.96-8.289c-1.725-4.827-5.457-8.545-10.049-10.358
		c-0.409-4.058-2.202-7.809-5.154-10.694c-2.979-2.912-6.834-4.632-10.933-4.918c-3.065-17.468-9.278-41.224-21.485-55.042
		c8.483-1.944,16.58-6.073,23.389-12.424c12.734-11.877,18.528-29.664,15.372-46.757l10.931-21.79
		c2.597-5.178,0.497-11.502-4.68-14.1l-55.905-28.039c-1.457-0.731-3.085-1.118-4.707-1.118c-3.999,0-7.599,2.221-9.393,5.795
		l-12.239,24.396c-3.287,1.917-6.375,4.184-9.17,6.792c-19.389,18.086-21.546,47.827-5.758,68.466
		c-9.02,3.996-43.523,23.848-47.766,94.997c-3.331,55.862-10.455,215.595-11.622,241.904h-54.43l-11.08-175.974
		c-0.005-0.072-0.026-0.139-0.035-0.211l12.834-4.7c3.992-1.426,7.19-4.321,9.005-8.152c1.814-3.831,2.028-8.14,0.602-12.13
		l-2.605-7.299c-1.533-4.29-4.81-7.617-8.855-9.307c-0.431-3.572-2.043-6.869-4.653-9.42c-2.554-2.496-5.801-4.019-9.295-4.41
		c-2.546-15.09-7.826-35.352-18.596-47.743c7.227-1.811,14.109-5.407,19.933-10.839c11.297-10.537,16.459-26.295,13.718-41.461
		l9.547-19.033c2.412-4.809,0.463-10.683-4.346-13.096l-49.22-24.686c-1.354-0.68-2.865-1.039-4.373-1.039
		c-3.713,0-7.056,2.062-8.724,5.383l-10.707,21.344c-2.877,1.691-5.582,3.682-8.034,5.97c-17.105,15.958-19.144,42.103-5.5,60.456
		c-6.214,2.916-22.631,12.9-33.065,40.168c-2.995-8.612-7.039-16.896-12.489-23.167c7.228-1.811,14.109-5.407,19.933-10.839
		c11.297-10.537,16.459-26.295,13.718-41.461l9.547-19.033c2.412-4.809,0.463-10.683-4.346-13.096l-49.22-24.686
		c-1.354-0.68-2.865-1.039-4.373-1.039c-3.713,0-7.056,2.062-8.724,5.383L65.698,91.896c-2.877,1.691-5.582,3.682-8.034,5.97
		c-17.104,15.956-19.143,42.098-5.504,60.45c-8.838,4.128-38.115,22.355-41.779,83.808c-3.186,53.4-10.306,214.601-10.377,216.223
		c-0.005,0.107,0.01,0.204,0.023,0.301C0.022,458.738,0,458.825,0,458.918c0,2.348,1.902,4.25,4.25,4.25h466.986
		c2.348,0,4.25-1.902,4.25-4.25C475.486,456.57,473.584,454.668,471.236,454.668z M434.363,228.707
		c0.804,2.25,0.684,4.679-0.34,6.838c-1.023,2.16-2.826,3.792-5.11,4.608l-51.649,18.919c-0.976,0.349-1.988,0.525-3.011,0.525
		c-3.771,0-7.155-2.387-8.424-5.94c-0.013-0.033-0.025-0.067-0.038-0.102l-30.837-79.853c-0.786-2.237-0.66-4.648,0.357-6.794
		c0.322-0.682,0.73-1.303,1.198-1.869l16.907,40.391c0.728,1.736,2.473,2.736,4.253,2.597c0.438-0.035,0.88-0.14,1.31-0.317
		c2.164-0.907,3.185-3.397,2.279-5.563l-17.221-41.137l4.637-1.657c0.976-0.348,1.988-0.524,3.01-0.524
		c3.772,0,7.158,2.387,8.428,5.94c0.016,0.046,0.033,0.092,0.051,0.137l23.404,59.039c0.849,2.141,3.247,3.217,5.415,2.424
		l30.984-11.367c0.975-0.349,1.987-0.524,3.009-0.524c3.772,0,7.159,2.388,8.429,5.94L434.363,228.707z M418.264,202.585
		c1.039,1.016,1.796,2.242,2.238,3.584c-1.154,0.167-2.3,0.438-3.429,0.84l-1.546,0.567c-0.211-1.985-0.495-4.398-0.872-7.142
		C415.997,200.849,417.231,201.575,418.264,202.585z M376.186,20.818c0.31,0,0.609,0.072,0.895,0.215l55.906,28.04
		c0.988,0.495,1.389,1.703,0.894,2.691l-9.729,19.395l-60.583-27.662l2.433-4.848l19.336,9.291c0.594,0.285,1.221,0.42,1.838,0.42
		c1.583,0,3.103-0.889,3.834-2.41c1.017-2.116,0.125-4.655-1.99-5.672l-19.205-9.229l4.578-9.124
		C374.801,21.109,375.587,20.818,376.186,20.818z M351.184,55.516c2.107-1.966,4.411-3.701,6.855-5.198l64.294,29.355
		c2.325,14.021-2.524,28.506-12.954,38.233c-17.204,16.043-44.251,15.104-60.294-2.096
		C333.041,98.609,333.982,71.562,351.184,55.516z M300.346,213.27c2.316-38.834,14.222-60.786,23.802-72.364
		c9.258-11.191,17.327-14.798,21.368-16.68c9.742,9.039,22.243,13.621,34.78,13.621c0.154,0,0.309-0.009,0.463-0.011
		c20.405,14.902,25.537,60.22,26.579,72.745l-17.395,6.382l-21.854-55.126c-2.495-6.887-9.077-11.508-16.405-11.508
		c-1.998,0-3.974,0.343-5.869,1.02l-8.286,2.96c-4.389,1.566-7.905,4.749-9.9,8.962c-1.995,4.212-2.229,8.949-0.661,13.339
		c0.012,0.033,0.024,0.067,0.037,0.101l30.839,79.859c2.489,6.897,9.076,11.527,16.41,11.527c2,0,3.976-0.344,5.903-1.033
		l28.363-10.39l11.293,179.374h-51.147c-2.348,0-4.25,1.902-4.25,4.25c0,2.348,1.902,4.25,4.25,4.25h51.682l0.637,10.119h-87.972
		l0.839-56.923c0.034-2.347-1.841-4.277-4.188-4.313c-0.021,0-0.043,0-0.064,0c-2.318,0-4.214,1.861-4.249,4.188l-0.841,57.048
		h-13.636l3.443-105.677c0.076-2.347-1.764-4.31-4.109-4.387c-2.361-0.027-4.31,1.764-4.387,4.109l-3.452,105.954h-13.622
		C289.964,427.27,297.034,268.814,300.346,213.27z M229.131,256.36c0.662,1.854,0.563,3.854-0.279,5.632
		c-0.843,1.779-2.328,3.124-4.215,3.798l-45.47,16.655c-0.804,0.287-1.638,0.433-2.48,0.433c-3.105,0-5.893-1.966-6.938-4.892
		c-0.013-0.034-0.025-0.068-0.038-0.103l-27.146-70.295c-0.645-1.842-0.54-3.824,0.296-5.59c0.185-0.39,0.405-0.754,0.648-1.099
		l13.807,34.384c0.702,1.747,2.433,2.772,4.215,2.658c0.439-0.027,0.882-0.125,1.313-0.298c2.178-0.875,3.234-3.35,2.36-5.528
		l-14.184-35.322l3.316-1.186c0.804-0.287,1.639-0.433,2.479-0.433c3.106,0,5.896,1.967,6.941,4.894
		c0.016,0.046,0.033,0.092,0.051,0.137l20.605,51.979c0.849,2.141,3.247,3.216,5.415,2.424l20.49-7.518
		c0.638-0.085,1.224-0.305,1.735-0.637l5.049-1.852c0.804-0.287,1.638-0.433,2.478-0.433c3.107,0,5.898,1.967,6.942,4.892
		L229.131,256.36z M215.081,233.555c0.708,0.691,1.258,1.501,1.633,2.385c-0.841,0.156-1.676,0.375-2.502,0.67l-0.659,0.241
		c-0.133-1.379-0.301-2.961-0.513-4.713C213.784,232.489,214.475,232.962,215.081,233.555z M178.39,73.669
		c0.192,0,0.381,0.046,0.561,0.136l49.221,24.687c0.619,0.31,0.87,1.067,0.56,1.688l-8.346,16.638l-52.413-23.932l1.681-3.35
		l16.573,7.964c0.594,0.285,1.221,0.42,1.838,0.42c1.583,0,3.102-0.889,3.834-2.41c1.017-2.116,0.125-4.655-1.99-5.672
		l-16.442-7.901l3.798-7.569C177.52,73.852,178.014,73.669,178.39,73.669z M156.724,104.08c1.764-1.646,3.683-3.108,5.718-4.376
		l56.125,25.626c1.913,12.093-2.309,24.551-11.3,32.937c-14.939,13.936-38.432,13.117-52.365-1.819
		C140.967,141.508,141.784,118.017,156.724,104.08z M116.613,213.033c9.52-36.347,30.962-46.58,34.785-48.132
		c8.622,7.831,19.6,11.802,30.61,11.802c0.084,0,0.167-0.005,0.251-0.006c17.477,12.947,22.038,51.733,23.018,63.19l-14.486,5.314
		l-19.055-48.066c-2.271-6.26-8.257-10.46-14.919-10.46c-1.818,0-3.614,0.313-5.339,0.929l-7.295,2.605
		c-3.991,1.425-7.189,4.319-9.004,8.151c-1.815,3.831-2.029,8.14-0.603,12.132c0.012,0.034,0.024,0.067,0.037,0.102l27.15,70.305
		c2.265,6.27,8.255,10.478,14.923,10.478c1.819,0,3.616-0.313,5.372-0.94l24.332-8.912l9.867,156.704h-44.49
		c-2.348,0-4.25,1.902-4.25,4.25c0,2.348,1.902,4.25,4.25,4.25h45.025l0.5,7.939H132.55l-11.065-176.202l12.783-4.683
		c3.992-1.426,7.19-4.321,9.005-8.152c1.814-3.831,2.028-8.14,0.602-12.13l-2.605-7.299c-1.536-4.297-4.821-7.63-8.877-9.316
		c-0.506-3.592-2.411-7.025-5.404-9.62c-2.438-2.114-5.426-3.538-8.508-4.106c-0.523-3.117-1.165-6.455-1.947-9.901
		C116.559,213.182,116.593,213.111,116.613,213.033z M49.601,201.999c0.298-0.629,0.68-1.2,1.126-1.709l12.822,34.329
		c0.659,1.764,2.364,2.831,4.147,2.761c0.44-0.017,0.886-0.104,1.32-0.266c2.199-0.822,3.315-3.27,2.495-5.469L58.41,196.561
		l2.667-0.953c0.804-0.287,1.639-0.433,2.479-0.433c3.107,0,5.896,1.967,6.942,4.894c0.016,0.046,0.033,0.092,0.051,0.137
		l20.605,51.979c0.85,2.141,3.246,3.216,5.415,2.424l20.491-7.518c0.637-0.085,1.223-0.305,1.734-0.637l5.049-1.852
		c0.804-0.287,1.638-0.433,2.479-0.433c3.107,0,5.897,1.967,6.942,4.892l2.605,7.299c0.662,1.854,0.563,3.854-0.279,5.632
		c-0.843,1.779-2.328,3.124-4.215,3.798l-45.47,16.655c-0.804,0.287-1.638,0.433-2.479,0.433c-3.104,0-5.893-1.966-6.938-4.892
		c-0.013-0.034-0.025-0.068-0.038-0.103l-27.147-70.295C48.66,205.747,48.765,203.765,49.601,201.999z M119.833,232.583
		c0.562,0.315,1.099,0.682,1.587,1.105c0.549,0.476,1.302,1.261,1.861,2.29c-0.782,0.154-1.561,0.357-2.33,0.632l-0.659,0.241
		C120.171,235.589,120.021,234.159,119.833,232.583z M85.129,73.669c0.192,0,0.381,0.046,0.561,0.136l49.221,24.687
		c0.619,0.31,0.87,1.067,0.559,1.688l-8.346,16.638L74.711,92.885l1.681-3.35l16.573,7.964c0.594,0.285,1.221,0.42,1.838,0.42
		c1.583,0,3.103-0.889,3.834-2.41c1.017-2.116,0.125-4.655-1.99-5.672l-16.442-7.901l3.798-7.569
		C84.26,73.852,84.753,73.669,85.129,73.669z M63.463,104.08c1.764-1.646,3.683-3.108,5.719-4.376l56.124,25.626
		c1.913,12.093-2.309,24.551-11.3,32.937c-14.94,13.936-38.432,13.117-52.365-1.819C47.706,141.508,48.523,118.017,63.463,104.08z
		 M18.865,242.629c2.027-34.002,12.424-53.22,20.787-63.355c7.432-9.006,15.823-13.184,18.504-14.357
		c8.619,7.821,19.589,11.786,30.592,11.786c0.084,0,0.167-0.005,0.251-0.006c17.478,12.947,22.038,51.733,23.019,63.19
		l-14.487,5.314l-19.055-48.066c-2.271-6.26-8.257-10.46-14.919-10.46c-1.818,0-3.614,0.313-5.339,0.929l-7.295,2.605
		c-3.991,1.425-7.19,4.319-9.004,8.151c-1.815,3.831-2.029,8.14-0.603,12.132c0.012,0.034,0.024,0.067,0.037,0.102l27.15,70.305
		c2.265,6.27,8.255,10.478,14.923,10.478c1.819,0,3.616-0.313,5.372-0.94l24.361-8.923l9.841,156.715H78.508
		c-2.348,0-4.25,1.902-4.25,4.25c0,2.348,1.902,4.25,4.25,4.25h45.027l0.498,7.939h-76.4l0.732-49.646
		c0.034-2.347-1.841-4.277-4.188-4.313c-2.347-0.024-4.277,1.841-4.313,4.188l-0.734,49.771h-10.98l3.016-92.561
		c0.076-2.347-1.764-4.31-4.109-4.387c-0.048-0.001-0.095-0.002-0.142-0.002c-2.282,0-4.17,1.813-4.245,4.111l-3.024,92.838H8.676
		C9.805,429.223,15.968,291.21,18.865,242.629z"/>
	<path d="M27.217,235.654c0.164,0.019,0.328,0.027,0.489,0.027c2.131,0,3.969-1.599,4.218-3.766
		c5.024-43.779,25.771-52.488,26.182-52.653c2.182-0.811,3.307-3.231,2.514-5.426c-0.797-2.208-3.232-3.354-5.44-2.554
		c-1.059,0.382-25.993,9.936-31.7,59.664C23.211,233.279,24.885,235.387,27.217,235.654z"/>
</g>
<g>
</g>
<g>
</g>
<g>
</g>
<g>
</g>
<g>
</g>
<g>
</g>
<g>
</g>
<g>
</g>
<g>
</g>
<g>
</g>
<g>
</g>
<g>
</g>
<g>
</g>
<g>
</g>
<g>
</g>
</svg>
