<?xml version="1.0" encoding="iso-8859-1"?>
<!-- Generator: Adobe Illustrator 18.0.0, SVG Export Plug-In . SVG Version: 6.00 Build 0)  -->
<!DOCTYPE svg PUBLIC "-//W3C//DTD SVG 1.1//EN" "http://www.w3.org/Graphics/SVG/1.1/DTD/svg11.dtd">
<svg version="1.1" id="Capa_1" xmlns="http://www.w3.org/2000/svg" xmlns:xlink="http://www.w3.org/1999/xlink" x="0px" y="0px"
	 viewBox="0 0 488.294 488.294" style="enable-background:new 0 0 488.294 488.294;" xml:space="preserve">
<g>
	<path d="M470.241,60.04l-225-59.897c-0.717-0.191-1.471-0.191-2.188,0l-225,59.897c-1.861,0.496-3.156,2.181-3.156,4.107v340
		c0,1.799,1.133,3.403,2.828,4.005l225,79.897c0.46,0.164,0.94,0.245,1.422,0.245c0.481,0,0.962-0.082,1.422-0.245l225-79.897
		c1.695-0.602,2.828-2.206,2.828-4.005v-340C473.397,62.221,472.102,60.536,470.241,60.04z M23.397,190.881v-51.204l219.656,58.475
		c0.358,0.095,0.727,0.143,1.094,0.143c0.367,0,0.735-0.048,1.094-0.143l219.656-58.475v51.204l-220.75,58.766L23.397,190.881z
		 M244.147,119.646L74.027,74.359l170.13-45.711l171.649,45.301L244.147,119.646z M239.897,127.311v41.939
		c0,2.347,1.902,4.25,4.25,4.25c2.348,0,4.25-1.903,4.25-4.25v-41.939l216.5-57.634V96.85l-53.876,15.822
		c-2.252,0.661-3.542,3.023-2.881,5.275c0.544,1.852,2.238,3.053,4.076,3.053c0.396,0,0.8-0.056,1.199-0.173l51.481-15.119v25.172
		l-220.75,58.766l-220.75-58.766v-21.204l78.441,20.882c0.366,0.098,0.734,0.144,1.097,0.144c1.879,0,3.598-1.256,4.104-3.158
		c0.604-2.268-0.746-4.596-3.014-5.2l-80.629-21.464V69.677L239.897,127.311z M244.147,8.648l208.479,55.5l-20.236,5.387
		L245.232,20.141c-0.718-0.19-1.472-0.188-2.188,0.004L57.572,69.978l-21.904-5.831L244.147,8.648z M248.397,478.025V382.25
		c0-2.347-1.902-4.25-4.25-4.25c-2.348,0-4.25,1.903-4.25,4.25v95.775l-216.5-76.879V226.677l7.659,2.039
		c0.367,0.098,0.734,0.144,1.097,0.144c1.879,0,3.598-1.256,4.104-3.158c0.604-2.268-0.746-4.596-3.014-5.2l-9.847-2.621v-18.204
		l17.571,4.677V325.25c0,2.347,1.902,4.25,4.25,4.25c2.348,0,4.25-1.903,4.25-4.25V206.617l9,2.395v88.237
		c0,2.347,1.902,4.25,4.25,4.25c2.348,0,4.25-1.903,4.25-4.25v-85.974l49,13.044v122.93c0,2.347,1.902,4.25,4.25,4.25
		c2.348,0,4.25-1.903,4.25-4.25v-93.679l21.439,5.719c0.367,0.098,0.735,0.145,1.099,0.145c1.878,0,3.597-1.255,4.104-3.156
		c0.605-2.268-0.743-4.597-3.011-5.202l-23.631-6.304v-18.191l118.585,31.569c0.358,0.095,0.727,0.143,1.094,0.143
		c0.367,0,0.735-0.048,1.094-0.143l219.656-58.475v103.174l-24.245,6.284c-2.272,0.589-3.637,2.909-3.048,5.181
		c0.496,1.915,2.222,3.185,4.111,3.185c0.353,0,0.712-0.044,1.069-0.137l22.112-5.732v20.79l-57.435,17.767
		c-2.242,0.693-3.498,3.074-2.805,5.316c0.564,1.824,2.245,2.995,4.06,2.995c0.416,0,0.839-0.062,1.257-0.191l54.923-16.99v27.403
		l-69.539,23.5c-2.224,0.751-3.417,3.164-2.666,5.387c0.599,1.773,2.253,2.89,4.026,2.89c0.45,0,0.909-0.072,1.36-0.225
		l66.818-22.581v23.451L248.397,478.025z"/>
	<path d="M225.899,271.788l-65.61-17.466c-2.272-0.603-4.597,0.745-5.201,3.014c-0.604,2.268,0.746,4.596,3.014,5.2l65.61,17.466
		c0.367,0.098,0.734,0.144,1.097,0.144c1.879,0,3.598-1.256,4.104-3.158C229.516,274.72,228.167,272.392,225.899,271.788z"/>
	<path d="M323.711,255.466l-63.057,16.786c-2.268,0.604-3.617,2.932-3.014,5.2c0.507,1.902,2.226,3.158,4.104,3.158
		c0.362,0,0.73-0.046,1.097-0.144l63.057-16.786c2.268-0.604,3.617-2.932,3.014-5.2
		C328.307,256.211,325.978,254.862,323.711,255.466z"/>
	<path d="M358.632,246.169l-21.102,5.617c-2.268,0.604-3.617,2.932-3.014,5.2c0.507,1.902,2.226,3.158,4.104,3.158
		c0.362,0,0.73-0.046,1.097-0.144l21.102-5.617c2.268-0.604,3.617-2.932,3.014-5.2C363.228,246.914,360.898,245.565,358.632,246.169
		z"/>
	<path d="M427.576,232.214c-0.605-2.269-2.937-3.618-5.201-3.014l-48.057,12.793c-2.268,0.604-3.617,2.932-3.014,5.2
		c0.507,1.902,2.226,3.158,4.104,3.158c0.362,0,0.73-0.046,1.097-0.144l48.057-12.793
		C426.83,236.81,428.179,234.482,427.576,232.214z"/>
	<path d="M435.416,234.377c0.362,0,0.73-0.046,1.097-0.144l16.185-4.309c2.267-0.604,3.617-2.932,3.014-5.2
		c-0.605-2.269-2.936-3.616-5.201-3.014l-16.185,4.309c-2.268,0.604-3.617,2.932-3.014,5.2
		C431.818,233.121,433.537,234.377,435.416,234.377z"/>
	<path d="M244.147,329c-2.348,0-4.25,1.903-4.25,4.25v28c0,2.347,1.902,4.25,4.25,4.25c2.348,0,4.25-1.903,4.25-4.25v-28
		C248.397,330.903,246.495,329,244.147,329z"/>
	<path d="M120.218,360c-2.348,0-4.25,1.903-4.25,4.25v26.293l-48.032-14.365c-2.249-0.673-4.617,0.605-5.29,2.854
		c-0.672,2.249,0.605,4.617,2.854,5.29l53.5,16l0.006-0.019c0.387,0.116,0.787,0.197,1.212,0.197c2.348,0,4.25-1.903,4.25-4.25v-32
		C124.468,361.903,122.566,360,120.218,360z"/>
	<path d="M45.218,338c-2.348,0-4.25,1.903-4.25,4.25v32c0,2.347,1.902,4.25,4.25,4.25c2.348,0,4.25-1.903,4.25-4.25v-32
		C49.468,339.903,47.566,338,45.218,338z"/>
	<path d="M99.718,355.5c2.348,0,4.25-1.903,4.25-4.25v-59c0-2.347-1.902-4.25-4.25-4.25c-2.348,0-4.25,1.903-4.25,4.25v59
		C95.468,353.597,97.371,355.5,99.718,355.5z"/>
</g>
<g>
</g>
<g>
</g>
<g>
</g>
<g>
</g>
<g>
</g>
<g>
</g>
<g>
</g>
<g>
</g>
<g>
</g>
<g>
</g>
<g>
</g>
<g>
</g>
<g>
</g>
<g>
</g>
<g>
</g>
</svg>
