<?xml version="1.0" encoding="iso-8859-1"?>
<!-- Generator: Adobe Illustrator 18.0.0, SVG Export Plug-In . SVG Version: 6.00 Build 0)  -->
<!DOCTYPE svg PUBLIC "-//W3C//DTD SVG 1.1//EN" "http://www.w3.org/Graphics/SVG/1.1/DTD/svg11.dtd">
<svg version="1.1" id="Capa_1" xmlns="http://www.w3.org/2000/svg" xmlns:xlink="http://www.w3.org/1999/xlink" x="0px" y="0px"
	 viewBox="0 0 489.493 489.493" style="enable-background:new 0 0 489.493 489.493;" xml:space="preserve">
<g>
	<path d="M4.25,240.863h480.993c2.347,0,4.25-1.903,4.25-4.25s-1.903-4.25-4.25-4.25h-110.72
		c-5.604-13.304-13.183-25.644-22.599-36.686c-1.523-1.787-4.206-2-5.992-0.477c-1.786,1.523-1.999,4.206-0.476,5.991
		c8.067,9.461,14.707,19.928,19.81,31.172h-15.851c-8.461-19.854-22.294-36.808-40.163-49.131
		c-19.016-13.114-41.322-20.046-64.506-20.046c-23.184,0-45.49,6.932-64.506,20.046c-17.869,12.323-31.702,29.277-40.163,49.131
		h-21.037c7.53-16.632,18.459-31.868,31.875-44.335c1.719-1.598,1.818-4.287,0.22-6.006c-1.598-1.72-4.287-1.818-6.006-0.22
		c-15.175,14.101-27.356,31.542-35.363,50.561H4.25c-2.347,0-4.25,1.903-4.25,4.25S1.903,240.863,4.25,240.863z M179.456,232.363
		c14.665-21.434,39.078-34.494,65.29-34.494s50.625,13.06,65.29,34.494H179.456z M244.746,171.685
		c41.29,0,78.084,23.629,95.364,60.678h-20c-15.751-26.571-44.426-42.994-75.365-42.994c-30.938,0-59.613,16.423-75.365,42.994
		h-19.999C166.662,195.314,203.456,171.685,244.746,171.685z"/>
	<path d="M485.243,259.696H4.25c-2.347,0-4.25,1.903-4.25,4.25s1.903,4.25,4.25,4.25h480.993c2.347,0,4.25-1.903,4.25-4.25
		S487.59,259.696,485.243,259.696z"/>
	<path d="M437.732,306.947H297.722c-2.347,0-4.25,1.903-4.25,4.25c0,2.347,1.903,4.25,4.25,4.25h140.011
		c2.347,0,4.25-1.903,4.25-4.25C441.982,308.85,440.08,306.947,437.732,306.947z"/>
	<path d="M222.041,306.947H97.168c-2.347,0-4.25,1.903-4.25,4.25c0,2.347,1.903,4.25,4.25,4.25h124.873
		c2.347,0,4.25-1.903,4.25-4.25C226.291,308.85,224.388,306.947,222.041,306.947z"/>
	<path d="M136.899,330.75H17.702c-2.347,0-4.25,1.903-4.25,4.25s1.903,4.25,4.25,4.25h119.197c2.347,0,4.25-1.903,4.25-4.25
		S139.247,330.75,136.899,330.75z"/>
	<path d="M309.074,338.318h-71.896c-2.347,0-4.25,1.903-4.25,4.25c0,2.347,1.903,4.25,4.25,4.25h71.896
		c2.347,0,4.25-1.903,4.25-4.25C313.324,340.221,311.421,338.318,309.074,338.318z"/>
	<path d="M195.649,159.885c0.487,0,0.983-0.085,1.468-0.263c15.226-5.605,31.251-8.447,47.629-8.447c2.347,0,4.25-1.903,4.25-4.25
		s-1.903-4.25-4.25-4.25c-17.384,0-34.397,3.018-50.566,8.971c-2.203,0.811-3.331,3.254-2.52,5.457
		C192.293,158.82,193.918,159.885,195.649,159.885z"/>
</g>
<g>
</g>
<g>
</g>
<g>
</g>
<g>
</g>
<g>
</g>
<g>
</g>
<g>
</g>
<g>
</g>
<g>
</g>
<g>
</g>
<g>
</g>
<g>
</g>
<g>
</g>
<g>
</g>
<g>
</g>
</svg>
