<?xml version="1.0" encoding="iso-8859-1"?>
<!-- Generator: Adobe Illustrator 18.0.0, SVG Export Plug-In . SVG Version: 6.00 Build 0)  -->
<!DOCTYPE svg PUBLIC "-//W3C//DTD SVG 1.1//EN" "http://www.w3.org/Graphics/SVG/1.1/DTD/svg11.dtd">
<svg version="1.1" id="Capa_1" xmlns="http://www.w3.org/2000/svg" xmlns:xlink="http://www.w3.org/1999/xlink" x="0px" y="0px"
	 viewBox="0 0 499.518 499.518" style="enable-background:new 0 0 499.518 499.518;" xml:space="preserve">
<g>
	<path d="M225.578,35.22c1.09,0,2.181-0.417,3.011-1.251c7.856-7.888,18.312-12.231,29.44-12.231c2.347,0,4.25-1.902,4.25-4.25
		c0-2.348-1.903-4.25-4.25-4.25c-13.405,0-25.999,5.232-35.462,14.733c-1.656,1.663-1.651,4.354,0.012,6.01
		C223.408,34.807,224.493,35.22,225.578,35.22z"/>
	<path d="M245.174,182.68c-0.247-2.334-2.351-4.023-4.674-3.778c-9.083,0.963-18.673,1.363-28.508,1.185
		c-2.385-0.067-4.284,1.825-4.326,4.173c-0.042,2.347,1.826,4.283,4.173,4.325c1.566,0.028,3.125,0.043,4.679,0.043
		c8.549,0,16.898-0.427,24.878-1.272C243.73,187.106,245.422,185.014,245.174,182.68z"/>
	<path d="M199.099,179.54c-22.777-1.502-42.812-5.638-55.607-8.844c-2.275-0.572-4.585,0.813-5.155,3.091
		c-0.57,2.276,0.813,4.585,3.09,5.155c13.135,3.29,33.706,7.535,57.113,9.08c0.095,0.006,0.19,0.009,0.284,0.009
		c2.219,0,4.088-1.724,4.236-3.971C203.215,181.719,201.441,179.695,199.099,179.54z"/>
	<path d="M433.377,491.018H299.5l-10.81-218.93c14.193-5.133,35.646-12.994,35.914-13.093c1.674-0.613,2.788-2.207,2.788-3.99
		v-18.183l31.935-26.994c6.738-5.7,8.351-15.64,4.43-23.486c2.858-3.161,4.619-7.134,4.989-11.451
		c0.448-5.227-1.166-10.314-4.544-14.325l-6.605-7.848c-3.377-4.012-8.115-6.469-13.341-6.917
		c-5.222-0.445-10.313,1.165-14.325,4.543c-0.034,0.028-0.067,0.057-0.1,0.086l-39.329,35.254l-24.093-53.367
		c32.417-4.613,56.996-32.43,56.996-65.823C323.404,29.829,293.575,0,256.91,0c-17.786,0-34.495,6.931-47.06,19.52
		c-4.173,3.91-84.302,80.114-90.158,166.461c-0.002,0.025,0.003,0.05,0.001,0.075c-0.001,0.02-0.007,0.038-0.008,0.058
		l-11.046,304.905H66.141c-2.347,0-4.25,1.902-4.25,4.25c0,2.348,1.903,4.25,4.25,4.25h367.236c2.347,0,4.25-1.902,4.25-4.25
		C437.627,492.921,435.724,491.018,433.377,491.018z M277.105,267.218c-4.316,1.53-9.213,0.185-12.194-3.355l-49.467-58.451
		c0.368,0.002,0.735,0.005,1.104,0.005c0.005,0,0.008,0,0.013,0c13.944,0,27.171-1.143,39.6-3.392l16.941,21.058
		c0.717,0.891,1.763,1.456,2.901,1.566c1.144,0.105,2.274-0.242,3.148-0.98l39.741-33.458v61.825
		C310.622,255.063,286.252,263.975,277.105,267.218z M317.899,179.936l-29.391,24.744v-5.793l31.37-28.12L317.899,179.936z
		 M280.009,211.836l-3.008,2.532l-11.491-14.283c4.977-1.167,9.813-2.521,14.499-4.068V211.836z M353.837,203.339l-26.446,22.354
		v-42.638l5.068-4.267c2.276-1.916,5.164-2.834,8.125-2.576c2.963,0.254,5.65,1.646,7.565,3.922l6.608,7.85
		C358.644,192.597,358.222,199.63,353.837,203.339z M343.528,154.27c2.963,0.255,5.649,1.647,7.564,3.923l6.606,7.849
		c1.917,2.274,2.832,5.159,2.578,8.123c-0.159,1.848-0.761,3.589-1.744,5.103l-3.879-4.608c-3.378-4.012-8.116-6.468-13.341-6.917
		c-4.59-0.392-9.074,0.808-12.817,3.393l2.167-10.034l4.79-4.294C337.718,154.92,340.585,154.024,343.528,154.27z M263.045,124.163
		c-6.76-20.856-5.302-39.62,4.314-55.999l47.511-0.28C314.182,97.116,291.913,121.142,263.045,124.163z M314.453,59.386
		l-41.177,0.243c1.082-1.341,2.221-2.664,3.425-3.968c10.685-11.575,23.319-18.349,28.708-20.91
		C310.171,42.002,313.346,50.376,314.453,59.386z M256.137,130.208c5.783,14.316,25.405,56.291,25.405,56.291
		c-19.023,6.914-40.856,10.417-64.981,10.417c-0.003,0-0.01,0-0.013,0c-41.222-0.002-77.539-10.34-88.115-13.651
		c7.457-82.113,83.979-154.507,87.276-157.587c0.037-0.035,0.074-0.07,0.109-0.106C226.783,14.563,241.376,8.5,256.91,8.5
		c17.15,0,32.578,7.488,43.205,19.36c-6.584,3.275-18.748,10.296-29.449,21.808C256.379,65.037,240.798,92.233,256.137,130.208z
		 M127.976,192.037c3.062,0.935,7.317,2.162,12.559,3.495l0.004,43.02c0,2.348,1.903,4.25,4.251,4.25
		c2.347,0,4.249-1.903,4.249-4.25l-0.004-40.981c14.421,3.253,33.657,6.569,55.031,7.553l54.35,64.222
		c3.796,4.509,9.379,6.992,15.07,6.992c2.168,0,4.352-0.361,6.459-1.107c0.12-0.043,0.258-0.092,0.383-0.137l10.659,215.871h-12.156
		l-4.75-132.126c-0.084-2.346-2.064-4.18-4.4-4.095c-2.346,0.084-4.179,2.054-4.094,4.399l4.739,131.821H161.257l2.916-77.189
		c0.088-2.346-1.741-4.318-4.086-4.407c-2.353-0.083-4.319,1.741-4.408,4.087l-2.928,77.51h-13.249l3.827-129.949
		c0.069-2.346-1.777-4.304-4.123-4.373c-2.316-0.04-4.304,1.776-4.373,4.123l-3.834,130.199h-13.852L127.976,192.037z"/>
</g>
<g>
</g>
<g>
</g>
<g>
</g>
<g>
</g>
<g>
</g>
<g>
</g>
<g>
</g>
<g>
</g>
<g>
</g>
<g>
</g>
<g>
</g>
<g>
</g>
<g>
</g>
<g>
</g>
<g>
</g>
</svg>
