<?xml version="1.0" encoding="iso-8859-1"?>
<!-- Generator: Adobe Illustrator 18.0.0, SVG Export Plug-In . SVG Version: 6.00 Build 0)  -->
<!DOCTYPE svg PUBLIC "-//W3C//DTD SVG 1.1//EN" "http://www.w3.org/Graphics/SVG/1.1/DTD/svg11.dtd">
<svg version="1.1" id="Capa_1" xmlns="http://www.w3.org/2000/svg" xmlns:xlink="http://www.w3.org/1999/xlink" x="0px" y="0px"
	 viewBox="0 0 474.612 474.612" style="enable-background:new 0 0 474.612 474.612;" xml:space="preserve">
<g>
	<path d="M156.571,80.473c0.576,0.265,1.18,0.391,1.775,0.391c1.607,0,3.146-0.917,3.863-2.474
		c13.476-29.268,42.995-48.179,75.202-48.179c2.348,0,4.25-1.903,4.25-4.25c0-2.347-1.902-4.25-4.25-4.25
		c-35.514,0-68.063,20.852-82.922,53.124C153.506,76.967,154.439,79.491,156.571,80.473z"/>
	<path d="M441.462,302.869c-21.099-16.075-60.68-22.861-141.172-24.202c-0.024,0-0.048,0-0.071,0c-1.466,0-2.831,0.756-3.607,2.003
		c-0.024,0.039-0.307,0.482-0.81,1.217v-33.172c2.019-1.723,3.99-3.536,5.895-5.472c43.693-44.393,42.863-128.864,42.807-132.371
		c0-59.051-48.042-107.093-107.093-107.093c-59.007,0-107.021,47.969-107.092,106.961c-0.305,5.055-4.434,85.57,37.43,130.176
		c3.468,3.695,7.162,7.022,11.062,10.003v30.964c-0.503-0.733-0.786-1.175-0.81-1.213c-0.789-1.267-2.171-2.039-3.678-2.003
		c-80.493,1.341-120.073,8.127-141.171,24.202C17.112,315.09,0,331.674,0,374.016v92.566c0,2.347,1.903,4.25,4.25,4.25
		c2.347,0,4.25-1.903,4.25-4.25v-34.75h61.45c2.347,0,4.25-1.903,4.25-4.25c0-2.347-1.903-4.25-4.25-4.25H8.5v-14.5h24.45
		c2.347,0,4.25-1.903,4.25-4.25c0-2.347-1.903-4.25-4.25-4.25H8.5v-26.316c0-8.943,0.804-16.573,2.216-23.184H24.95
		c2.347,0,4.25-1.903,4.25-4.25c0-2.347-1.903-4.25-4.25-4.25H13.032c5.509-16.234,15.31-25.114,25.271-32.703
		c19.054-14.517,57.907-21.042,133.836-22.423c5.622,8.162,27.988,37.415,60.917,39.789v56.587c0,2.347,1.903,4.25,4.25,4.25
		c2.348,0,4.25-1.903,4.25-4.25v-56.587c32.93-2.375,55.296-31.628,60.917-39.789c75.93,1.382,114.783,7.906,133.836,22.423
		c14.029,10.69,27.742,23.94,29.586,56.703H434.95c-2.348,0-4.25,1.903-4.25,4.25c0,2.347,1.902,4.25,4.25,4.25h31.162v13H396.95
		c-2.348,0-4.25,1.903-4.25,4.25c0,2.347,1.902,4.25,4.25,4.25h69.162v13H446.95c-2.348,0-4.25,1.903-4.25,4.25
		c0,2.347,1.902,4.25,4.25,4.25h19.162v48.75c0,2.347,1.902,4.25,4.25,4.25c2.348,0,4.25-1.903,4.25-4.25v-92.566
		C474.612,331.673,457.501,315.09,441.462,302.869z M237.411,12.279c51.251,0,93.486,39.31,98.158,89.418
		c-16.176-20.18-48.426-39.175-98.263-39.175c-49.528,0-81.709,18.706-98.016,38.713C144.15,51.377,186.298,12.279,237.411,12.279z
		 M173.965,235.119c-26.628-28.355-33.382-73.906-34.922-101.19h23.645c2.347,0,4.25-1.903,4.25-4.25c0-2.347-1.903-4.25-4.25-4.25
		h-23.988c-0.071-2.929-0.083-5.489-0.067-7.6c10.505-21.762,42.429-46.807,98.674-46.807c56.182,0,88.078,25.065,98.568,46.834
		c-0.333,9.028-1.488,25.946-5.421,45.07h-23.99c-2.348,0-4.25,1.903-4.25,4.25c0,2.347,1.902,4.25,4.25,4.25h22.085
		c-5.642,23.152-15.542,48.207-32.91,65.854c-15.416,15.664-35.007,23.606-58.228,23.606
		C211.368,260.886,190.022,252.217,173.965,235.119z M237.305,318.667c-22.181,0-39.886-14.985-49.994-26.136v-35.897
		c14.321,8.459,31.077,12.752,50.1,12.752c18.863,0,35.567-4.798,49.891-14.264v37.436
		C277.209,303.706,259.529,318.667,237.305,318.667z"/>
</g>
<g>
</g>
<g>
</g>
<g>
</g>
<g>
</g>
<g>
</g>
<g>
</g>
<g>
</g>
<g>
</g>
<g>
</g>
<g>
</g>
<g>
</g>
<g>
</g>
<g>
</g>
<g>
</g>
<g>
</g>
</svg>
