<?xml version="1.0" encoding="iso-8859-1"?>
<!-- Generator: Adobe Illustrator 18.0.0, SVG Export Plug-In . SVG Version: 6.00 Build 0)  -->
<!DOCTYPE svg PUBLIC "-//W3C//DTD SVG 1.1//EN" "http://www.w3.org/Graphics/SVG/1.1/DTD/svg11.dtd">
<svg version="1.1" id="Capa_1" xmlns="http://www.w3.org/2000/svg" xmlns:xlink="http://www.w3.org/1999/xlink" x="0px" y="0px"
	 viewBox="0 0 489.507 489.507" style="enable-background:new 0 0 489.507 489.507;" xml:space="preserve">
<g>
	<path d="M474.776,153.75l-8.624-2.777c-5.399-1.739-11.154-1.273-16.203,1.316c-5.048,2.588-8.787,6.988-10.526,12.388
		c-0.011,0.035-0.022,0.07-0.032,0.106l-13.318,45.354V71.71c0-11.711-9.528-21.238-21.239-21.238h-9.06
		c-4.921,0-9.445,1.697-13.05,4.517c-1.708-10.012-10.424-17.665-20.915-17.665h-9.061c-11.711,0-21.24,9.528-21.24,21.24v5.166
		c-3.557-2.684-7.965-4.295-12.754-4.295h-9.06c-11.712,0-21.24,9.528-21.24,21.239v26.084c-3.557-2.685-7.966-4.297-12.755-4.297
		h-3.085c-11.711,0-21.24,9.528-21.24,21.24l0.001,150.549c-0.044,1.922-0.766,45.181,22.553,53.576v120.107
		c0,2.347,1.903,4.25,4.25,4.25s4.25-1.903,4.25-4.25v-11.913h27.303c2.347,0,4.25-1.903,4.25-4.25c0-2.347-1.903-4.25-4.25-4.25
		h-27.303V324.597c0-2.036-1.444-3.786-3.443-4.173c-16.443-3.18-19.371-34.269-19.111-46.075v-9.102h44.55
		c2.347,0,4.25-1.903,4.25-4.25c0-2.347-1.903-4.25-4.25-4.25h-44.55V123.701c0-7.025,5.715-12.74,12.74-12.74h3.085
		c7.025,0,12.74,5.715,12.74,12.74c0,0.051,0.013,0.099,0.015,0.15v52.989c0,2.347,1.903,4.25,4.25,4.25
		c2.347,0,4.25-1.903,4.25-4.25V80.674c0-7.024,5.715-12.739,12.74-12.739h9.06c7.025,0,12.74,5.715,12.74,12.739
		c0,0.046,0.012,0.089,0.014,0.136v88.651c0,2.347,1.903,4.25,4.25,4.25c2.347,0,4.25-1.903,4.25-4.25V58.564
		c0-7.025,5.715-12.74,12.74-12.74h9.061c7.025,0,12.74,5.715,12.74,12.74v12.847c-0.001,0.101-0.015,0.198-0.015,0.299
		c0,0.051,0.013,0.099,0.015,0.15v96.547c0,2.347,1.903,4.25,4.25,4.25s4.25-1.903,4.25-4.25V71.411
		c0.161-6.885,5.8-12.44,12.725-12.44h9.06c7.025,0,12.739,5.714,12.739,12.738v167.984c0,2.113,1.553,3.906,3.645,4.207
		c2.091,0.305,4.087-0.981,4.683-3.009l21.629-73.658c1.05-3.216,3.285-5.836,6.297-7.381c3.028-1.552,6.48-1.833,9.719-0.789
		l8.623,2.777c6.687,2.154,10.375,9.346,8.192,16.127c-0.214,0.721-21.478,72.392-29.55,97.172
		c-3.154,9.683-12.753,39.148-38.547,41.877c-2.162,0.229-3.803,2.052-3.803,4.227v22.646h-61.485c-2.347,0-4.25,1.903-4.25,4.25
		c0,2.347,1.903,4.25,4.25,4.25h61.485v13.988H398.28c-2.347,0-4.25,1.903-4.25,4.25c0,2.347,1.903,4.25,4.25,4.25h10.182v73.054
		c0,2.347,1.903,4.25,4.25,4.25c2.347,0,4.25-1.903,4.25-4.25V324.904c28.367-5.486,38.504-36.609,41.932-47.131
		c8.107-24.887,29.403-96.666,29.588-97.294C492.072,169.331,485.924,157.341,474.776,153.75z"/>
	<path d="M408.486,300.477c0.231,2.183,2.075,3.804,4.221,3.804c0.149,0,0.3-0.008,0.452-0.024
		c11.784-1.247,20.456-10.157,25.775-26.483c0.727-2.232-0.493-4.63-2.725-5.357c-2.233-0.728-4.631,0.493-5.357,2.725
		c-1.56,4.789-6.309,19.365-18.586,20.663C409.931,296.051,408.239,298.143,408.486,300.477z"/>
	<path d="M238.147,123.701c0-11.712-9.528-21.24-21.24-21.24h-3.085c-4.789,0-9.199,1.612-12.755,4.297V80.674
		c0-11.711-9.528-21.239-21.24-21.239h-9.06c-4.789,0-9.197,1.612-12.754,4.295v-5.166c0-11.712-9.528-21.24-21.24-21.24h-9.061
		c-10.491,0-19.207,7.653-20.915,17.664c-3.605-2.819-8.128-4.517-13.049-4.517h-9.061c-11.711,0-21.239,9.527-21.239,21.238
		v138.426L50.13,164.783c-0.01-0.036-0.021-0.071-0.032-0.106c-1.74-5.4-5.478-9.799-10.526-12.387
		c-5.047-2.589-10.801-3.056-16.202-1.317l-8.624,2.777C3.598,157.341-2.55,169.331,1.01,180.385
		c0.214,0.722,21.51,72.502,29.618,97.388c3.427,10.522,13.563,41.645,41.931,47.131v123.028c0,2.347,1.903,4.25,4.25,4.25
		c2.347,0,4.25-1.903,4.25-4.25v-56.89h49.466c2.347,0,4.25-1.903,4.25-4.25s-1.903-4.25-4.25-4.25H81.059v-15.395h12.22
		c2.347,0,4.25-1.903,4.25-4.25c0-2.347-1.903-4.25-4.25-4.25h-12.22v-37.404c0-2.174-1.641-3.998-3.803-4.227
		c-25.795-2.729-35.393-32.194-38.546-41.877c-8.073-24.779-29.336-96.451-29.58-97.267c-2.153-6.687,1.535-13.879,8.221-16.033
		l8.625-2.777c3.237-1.044,6.69-0.764,9.718,0.789c3.013,1.545,5.248,4.165,6.298,7.382l21.629,73.655
		c0.595,2.028,2.591,3.312,4.683,3.009c2.092-0.301,3.645-2.093,3.645-4.206v-37.695h35.386c2.347,0,4.25-1.903,4.25-4.25
		c0-2.347-1.903-4.25-4.25-4.25H71.948V71.71c0-7.024,5.715-12.738,12.739-12.738h9.061c6.921,0,12.558,5.549,12.724,12.43v97.005
		c0,2.347,1.903,4.25,4.25,4.25c2.347,0,4.25-1.903,4.25-4.25V71.865c0.002-0.052,0.016-0.102,0.016-0.155
		c0-0.104-0.014-0.205-0.016-0.309V58.564c0-7.025,5.715-12.74,12.74-12.74h9.061c7.025,0,12.74,5.715,12.74,12.74v110.896
		c0,2.347,1.903,4.25,4.25,4.25c2.347,0,4.25-1.903,4.25-4.25V80.809c0.002-0.046,0.014-0.089,0.014-0.136
		c0-7.024,5.715-12.739,12.74-12.739h9.06c7.025,0,12.74,5.715,12.74,12.739v96.166c0,2.347,1.903,4.25,4.25,4.25
		c2.347,0,4.25-1.903,4.25-4.25v-52.984c0.002-0.052,0.016-0.102,0.016-0.155c0-7.025,5.715-12.74,12.74-12.74h3.085
		c7.025,0,12.74,5.715,12.74,12.74l0.001,150.744c0.26,11.71-2.668,42.799-19.111,45.979c-1.999,0.387-3.443,2.137-3.443,4.173
		v17.185h-25.267c-2.347,0-4.25,1.903-4.25,4.25c0,2.347,1.903,4.25,4.25,4.25h25.267v97.651c0,2.347,1.903,4.25,4.25,4.25
		c2.347,0,4.25-1.903,4.25-4.25V327.826c23.319-8.395,22.597-51.649,22.553-53.477V123.701z"/>
	<path d="M55.88,275.141c-0.727-2.232-3.126-3.453-5.357-2.725c-2.232,0.727-3.452,3.125-2.725,5.357
		c5.916,18.162,15.526,28.07,28.565,29.449c0.152,0.016,0.303,0.024,0.453,0.024c2.146,0,3.99-1.621,4.221-3.803
		c0.247-2.335-1.445-4.427-3.779-4.674C63.088,297.27,57.662,280.614,55.88,275.141z"/>
	<path d="M77.784,74.764v77.305c0,2.347,1.903,4.25,4.25,4.25c2.347,0,4.25-1.903,4.25-4.25V74.764c0-2.347-1.903-4.25-4.25-4.25
		C79.687,70.514,77.784,72.416,77.784,74.764z"/>
	<path d="M405.308,78.244c-2.347,0-4.25,1.903-4.25,4.25v54.816c0,2.347,1.903,4.25,4.25,4.25s4.25-1.903,4.25-4.25V82.494
		C409.558,80.147,407.655,78.244,405.308,78.244z"/>
</g>
<g>
</g>
<g>
</g>
<g>
</g>
<g>
</g>
<g>
</g>
<g>
</g>
<g>
</g>
<g>
</g>
<g>
</g>
<g>
</g>
<g>
</g>
<g>
</g>
<g>
</g>
<g>
</g>
<g>
</g>
</svg>
