<?xml version="1.0" encoding="iso-8859-1"?>
<!-- Generator: Adobe Illustrator 18.0.0, SVG Export Plug-In . SVG Version: 6.00 Build 0)  -->
<!DOCTYPE svg PUBLIC "-//W3C//DTD SVG 1.1//EN" "http://www.w3.org/Graphics/SVG/1.1/DTD/svg11.dtd">
<svg version="1.1" id="Capa_1" xmlns="http://www.w3.org/2000/svg" xmlns:xlink="http://www.w3.org/1999/xlink" x="0px" y="0px"
	 viewBox="0 0 490.491 490.491" style="enable-background:new 0 0 490.491 490.491;" xml:space="preserve">
<g>
	<path d="M131.594,208.981c0.164,0.019,0.328,0.027,0.489,0.027c2.131,0,3.969-1.599,4.218-3.766
		c6.31-54.991,32.593-65.814,33.046-65.993c2.187-0.809,3.315-3.232,2.521-5.43c-0.798-2.207-3.232-3.349-5.441-2.553
		c-1.286,0.465-31.579,12.079-38.571,73.007C127.588,206.606,129.262,208.714,131.594,208.981z"/>
	<path d="M443.647,481.991H260.886l-13.893-219.677l16.632-6.092c4.688-1.674,8.442-5.072,10.572-9.57
		c2.131-4.497,2.383-9.555,0.709-14.241l-3.226-9.03c-1.869-5.232-5.95-9.24-10.954-11.143c-0.392-4.42-2.31-8.516-5.518-11.651
		c-3.183-3.11-7.25-4.945-11.661-5.251c-3.158-19.151-9.901-45.418-24.035-60.612c9.381-2.049,18.348-6.548,25.864-13.559
		c13.821-12.891,20.112-32.217,16.631-50.763l11.947-23.818c2.735-5.452,0.524-12.115-4.929-14.853L208.11,1.178
		C206.575,0.407,204.861,0,203.152,0c-4.213,0-8.004,2.339-9.894,6.104l-13.387,26.683c-3.593,2.085-6.968,4.558-10.021,7.407
		c-21.103,19.685-23.335,52.125-5.927,74.473c-8.966,3.82-47.584,24.761-52.273,103.383c-3.646,61.133-11.459,236.434-12.68,263.941
		H46.844c-2.348,0-4.25,1.902-4.25,4.25c0,2.348,1.902,4.25,4.25,4.25h396.803c2.348,0,4.25-1.902,4.25-4.25
		C447.897,483.893,445.995,481.991,443.647,481.991z M263.676,226.24l3.226,9.03c0.91,2.548,0.773,5.298-0.385,7.743
		c-1.159,2.445-3.201,4.294-5.782,5.216l-56.28,20.615c-1.105,0.395-2.251,0.595-3.408,0.595h-0.001
		c-4.269,0-8.102-2.702-9.537-6.726c-0.013-0.033-0.025-0.067-0.038-0.102l-33.603-87.014c-0.893-2.535-0.75-5.267,0.401-7.697
		c0.672-1.42,1.648-2.63,2.843-3.58l14.5,44.05c0.589,1.788,2.251,2.922,4.036,2.922c0.44,0,0.889-0.069,1.33-0.214
		c2.23-0.734,3.441-3.137,2.708-5.366l-14.739-44.776l4.099-1.464c1.104-0.393,2.251-0.594,3.408-0.594
		c4.27,0,8.104,2.702,9.541,6.726c0.016,0.046,0.033,0.091,0.051,0.137l25.502,64.33c0.85,2.142,3.252,3.216,5.415,2.424
		l33.765-12.388c1.104-0.395,2.25-0.594,3.406-0.594C258.404,219.514,262.24,222.217,263.676,226.24z M249.267,206.664
		c1.289,1.26,2.188,2.808,2.662,4.498c-1.381,0.165-2.749,0.472-4.095,0.952l-2.047,0.751c-0.212-2.357-0.519-5.322-0.954-8.73
		C246.487,204.581,248.01,205.436,249.267,206.664z M204.297,8.774l60.916,30.552c1.265,0.635,1.777,2.181,1.144,3.445
		l-10.765,21.46l-66.706-30.457l2.995-5.971l21.407,10.286c0.594,0.285,1.221,0.42,1.838,0.42c1.583,0,3.103-0.889,3.834-2.41
		c1.017-2.116,0.125-4.655-1.99-5.672l-21.275-10.224l5.161-10.287C201.473,8.688,203.041,8.144,204.297,8.774z M175.649,46.409
		c2.365-2.208,4.958-4.147,7.707-5.815l70.418,32.151c2.633,15.466-2.689,31.47-14.194,42.202
		c-18.898,17.627-48.612,16.591-66.236-2.302C155.718,93.749,156.753,64.036,175.649,46.409z M120.135,218.556
		c2.532-42.455,15.569-66.457,26.061-79.117c9.779-11.801,20.965-16.992,23.789-18.169c10.544,9.786,24.074,14.746,37.646,14.746
		c0.207,0,0.413-0.012,0.62-0.015c22.61,16.371,28.162,66.616,29.248,79.906l-19.575,7.182l-23.95-60.416
		c-2.662-7.356-9.692-12.294-17.52-12.294c-2.134,0-4.243,0.366-6.268,1.09l-9.028,3.225c-4.686,1.673-8.44,5.071-10.571,9.569
		c-2.13,4.498-2.381,9.556-0.706,14.243c0.012,0.033,0.024,0.067,0.037,0.101l33.605,87.02c2.657,7.367,9.691,12.313,17.523,12.313
		h0.001c2.135,0,4.244-0.367,6.301-1.102l31.384-11.496l12.363,196.362h-56.136c-2.348,0-4.25,1.902-4.25,4.25
		c0,2.348,1.902,4.25,4.25,4.25h56.671l0.742,11.788h-96.648l0.92-62.41c0.034-2.347-1.841-4.277-4.188-4.313
		c-0.021,0-0.042,0-0.063,0c-2.318,0-4.214,1.862-4.249,4.188l-0.922,62.535h-15.627l3.765-115.54
		c0.076-2.347-1.764-4.31-4.109-4.387c-0.048-0.001-0.095-0.002-0.142-0.002c-2.282,0-4.17,1.813-4.245,4.111l-3.773,115.817H107.48
		C108.752,453.297,116.51,279.353,120.135,218.556z"/>
</g>
<g>
</g>
<g>
</g>
<g>
</g>
<g>
</g>
<g>
</g>
<g>
</g>
<g>
</g>
<g>
</g>
<g>
</g>
<g>
</g>
<g>
</g>
<g>
</g>
<g>
</g>
<g>
</g>
<g>
</g>
</svg>
