<?xml version="1.0" encoding="iso-8859-1"?>
<!-- Generator: Adobe Illustrator 18.0.0, SVG Export Plug-In . SVG Version: 6.00 Build 0)  -->
<!DOCTYPE svg PUBLIC "-//W3C//DTD SVG 1.1//EN" "http://www.w3.org/Graphics/SVG/1.1/DTD/svg11.dtd">
<svg version="1.1" id="Capa_1" xmlns="http://www.w3.org/2000/svg" xmlns:xlink="http://www.w3.org/1999/xlink" x="0px" y="0px"
	 viewBox="0 0 494.533 494.533" style="enable-background:new 0 0 494.533 494.533;" xml:space="preserve">
<g>
	<path d="M367.331,387.364c0-23.888-12.668-46.254-35.672-62.978c-12.399-9.016-27.029-15.791-42.959-20.084v-14.287h8.65
		c8.62,0,15.633-7.013,15.633-15.633c0-8.62-7.013-15.633-15.633-15.633h-1.547c11.243-14.922,17.358-32.947,17.358-51.543
		c0-16.348-4.632-32.069-13.4-45.489c-0.056-0.1-0.116-0.196-0.181-0.291c-8.342-12.305-12.751-26.786-12.751-41.88V4.25
		c0-2.348-1.903-4.25-4.25-4.25h-70.708c-2.347,0-4.25,1.902-4.25,4.25v115.296c0,15.536-4.579,30.312-13.243,42.73
		c-0.033,0.048-0.066,0.097-0.097,0.146c-8.444,13.237-12.908,28.724-12.908,44.784c0,18.598,6.114,36.622,17.354,51.543h-1.545
		c-8.62,0-15.632,7.013-15.632,15.633c0,8.62,7.013,15.633,15.632,15.633h8.651v14.328c-45.849,12.458-78.631,44.972-78.631,83.021
		c0,35.041,27.801,65.387,68.007,79.697v23.222c0,2.348,1.903,4.25,4.25,4.25h95.615c2.347,0,4.25-1.902,4.25-4.25v-23.222
		C339.53,452.751,367.331,422.405,367.331,387.364z M136.885,398.992c-0.775-3.798-1.184-7.679-1.184-11.628
		c0-3.342,0.292-6.637,0.851-9.872h221.435c0.559,3.252,0.844,6.548,0.844,9.872c0,3.949-0.408,7.83-1.184,11.628H136.885z
		 M355.861,368.992H342.65c-11.228-32.061-50.393-54.432-95.383-54.431c-2.347,0-4.25,1.903-4.25,4.25c0,2.348,1.903,4.25,4.25,4.25
		c40.071-0.001,74.937,18.732,86.282,45.931H138.679c2.688-8.162,7.126-15.845,13.014-22.833h32.54c2.347,0,4.25-1.902,4.25-4.25
		c0-2.348-1.903-4.25-4.25-4.25h-24.286c20.456-18.418,51.994-30.247,87.319-30.247c30.044,0,58.241,8.47,79.395,23.849
		C341.25,341.868,351.222,354.872,355.861,368.992z M189.873,207.206c0-14.409,3.986-28.287,11.528-40.141
		c9.63-13.837,14.72-30.267,14.72-47.52V8.5h8.507v111.046c0,2.348,1.903,4.25,4.25,4.25c2.347,0,4.25-1.902,4.25-4.25V8.5h45.201
		v9.826h-14.763c-2.347,0-4.25,1.902-4.25,4.25c0,2.348,1.903,4.25,4.25,4.25h14.763v7.5H250.9c-2.347,0-4.25,1.902-4.25,4.25
		c0,2.348,1.903,4.25,4.25,4.25h27.429v76.72c0,16.704,4.858,32.745,14.055,46.41c0.038,0.064,0.077,0.129,0.119,0.191
		c7.954,12.081,12.158,26.279,12.158,41.059c0,5.569-0.628,11.079-1.816,16.453H266.9c-2.347,0-4.25,1.902-4.25,4.25
		c0,2.348,1.903,4.25,4.25,4.25h33.554c-3.346,9.686-8.634,18.728-15.653,26.59h-52.395c-12.803-14.342-19.856-32.616-19.856-51.543
		c0-14.439,4.002-28.344,11.574-40.212c1.262-1.98,0.682-4.607-1.297-5.869c-1.979-1.262-4.605-0.682-5.869,1.297
		c-8.444,13.237-12.908,28.724-12.908,44.784c0,18.598,6.114,36.622,17.354,51.543h-11.674
		C196.926,244.407,189.873,226.133,189.873,207.206z M190.05,274.382c0-3.933,3.2-7.133,7.132-7.133H297.35
		c2.427,0,4.571,1.221,5.86,3.077h-29.645c-2.347,0-4.25,1.902-4.25,4.25c0,2.348,1.903,4.25,4.25,4.25h29.353
		c-1.308,1.636-3.317,2.689-5.569,2.689H197.182C193.25,281.515,190.05,278.315,190.05,274.382z M214.333,290.015H280.2v12.264
		c-10.582-2.205-21.636-3.366-32.934-3.366c-11.416,0-22.464,1.181-32.933,3.384V290.015z M139.285,407.492h18.668
		c0.031,0.091,0.045,0.184,0.083,0.273c12.091,29.087,47.95,48.63,89.23,48.63c2.347,0,4.25-1.902,4.25-4.25
		c0-2.348-1.903-4.25-4.25-4.25c-35.82,0-68.095-16.465-80.003-40.403h187.985c-2.508,6.905-6.274,13.449-11.112,19.5h-42.57
		c-2.347,0-4.25,1.902-4.25,4.25c0,2.348,1.903,4.25,4.25,4.25h34.727c-20.384,19.317-52.704,31.823-89.027,31.823
		C195.448,467.315,151.769,441.865,139.285,407.492z M290.824,486.033h-87.115v-16.244c13.51,3.888,28.201,6.026,43.557,6.026
		c15.357,0,30.047-2.139,43.558-6.026V486.033z"/>
	<path d="M166.233,384.326h-20c-2.347,0-4.25,1.902-4.25,4.25c0,2.348,1.903,4.25,4.25,4.25h20c2.347,0,4.25-1.902,4.25-4.25
		C170.483,386.229,168.58,384.326,166.233,384.326z"/>
	<path d="M350.233,384.326h-20c-2.347,0-4.25,1.902-4.25,4.25c0,2.348,1.903,4.25,4.25,4.25h20c2.347,0,4.25-1.902,4.25-4.25
		C354.483,386.229,352.58,384.326,350.233,384.326z"/>
	<path d="M304.233,384.326h-20c-2.347,0-4.25,1.902-4.25,4.25c0,2.348,1.903,4.25,4.25,4.25h20c2.347,0,4.25-1.902,4.25-4.25
		C308.483,386.229,306.58,384.326,304.233,384.326z"/>
	<path d="M258.233,384.326h-20c-2.347,0-4.25,1.902-4.25,4.25c0,2.348,1.903,4.25,4.25,4.25h20c2.347,0,4.25-1.902,4.25-4.25
		C262.483,386.229,260.58,384.326,258.233,384.326z"/>
	<path d="M212.233,384.326h-20c-2.347,0-4.25,1.902-4.25,4.25c0,2.348,1.903,4.25,4.25,4.25h20c2.347,0,4.25-1.902,4.25-4.25
		C216.483,386.229,214.58,384.326,212.233,384.326z"/>
</g>
<g>
</g>
<g>
</g>
<g>
</g>
<g>
</g>
<g>
</g>
<g>
</g>
<g>
</g>
<g>
</g>
<g>
</g>
<g>
</g>
<g>
</g>
<g>
</g>
<g>
</g>
<g>
</g>
<g>
</g>
</svg>
