<?xml version="1.0" encoding="iso-8859-1"?>
<!-- Generator: Adobe Illustrator 18.0.0, SVG Export Plug-In . SVG Version: 6.00 Build 0)  -->
<!DOCTYPE svg PUBLIC "-//W3C//DTD SVG 1.1//EN" "http://www.w3.org/Graphics/SVG/1.1/DTD/svg11.dtd">
<svg version="1.1" id="Capa_1" xmlns="http://www.w3.org/2000/svg" xmlns:xlink="http://www.w3.org/1999/xlink" x="0px" y="0px"
	 viewBox="0 0 493.853 493.853" style="enable-background:new 0 0 493.853 493.853;" xml:space="preserve">
<path d="M483.023,300.611c0-19.177-15.601-34.778-34.777-34.778c-0.306,0-0.608,0.015-0.912,0.023
	c4.31-5.454,6.892-12.332,6.892-19.807c0-17.651-14.36-32.012-32.011-32.012c-5.068,0-9.861,1.189-14.125,3.294
	c0.245-1.536,0.376-3.11,0.376-4.714c0-16.446-13.379-29.826-29.824-29.826c-6.358,0-12.254,2.007-17.1,5.411
	c-0.413-15.395-13.055-27.794-28.546-27.794c-7.475,0-14.283,2.888-19.381,7.603c-1.375-12.793-12.232-22.788-25.383-22.788
	c-4.836,0-9.362,1.352-13.222,3.696c1.263-3.879,1.956-7.845,1.956-11.638c0-9.276-3.327-26.77-7.74-40.691
	c-2.925-9.228-6.081-16.365-9.448-21.399c-6.189-17.969-7.089-29.498-2.663-34.258c6.745-7.258,28.717-1.406,49.966,4.254
	c55.042,14.661,121.417,26.416,122.081,26.533c1.499,0.265,3.022-0.292,3.997-1.458c15.282-18.264,6.987-64.803,6.627-66.776
	c-0.407-2.232-2.502-3.751-4.747-3.447c-0.294,0.039-29.893,3.958-74.398,4.977c-14.008,0.321-26.512,0.473-37.543,0.607
	c-51.212,0.622-74.585,0.906-88.646,16.725c-13.587,15.286-3.96,45.996-1.087,54.072c-3.07,4.944-5.961,11.669-8.655,20.17
	c-4.413,13.922-7.74,31.416-7.74,40.692c0,3.808,0.509,7.669,1.459,11.399c-3.768-2.194-8.142-3.458-12.808-3.458
	c-13.15,0-24.008,9.995-25.383,22.788c-5.098-4.715-11.906-7.603-19.381-7.603c-15.491,0-28.133,12.398-28.546,27.794
	c-4.846-3.404-10.741-5.411-17.1-5.411c-16.445,0-29.824,13.38-29.824,29.826c0,1.604,0.131,3.178,0.376,4.714
	c-4.264-2.105-9.057-3.294-14.125-3.294c-17.65,0-32.011,14.36-32.011,32.012c0,7.475,2.582,14.353,6.892,19.807
	c-0.305-0.008-0.606-0.023-0.912-0.023c-19.177,0-34.777,15.602-34.777,34.778c0,16.797,11.97,30.85,27.827,34.079
	c-7.345,6.29-12.013,15.621-12.013,26.027c0,18.897,15.374,34.271,34.271,34.271c2.256,0,4.46-0.225,6.595-0.643
	c-2.339,4.86-3.651,10.305-3.651,16.05c0,20.477,16.659,37.137,37.137,37.137c10.253,0,19.548-4.177,26.274-10.918
	c1.966,21.116,19.778,37.703,41.398,37.703c13.689,0,25.853-6.651,33.435-16.889c4.355,20.774,22.814,36.424,44.863,36.424
	c22.02,0,40.457-15.607,44.846-36.338c7.586,10.189,19.721,16.803,33.372,16.803c21.62,0,39.433-16.586,41.4-37.702
	c6.727,6.74,16.021,10.917,26.273,10.917c20.478,0,37.138-16.66,37.138-37.137c0-5.745-1.313-11.19-3.651-16.05
	c2.135,0.418,4.338,0.643,6.594,0.643c18.897,0,34.272-15.374,34.272-34.271c0-10.406-4.668-19.737-12.013-26.027
	C471.054,331.461,483.023,317.408,483.023,300.611z M284.916,422.325c-8.253-12.154-22.184-20.155-37.949-20.155
	c-15.803,0-29.763,8.038-38.008,20.24c-4.602-17.955-20.92-31.267-40.29-31.267c-12.272,0-23.317,5.348-30.936,13.832
	c-2.633-17.916-18.102-31.715-36.737-31.716c-2.965,0-5.846,0.359-8.611,1.019c1.8-4.162,2.803-8.746,2.803-13.561
	c0-16.467-11.676-30.255-27.182-33.53c7.563-6.385,12.38-15.927,12.38-26.577c0-8.604-3.147-16.482-8.343-22.56
	c17.467-0.219,31.608-14.486,31.608-32.002c0-2.126-0.213-4.202-0.61-6.213c3.72,1.67,7.837,2.607,12.171,2.607
	c16.401,0,29.751-13.31,29.822-29.696c4.532,3.028,9.975,4.798,15.823,4.798c15.256,0,27.758-12.02,28.531-27.087
	c4.415,3.646,10.072,5.839,16.232,5.839c14.081,0,25.537-11.456,25.537-25.536c0-0.342-0.013-0.681-0.025-1.02
	c4.121,3.285,8.998,5.27,14.448,5.27c6.399,0,12.336-2.802,17.288-7.188c-0.11,0.965-0.174,1.944-0.174,2.938
	c0,14.081,11.456,25.536,25.537,25.536c6.16,0,11.817-2.193,16.232-5.839c0.773,15.067,13.275,27.087,28.531,27.087
	c5.849,0,11.291-1.769,15.824-4.798c0.07,16.386,13.42,29.696,29.821,29.696c4.335,0,8.452-0.937,12.172-2.607
	c-0.398,2.011-0.61,4.088-0.61,6.214c0,17.516,14.143,31.783,31.607,32.002c-5.195,6.078-8.343,13.956-8.343,22.56
	c0,10.65,4.816,20.192,12.38,26.577c-15.506,3.275-27.182,17.062-27.182,33.53c0,4.815,1.003,9.399,2.803,13.561
	c-2.766-0.66-5.646-1.019-8.611-1.019c-18.636,0.001-34.104,13.8-36.736,31.715c-7.619-8.483-18.664-13.831-30.937-13.831
	C305.845,391.143,289.546,404.413,284.916,422.325z M445.725,246.049c0,12.964-10.547,23.512-23.511,23.512
	c-10.1,0-18.731-6.402-22.053-15.361h29.393c2.348,0,4.25-1.903,4.25-4.25c0-2.347-1.902-4.25-4.25-4.25h-30.843
	c0.189-12.804,10.655-23.163,23.503-23.163C435.178,222.537,445.725,233.085,445.725,246.049z M378.641,191.292
	c9.551,0,17.655,6.313,20.362,14.985h-13.713c-2.348,0-4.25,1.903-4.25,4.25c0,2.347,1.902,4.25,4.25,4.25h14.565
	c-1.086,10.747-10.186,19.165-21.215,19.165c-11.759,0-21.325-9.567-21.325-21.326C357.316,200.858,366.882,191.292,378.641,191.292
	z M332.996,168.909c11.064,0,20.065,9.003,20.065,20.068c0,11.065-9.001,20.067-20.065,20.067c-11.066,0-20.069-9.002-20.069-20.067
	C312.926,177.911,321.929,168.909,332.996,168.909z M288.232,153.724c9.393,0,17.033,7.643,17.033,17.036
	s-7.641,17.036-17.033,17.036c-9.395,0-17.037-7.643-17.037-17.036C271.195,161.366,278.837,153.724,288.232,153.724z
	 M268.466,137.282c0,14.477-11.55,29.227-22.886,29.227c-11.511,0-20.111-15.43-20.111-29.226c0-3.07,0.485-7.706,1.377-13.108
	h27.727c2.348,0,4.25-1.903,4.25-4.25c0-2.347-1.902-4.25-4.25-4.25h-26.109c0.569-2.646,1.214-5.368,1.927-8.099h14.499
	c2.348,0,4.25-1.903,4.25-4.25c0-2.347-1.902-4.25-4.25-4.25h-12.052c6.116-19.259,11.914-24.353,14.128-24.353
	c2.218,0,8.031,5.107,14.157,24.436C265.719,113.66,268.466,129.93,268.466,137.282z M240.805,27.995
	c11.566-13.012,33.762-13.282,82.395-13.873c11.053-0.134,23.58-0.287,37.635-0.608c35.415-0.811,61.551-3.448,71.232-4.555
	c0.439,2.989,0.872,6.612,1.203,10.58h-68.038c-2.348,0-4.25,1.903-4.25,4.25s1.902,4.25,4.25,4.25h68.536
	c0.09,2.664,0.115,5.385,0.051,8.099h-33.314c-2.348,0-4.25,1.903-4.25,4.25c0,2.347,1.902,4.25,4.25,4.25h32.783
	c-0.219,2.07-0.509,4.088-0.881,6.024h-9.77c-2.348,0-4.25,1.903-4.25,4.25c0,2.347,1.902,4.25,4.25,4.25h7.313
	c-0.563,1.344-1.196,2.593-1.911,3.72c-12.78-2.318-70.234-12.981-118.772-25.909c-25.839-6.882-48.155-12.826-58.379-1.827
	c-5.586,6.009-6.475,16.054-2.663,31.163c-0.418-0.052-0.838-0.085-1.26-0.085c-2.462,0-4.846,0.888-7.148,2.643
	C236.239,56.95,232.646,37.174,240.805,27.995z M205.621,153.724c9.395,0,17.037,7.642,17.037,17.036
	c0,9.394-7.643,17.036-17.037,17.036c-9.393,0-17.033-7.642-17.033-17.036S196.228,153.724,205.621,153.724z M160.857,168.909
	c11.066,0,20.069,9.002,20.069,20.067c0,0.47-0.038,0.931-0.07,1.394h-13.427c-2.348,0-4.25,1.903-4.25,4.25
	c0,2.347,1.902,4.25,4.25,4.25h10.867c-3.456,6.066-9.972,10.174-17.439,10.174c-11.064,0-20.065-9.002-20.065-20.067
	C140.792,177.911,149.792,168.909,160.857,168.909z M115.211,191.292c11.759,0,21.325,9.566,21.325,21.325
	c0,11.759-9.566,21.326-21.325,21.326c-11.758,0-21.324-9.566-21.324-21.325c0-1.15,0.117-2.272,0.294-3.373h15.152
	c2.348,0,4.25-1.903,4.25-4.25c0-2.347-1.902-4.25-4.25-4.25H97.509C101.341,195.047,107.845,191.292,115.211,191.292z
	 M71.638,222.537c12.965,0,23.513,10.547,23.513,23.511c0,12.965-10.548,23.512-23.513,23.512
	c-12.964,0-23.511-10.547-23.511-23.512C48.127,233.085,58.674,222.537,71.638,222.537z M19.33,300.611
	c0-0.024,0.002-0.048,0.002-0.073h22.223c2.348,0,4.25-1.903,4.25-4.25c0-2.347-1.902-4.25-4.25-4.25H20.773
	c3.563-10.292,13.346-17.706,24.834-17.706c14.49,0,26.278,11.788,26.278,26.278c0,14.49-11.788,26.278-26.278,26.278
	C31.118,326.889,19.33,315.101,19.33,300.611z M35.144,360.717c0-14.21,11.561-25.771,25.771-25.771s25.771,11.561,25.771,25.771
	c0,14.21-11.561,25.771-25.771,25.771S35.144,374.927,35.144,360.717z M100.996,439.032c-15.79,0-28.637-12.846-28.637-28.637
	c0-15.791,12.847-28.637,28.637-28.637c15.79,0.001,28.637,12.847,28.637,28.637C129.632,426.186,116.786,439.032,100.996,439.032z
	 M168.668,465.817c-18.243,0-33.086-14.843-33.086-33.087c0-18.245,14.843-33.087,33.086-33.087c6.491,0,12.548,1.887,17.663,5.129
	H159.13c-2.348,0-4.25,1.903-4.25,4.25s1.902,4.25,4.25,4.25h36.276c1.066,1.461,2.015,3.013,2.833,4.642h-23.203
	c-2.348,0-4.25,1.903-4.25,4.25s1.902,4.25,4.25,4.25h26.107c0.397,2.046,0.612,4.156,0.612,6.316
	C201.756,450.974,186.914,465.817,168.668,465.817z M246.966,485.353c-20.589,0-37.34-16.751-37.34-37.341
	c0-20.59,16.751-37.342,37.34-37.342c20.59,0,37.342,16.751,37.342,37.342c0,0.344-0.017,0.683-0.025,1.024h-13.802
	c-2.348,0-4.25,1.903-4.25,4.25c0,2.347,1.902,4.25,4.25,4.25h12.592c-0.685,2.59-1.645,5.068-2.841,7.407h-26.35
	c-2.348,0-4.25,1.903-4.25,4.25s1.902,4.25,4.25,4.25h20.392C267.452,480.763,257.738,485.353,246.966,485.353z M325.184,465.817
	c-18.244,0-33.087-14.843-33.087-33.087c0-3.914,0.688-7.67,1.941-11.158h34.539c2.348,0,4.25-1.903,4.25-4.25
	s-1.902-4.25-4.25-4.25h-29.988c6.033-8.141,15.707-13.429,26.595-13.429c18.244,0,33.087,14.843,33.087,33.087
	c0,4.029-0.727,7.891-2.051,11.465h-33.176c-2.348,0-4.25,1.903-4.25,4.25c0,2.347,1.902,4.25,4.25,4.25h28.502
	C345.5,460.661,335.934,465.817,325.184,465.817z M392.857,439.032c-15.79,0-28.637-12.846-28.637-28.637
	c0-15.79,12.847-28.636,28.637-28.637c15.791,0,28.638,12.846,28.638,28.637c0,0.903-0.047,1.795-0.13,2.677h-31.233
	c-2.348,0-4.25,1.903-4.25,4.25s1.902,4.25,4.25,4.25h29.091C414.859,431.825,404.684,439.032,392.857,439.032z M458.709,360.717
	c0,14.21-11.561,25.771-25.772,25.771c-14.211,0-25.772-11.561-25.772-25.771c0-14.21,11.561-25.771,25.772-25.771
	C447.148,334.945,458.709,346.506,458.709,360.717z M448.246,326.889c-14.49,0-26.278-11.789-26.278-26.278
	c0-14.49,11.788-26.278,26.278-26.278c14.489,0,26.277,11.788,26.277,26.278C474.523,315.101,462.735,326.889,448.246,326.889z"/>
<g>
</g>
<g>
</g>
<g>
</g>
<g>
</g>
<g>
</g>
<g>
</g>
<g>
</g>
<g>
</g>
<g>
</g>
<g>
</g>
<g>
</g>
<g>
</g>
<g>
</g>
<g>
</g>
<g>
</g>
</svg>
