<?xml version="1.0" encoding="iso-8859-1"?>
<!-- Generator: Adobe Illustrator 18.0.0, SVG Export Plug-In . SVG Version: 6.00 Build 0)  -->
<!DOCTYPE svg PUBLIC "-//W3C//DTD SVG 1.1//EN" "http://www.w3.org/Graphics/SVG/1.1/DTD/svg11.dtd">
<svg version="1.1" id="Capa_1" xmlns="http://www.w3.org/2000/svg" xmlns:xlink="http://www.w3.org/1999/xlink" x="0px" y="0px"
	 viewBox="0 0 485.033 485.033" style="enable-background:new 0 0 485.033 485.033;" xml:space="preserve">
<g>
	<path d="M419.02,0H99.067C81.423,0,61.763,13.203,61.763,32.149l0.001,419.814l0,0c0,0.032,0-0.032,0,0
		c0,18.2,14.805,33.069,33.004,33.069H419.02c2.347,0,4.25-1.903,4.25-4.25s-1.903-4.25-4.25-4.25
		c-13.359,0-23.824-10.764-23.824-24.506c0-13.668,10.46-24.386,23.717-24.501l0,0c2.347,0,4.356-1.903,4.356-4.25V4.25
		C423.27,1.903,421.367,0,419.02,0z M414.77,35.022h-92.402c-2.347,0-4.25,1.903-4.25,4.25c0,2.347,1.903,4.25,4.25,4.25h92.402
		v25.423h-41.256c-2.347,0-4.25,1.903-4.25,4.25c0,2.348,1.903,4.25,4.25,4.25h41.256v274.37h-40.212c-2.347,0-4.25,1.903-4.25,4.25
		s1.903,4.25,4.25,4.25h40.212v58.711l-311.453-0.005v-27.392h80.225c2.347,0,4.25-1.903,4.25-4.25c0-2.347-1.903-4.25-4.25-4.25
		h-80.225v-56.216h36.386c2.347,0,4.25-1.903,4.25-4.25c0-2.347-1.903-4.25-4.25-4.25h-36.386V34.649h21.772
		c2.347,0,4.25-1.903,4.25-4.25s-1.903-4.25-4.25-4.25h-21.772V8.5H414.77V35.022z M70.263,32.149
		c0-12.136,12.225-21.516,24.553-23.327v410.199h-0.048c-9.715,0-18.46,4.221-24.505,10.922V32.149z M386.696,452.027
		c0,9.82,3.997,18.51,10.457,24.506H94.769c-11.855,0-21.77-8.464-24.023-19.666h233.877c2.347,0,4.25-1.903,4.25-4.25
		c0-2.347-1.903-4.25-4.25-4.25H70.538c0.351-2.336,1.038-4.563,2.001-6.636h54.115c2.347,0,4.25-1.903,4.25-4.25
		c0-2.347-1.903-4.25-4.25-4.25H79.067c4.256-3.562,9.732-5.71,15.702-5.71h4.245c0.018,0,0.035,0.005,0.053,0.005
		c0.018,0,0.035-0.005,0.053-0.005l298.029,0.005C390.692,433.522,386.696,442.21,386.696,452.027z"/>
	<path d="M260.826,294.276c46.813,0,84.899-38.086,84.899-84.9c0-46.814-38.086-84.9-84.899-84.9
		c-46.813,0-84.899,38.086-84.899,84.9C175.927,256.19,214.013,294.276,260.826,294.276z M260.826,132.977
		c42.127,0,76.399,34.272,76.399,76.4c0,42.127-34.273,76.4-76.399,76.4c-42.127,0-76.399-34.273-76.399-76.4
		C184.427,167.249,218.699,132.977,260.826,132.977z"/>
	<path d="M226.329,243.874c4.802,4.802,7.92,10.879,9.019,17.576c0.238,1.451,1.209,2.676,2.567,3.239
		c0.524,0.217,1.076,0.323,1.626,0.323c0.877,0,1.746-0.271,2.48-0.798c5.512-3.96,12.015-6.052,18.805-6.052
		c6.79,0,13.293,2.093,18.806,6.052c1.193,0.857,2.747,1.038,4.105,0.474c1.359-0.563,2.33-1.788,2.567-3.239
		c1.098-6.696,4.216-12.773,9.017-17.575c4.804-4.803,10.881-7.921,17.577-9.018c1.451-0.237,2.677-1.209,3.239-2.568
		c0.563-1.358,0.383-2.912-0.475-4.106c-3.96-5.512-6.052-12.015-6.052-18.806c0-6.791,2.092-13.294,6.051-18.805
		c0.858-1.194,1.038-2.748,0.475-4.106c-0.563-1.359-1.788-2.33-3.239-2.567c-6.695-1.097-12.772-4.215-17.575-9.017
		c-4.802-4.802-7.92-10.88-9.018-17.578c-0.238-1.451-1.209-2.676-2.567-3.239c-1.359-0.563-2.912-0.383-4.106,0.475
		c-5.512,3.959-12.014,6.052-18.805,6.052c-6.791,0-13.293-2.093-18.805-6.052c-1.194-0.858-2.748-1.038-4.106-0.475
		c-1.358,0.563-2.33,1.788-2.567,3.239c-1.098,6.697-4.217,12.775-9.019,17.576c-4.802,4.802-10.879,7.92-17.576,9.019
		c-1.451,0.238-2.676,1.209-3.239,2.567c-0.563,1.359-0.383,2.912,0.475,4.106c3.959,5.511,6.051,12.014,6.051,18.805
		c0,6.791-2.092,13.294-6.051,18.806c-0.858,1.194-1.038,2.748-0.475,4.106c0.563,1.359,1.788,2.331,3.239,2.568
		C215.449,235.952,221.527,239.071,226.329,243.874z M216.092,190.846c6.104-1.968,11.641-5.349,16.248-9.956
		c4.608-4.607,7.989-10.145,9.957-16.249c5.708,2.925,12.014,4.45,18.53,4.45c6.516,0,12.822-1.525,18.53-4.45
		c1.968,6.104,5.349,11.642,9.957,16.25c4.608,4.607,10.146,7.988,16.248,9.956c-2.925,5.708-4.449,12.013-4.449,18.529
		c0,6.516,1.525,12.822,4.45,18.53c-6.103,1.968-11.641,5.349-16.249,9.957c-4.608,4.607-7.989,10.145-9.957,16.248
		c-5.709-2.925-12.014-4.45-18.53-4.45c-6.516,0-12.822,1.525-18.53,4.45c-1.968-6.104-5.349-11.641-9.956-16.249
		c-4.608-4.608-10.146-7.989-16.249-9.957c2.924-5.708,4.449-12.014,4.449-18.53C220.541,202.86,219.016,196.554,216.092,190.846z"
		/>
	<path d="M168.983,247.419c-5.972,18.174,4.242,45.386,4.715,46.628c0.432,1.132,1.325,2.026,2.457,2.457
		c0.708,0.27,17.523,6.61,33.425,6.61c4.991,0,9.413-0.634,13.206-1.89c8.632,17.07,35.089,29.088,36.302,29.631
		c0.553,0.248,1.146,0.372,1.738,0.372c0.592,0,1.185-0.124,1.738-0.372c1.213-0.543,27.671-12.56,36.302-29.631
		c3.793,1.255,8.215,1.89,13.206,1.89c0.001,0,0,0,0.001,0c15.902,0,32.716-6.34,33.424-6.61c1.132-0.432,2.025-1.326,2.457-2.457
		c0.474-1.242,10.687-28.454,4.714-46.629c17.074-8.628,29.094-35.091,29.637-36.305c0.496-1.105,0.496-2.37,0-3.476
		c-0.543-1.213-12.563-27.675-29.636-36.305c5.971-18.174-4.242-45.385-4.715-46.627c-0.432-1.132-1.326-2.026-2.458-2.458
		c-0.708-0.27-17.522-6.61-33.424-6.61c-4.992,0-9.414,0.634-13.207,1.889c-8.632-17.07-35.09-29.088-36.303-29.632
		c-1.105-0.495-2.37-0.495-3.475,0c-1.213,0.543-27.67,12.562-36.302,29.632c-3.793-1.256-8.215-1.89-13.206-1.89
		c-15.903,0-32.717,6.34-33.424,6.61c-1.132,0.432-2.026,1.325-2.457,2.457c-0.474,1.243-10.687,28.454-4.715,46.628
		c-17.074,8.629-29.093,35.092-29.637,36.305c-0.496,1.105-0.496,2.37,0,3.476C139.89,212.327,151.909,238.79,168.983,247.419z
		 M175.788,177.716c1.223-0.367,2.216-1.264,2.704-2.444c0.489-1.18,0.421-2.517-0.184-3.641
		c-5.995-11.139-0.595-32.631,2.673-42.077c4.578-1.555,17.11-5.417,28.599-5.417c5.606,0,10.148,0.915,13.502,2.72
		c1.124,0.605,2.462,0.673,3.641,0.184c1.18-0.488,2.077-1.481,2.444-2.705c3.638-12.123,22.678-23.509,31.661-27.871
		c8.982,4.353,28.011,15.721,31.658,27.872c0.367,1.223,1.265,2.216,2.444,2.705c1.179,0.488,2.516,0.421,3.641-0.185
		c3.354-1.805,7.896-2.72,13.502-2.72c11.488,0,24.022,3.863,28.598,5.417c3.269,9.449,8.668,30.939,2.673,42.077
		c-0.605,1.124-0.673,2.461-0.184,3.641c0.488,1.18,1.481,2.077,2.704,2.444c12.123,3.64,23.509,22.678,27.871,31.662
		c-4.353,8.982-15.721,28.01-27.872,31.657c-1.223,0.367-2.216,1.265-2.705,2.444c-0.488,1.18-0.421,2.517,0.184,3.641
		c5.996,11.138,0.596,32.631-2.672,42.077c-4.578,1.555-17.111,5.417-28.6,5.417c-5.606,0-10.148-0.915-13.501-2.72
		c-1.125-0.605-2.461-0.672-3.641-0.185c-1.179,0.489-2.077,1.482-2.444,2.705c-3.64,12.123-22.677,23.509-31.662,27.871
		c-8.982-4.353-28.01-15.72-31.658-27.871c-0.367-1.223-1.264-2.216-2.444-2.704c-0.522-0.216-1.075-0.324-1.626-0.324
		c-0.695,0-1.388,0.17-2.014,0.508c-3.353,1.805-7.895,2.72-13.501,2.72c-11.488,0-24.023-3.863-28.599-5.417
		c-3.269-9.448-8.668-30.939-2.673-42.077c0.605-1.124,0.673-2.461,0.184-3.641c-0.488-1.18-1.481-2.077-2.705-2.444
		c-12.123-3.639-23.508-22.675-27.87-31.66C152.281,200.39,163.666,181.355,175.788,177.716z"/>
	<path d="M322.367,456.867h46.971c2.347,0,4.25-1.903,4.25-4.25c0-2.347-1.903-4.25-4.25-4.25h-46.971
		c-2.347,0-4.25,1.903-4.25,4.25C318.117,454.964,320.02,456.867,322.367,456.867z"/>
	<path d="M312.973,383.129h-82.46c-2.347,0-4.25,1.903-4.25,4.25c0,2.347,1.903,4.25,4.25,4.25h82.46c2.347,0,4.25-1.903,4.25-4.25
		C317.223,385.032,315.32,383.129,312.973,383.129z"/>
	<path d="M238.864,43.522h56.365c2.347,0,4.25-1.903,4.25-4.25c0-2.347-1.903-4.25-4.25-4.25h-56.365c-2.347,0-4.25,1.903-4.25,4.25
		C234.614,41.62,236.516,43.522,238.864,43.522z"/>
	<path d="M240.994,202.702h39.665c2.347,0,4.25-1.903,4.25-4.25c0-2.347-1.903-4.25-4.25-4.25h-39.665
		c-2.347,0-4.25,1.903-4.25,4.25C236.744,200.799,238.647,202.702,240.994,202.702z"/>
	<path d="M273.874,219.253h-26.095c-2.347,0-4.25,1.903-4.25,4.25s1.903,4.25,4.25,4.25h26.095c2.347,0,4.25-1.903,4.25-4.25
		S276.221,219.253,273.874,219.253z"/>
</g>
<g>
</g>
<g>
</g>
<g>
</g>
<g>
</g>
<g>
</g>
<g>
</g>
<g>
</g>
<g>
</g>
<g>
</g>
<g>
</g>
<g>
</g>
<g>
</g>
<g>
</g>
<g>
</g>
<g>
</g>
</svg>
