<?xml version="1.0" encoding="iso-8859-1"?>
<!-- Generator: Adobe Illustrator 18.0.0, SVG Export Plug-In . SVG Version: 6.00 Build 0)  -->
<!DOCTYPE svg PUBLIC "-//W3C//DTD SVG 1.1//EN" "http://www.w3.org/Graphics/SVG/1.1/DTD/svg11.dtd">
<svg version="1.1" id="Capa_1" xmlns="http://www.w3.org/2000/svg" xmlns:xlink="http://www.w3.org/1999/xlink" x="0px" y="0px"
	 viewBox="0 0 493.802 493.802" style="enable-background:new 0 0 493.802 493.802;" xml:space="preserve">
<g>
	<path d="M247.729,74.268c2.348,0,4.25-1.903,4.25-4.25V4.25c0-2.347-1.902-4.25-4.25-4.25c-2.348,0-4.25,1.903-4.25,4.25v65.768
		C243.479,72.365,245.381,74.268,247.729,74.268z"/>
	<path d="M247.729,419.534c-2.348,0-4.25,1.903-4.25,4.25v65.769c0,2.347,1.902,4.25,4.25,4.25c2.348,0,4.25-1.903,4.25-4.25
		v-65.769C251.979,421.436,250.076,419.534,247.729,419.534z"/>
	<path d="M485.957,243.741h-65.771c-2.348,0-4.25,1.903-4.25,4.25c0,2.347,1.902,4.25,4.25,4.25h65.771
		c2.348,0,4.25-1.903,4.25-4.25C490.207,245.644,488.305,243.741,485.957,243.741z"/>
	<path d="M77.864,247.991c0-2.347-1.902-4.25-4.25-4.25H7.845c-2.348,0-4.25,1.903-4.25,4.25c0,2.347,1.902,4.25,4.25,4.25h65.77
		C75.962,252.241,77.864,250.338,77.864,247.991z"/>
	<path d="M372.561,126.661c1.088,0,2.176-0.415,3.005-1.245l46.506-46.505c1.66-1.66,1.66-4.351,0-6.011
		c-1.66-1.659-4.352-1.659-6.01,0l-46.506,46.505c-1.66,1.66-1.66,4.351,0,6.011C370.386,126.246,371.473,126.661,372.561,126.661z"
		/>
	<path d="M119.406,369.556l-46.505,46.505c-1.66,1.66-1.66,4.351,0,6.011c0.829,0.83,1.917,1.245,3.005,1.245
		s2.176-0.415,3.005-1.245l46.505-46.505c1.66-1.66,1.66-4.351,0-6.011C123.758,367.896,121.065,367.896,119.406,369.556z"/>
	<path d="M371.666,367.197c-1.658-1.659-4.352-1.659-6.01,0c-1.66,1.66-1.66,4.351,0,6.011l46.507,46.506
		c0.829,0.83,1.917,1.245,3.005,1.245c1.088,0,2.176-0.415,3.005-1.245c1.66-1.66,1.66-4.351,0-6.011L371.666,367.197z"/>
	<path d="M120.593,128.145c0.83,0.83,1.917,1.245,3.005,1.245s2.176-0.415,3.005-1.245c1.66-1.66,1.66-4.351,0-6.011L80.097,75.628
		c-1.66-1.659-4.352-1.659-6.01,0c-1.66,1.66-1.66,4.351,0,6.011L120.593,128.145z"/>
	<path d="M247.651,153.226c-52.197,0-94.662,42.465-94.662,94.662c0,52.197,42.465,94.662,94.662,94.662
		c52.197,0,94.662-42.465,94.662-94.662C342.313,195.69,299.848,153.226,247.651,153.226z M247.651,334.049
		c-47.51,0-86.162-38.652-86.162-86.162c0-47.51,38.652-86.162,86.162-86.162c47.51,0,86.162,38.652,86.162,86.162
		C333.813,295.397,295.16,334.049,247.651,334.049z"/>
	<path d="M247.651,310.151c-34.332,0-62.263-27.931-62.263-62.264c0-2.347-1.902-4.25-4.25-4.25c-2.348,0-4.25,1.903-4.25,4.25
		c0,39.019,31.744,70.764,70.763,70.764c2.348,0,4.25-1.903,4.25-4.25S249.998,310.151,247.651,310.151z"/>
	<path d="M247.651,124.818c-67.86,0-123.069,55.208-123.069,123.069c0,67.861,55.209,123.07,123.069,123.07
		c67.861,0,123.07-55.209,123.07-123.07C370.721,180.026,315.512,124.818,247.651,124.818z M247.651,362.457
		c-63.174,0-114.569-51.396-114.569-114.57c0-63.174,51.395-114.569,114.569-114.569c63.174,0,114.57,51.395,114.57,114.569
		C362.221,311.061,310.824,362.457,247.651,362.457z"/>
	<path d="M275.488,383.182c-9.1,1.862-18.467,2.806-27.838,2.806c-41.607,0-80.594-18.494-106.962-50.741
		c-1.484-1.816-4.161-2.086-5.98-0.6c-1.817,1.486-2.086,4.163-0.6,5.98c27.989,34.228,69.373,53.86,113.542,53.86
		c9.942,0,19.881-1.002,29.541-2.979c2.3-0.47,3.782-2.716,3.313-5.016C280.033,384.193,277.785,382.708,275.488,383.182z"/>
	<path d="M376.975,188.171c-2.158,0.921-3.162,3.418-2.241,5.577c7.31,17.136,11.017,35.351,11.017,54.14
		c0,2.347,1.902,4.25,4.25,4.25c2.348,0,4.25-1.903,4.25-4.25c0-19.942-3.936-39.279-11.698-57.475
		C381.63,188.253,379.132,187.25,376.975,188.171z"/>
	<path d="M284.43,114.738c27.325,7.531,51.388,23.115,69.587,45.068c0.84,1.014,2.053,1.538,3.273,1.538
		c0.956,0,1.917-0.321,2.71-0.978c1.808-1.498,2.058-4.177,0.559-5.984c-19.314-23.3-44.859-39.842-73.872-47.837
		c-2.268-0.625-4.604,0.707-5.227,2.968C280.838,111.774,282.167,114.114,284.43,114.738z"/>
</g>
<g>
</g>
<g>
</g>
<g>
</g>
<g>
</g>
<g>
</g>
<g>
</g>
<g>
</g>
<g>
</g>
<g>
</g>
<g>
</g>
<g>
</g>
<g>
</g>
<g>
</g>
<g>
</g>
<g>
</g>
</svg>
