<?xml version="1.0" encoding="iso-8859-1"?>
<!-- Generator: Adobe Illustrator 18.0.0, SVG Export Plug-In . SVG Version: 6.00 Build 0)  -->
<!DOCTYPE svg PUBLIC "-//W3C//DTD SVG 1.1//EN" "http://www.w3.org/Graphics/SVG/1.1/DTD/svg11.dtd">
<svg version="1.1" id="Capa_1" xmlns="http://www.w3.org/2000/svg" xmlns:xlink="http://www.w3.org/1999/xlink" x="0px" y="0px"
	 viewBox="0 0 497.2 497.2" style="enable-background:new 0 0 497.2 497.2;" xml:space="preserve">
<g>
	<path d="M381.602,109.912c-0.001,0-0.001,0-0.001,0c-2.347,0-4.25,1.902-4.25,4.249c-0.002,11.787-1.814,23.441-5.386,34.639
		c-0.714,2.236,0.522,4.627,2.757,5.34c0.43,0.137,0.865,0.202,1.293,0.202c1.8,0,3.472-1.153,4.048-2.959
		c3.839-12.033,5.786-24.556,5.788-37.221C385.851,111.815,383.949,109.912,381.602,109.912z"/>
	<path d="M344.044,194.546c-21.479,21.479-50.037,33.308-80.412,33.308s-58.933-11.829-80.411-33.307
		c-1.658-1.659-4.352-1.659-6.01,0c-1.66,1.66-1.66,4.351,0,6.011c23.084,23.084,53.775,35.797,86.421,35.796
		c32.645,0,63.338-12.713,86.422-35.797c1.66-1.66,1.66-4.351,0-6.011C348.396,192.887,345.702,192.887,344.044,194.546z"/>
	<path d="M229.991,330.464c0,2.347,1.902,4.25,4.25,4.25c2.348,0,4.25-1.903,4.25-4.25c0-13.136,10.687-23.823,23.822-23.823
		c2.348,0,4.25-1.903,4.25-4.25c0-2.347-1.902-4.25-4.25-4.25C244.491,298.141,229.991,312.641,229.991,330.464z"/>
	<path d="M275.01,431.888c0,8.713-7.089,15.802-15.802,15.802c-2.348,0-4.25,1.903-4.25,4.25s1.902,4.25,4.25,4.25
		c13.4,0,24.302-10.902,24.302-24.302c0-2.347-1.902-4.25-4.25-4.25C276.913,427.638,275.01,429.541,275.01,431.888z"/>
	<path d="M450.413,197.881h-70.14c5.942-8.452,10.865-17.405,14.778-26.688h26.383c2.348,0,4.25-1.903,4.25-4.25
		s-1.902-4.25-4.25-4.25h-23.104c17.646-50.622,6.279-109.194-34.1-149.573c-4.362-4.362-9.037-8.478-13.895-12.233
		c-1.681-1.298-4.061-1.158-5.577,0.33c-1.515,1.487-1.7,3.865-0.433,5.569c29.966,40.286,25.747,97.48-9.813,133.04
		c-19.286,19.286-44.928,29.907-72.202,29.907c-27.273,0-52.915-10.621-72.201-29.907c-23.483-23.482-33.287-56.399-28.615-87.652
		h57.09c2.348,0,4.25-1.903,4.25-4.25c0-2.347-1.902-4.25-4.25-4.25H163.13c3.098-13.055,8.796-25.632,17.168-36.888
		c1.268-1.704,1.082-4.083-0.434-5.57c-1.515-1.488-3.897-1.629-5.576-0.329c-4.867,3.764-9.542,7.88-13.895,12.233
		c-27.224,27.224-42.217,63.42-42.217,101.92c0,3.835,0.155,7.646,0.45,11.429H46.786c-2.348,0-4.25,1.903-4.25,4.25
		c0,2.347,1.902,4.25,4.25,4.25h72.759c0.957,6.96,2.414,13.8,4.354,20.479h-23.296c-2.348,0-4.25,1.903-4.25,4.25
		s1.902,4.25,4.25,4.25h26.048c5.04,14.007,12.266,27.182,21.498,39.107h-27.882c-2.348,0-4.25,1.903-4.25,4.25
		s1.902,4.25,4.25,4.25h34.992c1.66,1.837,3.371,3.641,5.135,5.405c22.756,22.755,51.781,36.957,83.18,41.009v28.616
		c-17.023,7.297-28.979,24.217-28.979,43.879c0,19.662,11.956,36.582,28.979,43.879v33.022
		c-9.339,6.126-15.523,16.683-15.523,28.663s6.185,22.537,15.523,28.663v28.259c0,2.347,1.902,4.25,4.25,4.25s4.25-1.903,4.25-4.25
		v-24.222c3.234,1.015,6.674,1.564,10.239,1.564c3.565,0,7.005-0.549,10.239-1.564v24.222c0,2.347,1.902,4.25,4.25,4.25
		c2.348,0,4.25-1.903,4.25-4.25v-28.258c9.34-6.126,15.524-16.684,15.524-28.664c0-11.979-6.185-22.536-15.524-28.663v-33.022
		c17.022-7.297,28.978-24.217,28.978-43.879c0-19.662-11.956-36.581-28.978-43.879V257.97c31.398-4.051,60.424-18.253,83.18-41.009
		c3.402-3.402,6.594-6.935,9.583-10.58h76.599c2.348,0,4.25-1.903,4.25-4.25S452.761,197.881,450.413,197.881z M288.077,436.028
		c0,14.206-11.558,25.764-25.764,25.764c-14.206,0-25.763-11.558-25.763-25.764c0-14.206,11.557-25.763,25.763-25.763
		C276.519,410.265,288.077,421.822,288.077,436.028z M272.552,403.329c-3.234-1.015-6.674-1.564-10.239-1.564
		c-3.565,0-7.005,0.549-10.239,1.564v-26.265c3.301,0.725,6.725,1.118,10.239,1.118c3.515,0,6.938-0.394,10.239-1.118V403.329z
		 M299.808,318.969h-29.475c-2.348,0-4.25,1.903-4.25,4.25s1.902,4.25,4.25,4.25h31.071c0.075,0.99,0.126,1.986,0.126,2.995
		c0,2.437-0.234,4.819-0.662,7.134h-18.115c-2.348,0-4.25,1.903-4.25,4.25s1.902,4.25,4.25,4.25h15.518
		c-6.053,13.865-19.889,23.584-35.958,23.584c-21.625,0-39.218-17.593-39.218-39.218c0-21.624,17.593-39.218,39.218-39.218
		C279.939,291.247,294.883,302.937,299.808,318.969z M272.552,283.865c-3.301-0.725-6.725-1.118-10.239-1.118
		c-3.515,0-6.939,0.394-10.239,1.118v-25.049c3.392,0.237,6.806,0.361,10.239,0.361s6.848-0.125,10.239-0.361V283.865z
		 M358.222,210.95c-25.618,25.619-59.68,39.727-95.909,39.727s-70.291-14.108-95.909-39.727
		c-25.618-25.618-39.727-59.679-39.727-95.909c0-32.924,11.652-64.057,33.005-88.691c-6.178,15.383-8.869,32.109-7.711,48.928
		c1.833,26.615,13.244,51.673,32.131,70.559c20.891,20.891,48.667,32.396,78.211,32.396c29.545,0,57.32-11.505,78.212-32.396
		c18.887-18.887,30.298-43.945,32.131-70.559c1.158-16.815-1.533-33.537-7.706-48.917C411.002,79.588,408.76,160.413,358.222,210.95
		z"/>
	<path d="M447.309,359.333h-72.446c-2.348,0-4.25,1.903-4.25,4.25c0,2.347,1.902,4.25,4.25,4.25h72.446
		c2.348,0,4.25-1.903,4.25-4.25C451.559,361.235,449.657,359.333,447.309,359.333z"/>
	<path d="M392.567,331.5c0-2.347-1.902-4.25-4.25-4.25h-30.013c-2.348,0-4.25,1.903-4.25,4.25c0,2.347,1.902,4.25,4.25,4.25h30.013
		C390.664,335.75,392.567,333.847,392.567,331.5z"/>
	<path d="M139.931,437.988H72.659c-2.348,0-4.25,1.903-4.25,4.25c0,2.347,1.902,4.25,4.25,4.25h67.272c2.348,0,4.25-1.903,4.25-4.25
		C144.181,439.891,142.279,437.988,139.931,437.988z"/>
	<path d="M98.644,410.155c0-2.347-1.902-4.25-4.25-4.25H60.241c-2.348,0-4.25,1.903-4.25,4.25c0,2.347,1.902,4.25,4.25,4.25h34.153
		C96.742,414.405,98.644,412.502,98.644,410.155z"/>
</g>
<g>
</g>
<g>
</g>
<g>
</g>
<g>
</g>
<g>
</g>
<g>
</g>
<g>
</g>
<g>
</g>
<g>
</g>
<g>
</g>
<g>
</g>
<g>
</g>
<g>
</g>
<g>
</g>
<g>
</g>
</svg>
