<?xml version="1.0" encoding="iso-8859-1"?>
<!-- Generator: Adobe Illustrator 18.0.0, SVG Export Plug-In . SVG Version: 6.00 Build 0)  -->
<!DOCTYPE svg PUBLIC "-//W3C//DTD SVG 1.1//EN" "http://www.w3.org/Graphics/SVG/1.1/DTD/svg11.dtd">
<svg version="1.1" id="Capa_1" xmlns="http://www.w3.org/2000/svg" xmlns:xlink="http://www.w3.org/1999/xlink" x="0px" y="0px"
	 viewBox="0 0 494.472 494.472" style="enable-background:new 0 0 494.472 494.472;" xml:space="preserve">
<g>
	<path d="M347.143,136.788l-131.951,131.95c-1.66,1.659-1.66,4.351,0,6.01c0.83,0.83,1.917,1.245,3.005,1.245
		c1.087,0,2.175-0.415,3.005-1.245l131.951-131.95c1.66-1.659,1.66-4.351,0-6.01C351.493,135.128,348.803,135.128,347.143,136.788z"
		/>
	<path d="M396.606,396.607c-39.898,39.898-92.946,61.871-149.371,61.871c-56.425,0-109.473-21.973-149.372-61.871
		c-1.66-1.66-4.351-1.66-6.011,0c-1.66,1.659-1.66,4.351,0,6.01c41.504,41.504,96.687,64.361,155.382,64.361
		s113.877-22.857,155.381-64.361c1.66-1.659,1.66-4.35,0-6.01C400.957,394.947,398.267,394.948,396.606,396.607z"/>
	<path d="M403.552,141.947c-0.71-1.052-1.853-1.731-3.116-1.853c-1.263-0.119-2.514,0.328-3.412,1.226L141.32,397.024
		c-0.897,0.896-1.347,2.148-1.225,3.411c0.121,1.264,0.801,2.406,1.853,3.116c31.936,21.561,68.595,32.102,105.089,32.102
		c48.679,0,97.054-18.767,133.452-55.165C444.173,316.805,453.873,216.483,403.552,141.947z M311.116,307.267
		C311.116,307.267,311.116,307.267,311.116,307.267c-2.348,0-4.25,1.902-4.251,4.249l-0.028,105.479
		c-2.833,0.992-5.69,1.904-8.563,2.752l0.007-125.315c0-2.347-1.902-4.25-4.25-4.25c-2.347,0-4.25,1.902-4.25,4.25l-0.007,127.602
		c-2.18,0.529-4.37,1.015-6.566,1.463l5.953-162.293l26.243-26.243l6.221,176.104c-2.081,0.942-4.177,1.842-6.287,2.702
		l0.027-102.25C315.366,309.171,313.463,307.267,311.116,307.267z M174.525,375.84l8.565-8.565l0.015,48.133
		c-2.877-1.096-5.734-2.265-8.566-3.517L174.525,375.84z M166.038,407.858c-1.889-0.956-3.766-1.945-5.629-2.974l0.48-15.408
		l5.139-5.14L166.038,407.858z M191.587,358.777l4.126-4.126l2.217,65.674c-2.116-0.6-4.225-1.241-6.324-1.921L191.587,358.777z
		 M206.51,422.534l-2.568-76.11l76.391-76.391l-5.686,155.002C252.1,428.512,228.95,427.718,206.51,422.534z M374.478,374.478
		c-13.353,13.353-28.395,24.211-44.49,32.532l-6.368-180.265l75.717-75.718C444.158,221.713,434.065,314.892,374.478,374.478z"/>
	<path d="M422.058,72.415C375.361,25.718,313.275,0,247.236,0C181.197,0,119.111,25.718,72.414,72.415
		C25.717,119.111,0,181.197,0,247.236c0,66.038,25.717,128.125,72.413,174.821c46.697,46.697,108.783,72.414,174.822,72.414
		c66.039,0,128.125-25.717,174.822-72.414c46.697-46.696,72.414-108.783,72.414-174.822
		C494.471,181.197,468.754,119.111,422.058,72.415z M416.047,416.048c-93.082,93.083-244.539,93.082-337.622,0
		c-93.083-93.084-93.083-244.54,0-337.623C123.516,33.334,183.468,8.5,247.236,8.5c63.769,0,123.72,24.834,168.811,69.925
		c45.091,45.091,69.924,105.042,69.924,168.811S461.139,370.956,416.047,416.048z"/>
	<path d="M352.459,95.286c-4.993-12.466-22.221-53.607-49.756-53.607c-10.76,0-21.498,6.561-31.191,18.812
		c-15.358-2.121-32.762-2.331-47.042-0.602V55.69c0-2.348-1.903-4.25-4.25-4.25h-14.97c-2.347,0-4.25,1.902-4.25,4.25v8.533
		c-3.154,0.802-6.23,1.71-9.217,2.668V55.69c0-2.348-1.903-4.25-4.25-4.25h-17.717c-2.347,0-4.25,1.902-4.25,4.25V77.14
		c-3.186,1.531-6.249,3.106-9.216,4.741V55.69c0-2.348-1.903-4.25-4.25-4.25h-14.427c-2.347,0-4.25,1.902-4.25,4.25v41.05
		c-6.807,5.187-13.545,11.063-19.583,17.101c-63.684,63.684-73.384,164.005-23.063,238.541c0.71,1.051,1.851,1.729,3.112,1.853
		c0.137,0.013,0.274,0.02,0.411,0.02c1.119,0,2.199-0.441,2.999-1.239c0,0,190.524-189.754,254.181-253.227
		C353.094,98.178,352.888,96.355,352.459,95.286z M178.946,192.554c3.859,0,7.605-0.486,11.186-1.395l1.882,55.497l-27.15,27.048
		l2.889-82.547C171.335,192.066,175.085,192.554,178.946,192.554z M302.703,50.179c16.887,0,32.27,23.973,40.812,45.545
		l-65.291,65.046c-6.723-6.999-10.938-16.671-10.938-25.528c0-2.348-1.903-4.25-4.25-4.25c-2.347,0-4.25,1.902-4.25,4.25
		c0,11.192,5.067,22.923,13.416,31.527l-4.199,4.184c-9.285-9.884-15.147-23.511-15.147-35.711c0-14.783,6.171-36.436,15.355-53.88
		C278.645,61.545,291.217,50.179,302.703,50.179z M265.94,68.354c-1.799,2.812-3.552,5.824-5.249,9.048
		c-9.77,18.556-16.334,41.8-16.334,57.84c0,14.572,6.678,30.195,17.621,41.715l-61.736,61.504l-1.708-50.343
		c15.325-7.336,25.936-22.994,25.936-41.088v-78.58C236.895,66.838,252.035,66.81,265.94,68.354z M200.999,73.001v69.778h-9.217
		v-66.95C194.835,74.815,197.889,73.853,200.999,73.001z M165.566,86.617v56.162h-9.216v-51.12
		C159.326,89.908,162.385,88.234,165.566,86.617z M141.923,59.94h5.927v87.089c0,2.348,1.903,4.25,4.25,4.25h17.716
		c2.347,0,4.25-1.902,4.25-4.25V59.94h9.217v87.089c0,2.348,1.903,4.25,4.25,4.25h17.717c2.347,0,4.25-1.902,4.25-4.25V59.94h6.47
		v87.089c0,20.415-16.609,37.024-37.023,37.024c-20.415,0-37.023-16.609-37.023-37.024V59.94z M119.851,119.851
		c4.242-4.242,8.848-8.397,13.572-12.274v39.453c0,18.092,10.609,33.749,25.931,41.086l-3.302,94.369L94.997,343.31
		C50.167,272.623,60.259,179.441,119.851,119.851z"/>
	<path d="M178.946,181.544c2.347,0,4.25-1.902,4.25-4.25s-1.903-4.25-4.25-4.25c-11.218,0-21.138-7.145-24.685-17.779
		c-0.743-2.226-3.152-3.433-5.376-2.687c-2.227,0.742-3.43,3.149-2.687,5.376C150.904,172.063,164.065,181.544,178.946,181.544z"/>
</g>
<g>
</g>
<g>
</g>
<g>
</g>
<g>
</g>
<g>
</g>
<g>
</g>
<g>
</g>
<g>
</g>
<g>
</g>
<g>
</g>
<g>
</g>
<g>
</g>
<g>
</g>
<g>
</g>
<g>
</g>
</svg>
