<?xml version="1.0" encoding="iso-8859-1"?>
<!-- Generator: Adobe Illustrator 18.0.0, SVG Export Plug-In . SVG Version: 6.00 Build 0)  -->
<!DOCTYPE svg PUBLIC "-//W3C//DTD SVG 1.1//EN" "http://www.w3.org/Graphics/SVG/1.1/DTD/svg11.dtd">
<svg version="1.1" id="Capa_1" xmlns="http://www.w3.org/2000/svg" xmlns:xlink="http://www.w3.org/1999/xlink" x="0px" y="0px"
	 viewBox="0 0 489.493 489.493" style="enable-background:new 0 0 489.493 489.493;" xml:space="preserve">
<g>
	<path d="M245.412,151.644c2.348,0,4.25-1.903,4.25-4.25V71.76c0-2.347-1.902-4.25-4.25-4.25c-2.348,0-4.25,1.903-4.25,4.25v75.635
		C241.162,149.741,243.064,151.644,245.412,151.644z"/>
	<path d="M186.981,159.864c0.678,1.637,2.26,2.624,3.928,2.624c0.542,0,1.093-0.104,1.625-0.325c2.169-0.898,3.198-3.384,2.3-5.553
		l-10.79-26.05c-0.898-2.168-3.385-3.2-5.553-2.3c-2.169,0.898-3.198,3.384-2.3,5.553L186.981,159.864z"/>
	<path d="M89.4,220.605c-2.169-0.899-4.655,0.13-5.553,2.3c-0.898,2.169,0.131,4.655,2.3,5.553l26.05,10.79
		c0.532,0.221,1.082,0.325,1.625,0.325c1.667,0,3.25-0.988,3.928-2.624c0.898-2.169-0.131-4.655-2.3-5.553L89.4,220.605z"/>
	<path d="M401.427,220.605l-26.052,10.791c-2.168,0.898-3.198,3.384-2.3,5.553c0.679,1.637,2.261,2.624,3.929,2.624
		c0.542,0,1.093-0.104,1.624-0.325l26.052-10.791c2.168-0.898,3.198-3.384,2.3-5.553
		C406.08,220.736,403.593,219.705,401.427,220.605z"/>
	<path d="M298.299,162.162c0.531,0.22,1.082,0.324,1.624,0.324c1.668,0,3.251-0.988,3.929-2.624l10.79-26.051
		c0.898-2.168-0.132-4.655-2.301-5.553c-2.167-0.899-4.655,0.131-5.553,2.3l-10.79,26.051
		C295.1,158.777,296.13,161.263,298.299,162.162z"/>
	<path d="M380.031,290.706c0,2.347,1.902,4.25,4.25,4.25h69.968c2.348,0,4.25-1.903,4.25-4.25c0-2.347-1.902-4.25-4.25-4.25h-69.968
		C381.934,286.456,380.031,288.359,380.031,290.706z"/>
	<path d="M35.244,294.955h69.967c2.347,0,4.25-1.903,4.25-4.25s-1.903-4.25-4.25-4.25H35.244c-2.347,0-4.25,1.903-4.25,4.25
		S32.896,294.955,35.244,294.955z"/>
	<path d="M345.931,193.834c1.088,0,2.176-0.415,3.005-1.245l54.455-54.455c1.66-1.66,1.66-4.351,0-6.011
		c-1.658-1.659-4.352-1.659-6.01,0l-54.455,54.455c-1.66,1.66-1.66,4.351,0,6.011C343.755,193.419,344.843,193.834,345.931,193.834z
		"/>
	<path d="M142.606,194.931c0.813,0.737,1.834,1.1,2.852,1.1c1.159,0,2.313-0.471,3.151-1.397c1.576-1.74,1.443-4.427-0.297-6.003
		l-60.124-54.456c-1.74-1.577-4.428-1.443-6.003,0.297c-1.576,1.74-1.443,4.427,0.297,6.003L142.606,194.931z"/>
	<path d="M4.25,316.028h480.993c2.348,0,4.25-1.903,4.25-4.25c0-2.347-1.902-4.25-4.25-4.25h-128.82
		c1.381-7.137,2.09-14.428,2.09-21.737c0-62.731-51.035-113.767-113.767-113.767c-62.731,0-113.766,51.036-113.766,113.767
		c0,7.31,0.708,14.601,2.089,21.737H4.25c-2.347,0-4.25,1.903-4.25,4.25C0,314.125,1.903,316.028,4.25,316.028z M165.663,285.791
		c0-43.606,35.476-79.083,79.083-79.083c43.606,0,79.083,35.477,79.083,79.083c0,7.39-1.031,14.689-3.042,21.737h-8.205
		c1.81-7.08,2.74-14.369,2.74-21.737c0-2.347-1.902-4.25-4.25-4.25c-2.348,0-4.25,1.903-4.25,4.25c0,7.39-1.031,14.689-3.042,21.737
		H168.706C166.694,300.479,165.663,293.179,165.663,285.791z M139.48,285.791c0-58.044,47.222-105.267,105.266-105.267
		c58.044,0,105.267,47.223,105.267,105.267c0,7.32-0.764,14.62-2.258,21.737h-18.166c1.81-7.08,2.74-14.369,2.74-21.737
		c0-48.293-39.29-87.583-87.583-87.583c-48.293,0-87.583,39.29-87.583,87.583c0,7.367,0.931,14.656,2.741,21.737h-18.167
		C140.244,300.411,139.48,293.111,139.48,285.791z"/>
	<path d="M485.243,334.862H4.25c-2.347,0-4.25,1.903-4.25,4.25c0,2.347,1.903,4.25,4.25,4.25h480.993c2.348,0,4.25-1.903,4.25-4.25
		C489.493,336.764,487.591,334.862,485.243,334.862z"/>
	<path d="M437.732,382.113H297.722c-2.348,0-4.25,1.903-4.25,4.25s1.902,4.25,4.25,4.25h140.011c2.348,0,4.25-1.903,4.25-4.25
		S440.08,382.113,437.732,382.113z"/>
	<path d="M222.041,382.113H97.168c-2.347,0-4.25,1.903-4.25,4.25s1.903,4.25,4.25,4.25h124.874c2.347,0,4.25-1.903,4.25-4.25
		S224.389,382.113,222.041,382.113z"/>
	<path d="M136.9,405.916H17.703c-2.347,0-4.25,1.903-4.25,4.25c0,2.347,1.903,4.25,4.25,4.25H136.9c2.347,0,4.25-1.903,4.25-4.25
		C141.15,407.819,139.247,405.916,136.9,405.916z"/>
	<path d="M309.073,413.484h-71.895c-2.347,0-4.25,1.903-4.25,4.25s1.903,4.25,4.25,4.25h71.895c2.348,0,4.25-1.903,4.25-4.25
		S311.421,413.484,309.073,413.484z"/>
	<path d="M244.746,219.24c-36.696,0-66.55,29.854-66.55,66.55c0,2.347,1.903,4.25,4.25,4.25c2.347,0,4.25-1.903,4.25-4.25
		c0-32.009,26.041-58.05,58.05-58.05c2.348,0,4.25-1.903,4.25-4.25C248.996,221.143,247.094,219.24,244.746,219.24z"/>
</g>
<g>
</g>
<g>
</g>
<g>
</g>
<g>
</g>
<g>
</g>
<g>
</g>
<g>
</g>
<g>
</g>
<g>
</g>
<g>
</g>
<g>
</g>
<g>
</g>
<g>
</g>
<g>
</g>
<g>
</g>
</svg>
