<?xml version="1.0" encoding="iso-8859-1"?>
<!-- Generator: Adobe Illustrator 18.0.0, SVG Export Plug-In . SVG Version: 6.00 Build 0)  -->
<!DOCTYPE svg PUBLIC "-//W3C//DTD SVG 1.1//EN" "http://www.w3.org/Graphics/SVG/1.1/DTD/svg11.dtd">
<svg version="1.1" id="Capa_1" xmlns="http://www.w3.org/2000/svg" xmlns:xlink="http://www.w3.org/1999/xlink" x="0px" y="0px"
	 viewBox="0 0 480.937 480.937" style="enable-background:new 0 0 480.937 480.937;" xml:space="preserve">
<g>
	<path d="M240.06,216.85c37.501,0,68.01-30.509,68.01-68.01S277.561,80.83,240.06,80.83c-37.501,0-68.01,30.51-68.01,68.011
		S202.559,216.85,240.06,216.85z M181.273,139.583h43.516c2.348,0,4.25-1.902,4.25-4.25c0-2.348-1.902-4.25-4.25-4.25h-41.532
		c1.742-5.56,4.277-10.771,7.476-15.5h13.057c2.348,0,4.25-1.902,4.25-4.25c0-2.348-1.902-4.25-4.25-4.25h-6.078
		c10.798-10.95,25.792-17.753,42.349-17.753c32.814,0,59.51,26.696,59.51,59.511c0,8.632-1.862,16.832-5.183,24.242h-36.598
		c-2.348,0-4.25,1.902-4.25,4.25c0,2.348,1.902,4.25,4.25,4.25h31.929c-2.537,3.834-5.508,7.355-8.838,10.5h-24.091
		c-2.348,0-4.25,1.902-4.25,4.25c0,2.348,1.902,4.25,4.25,4.25H269.4c-8.666,4.934-18.676,7.768-29.341,7.768
		c-32.813,0-59.51-26.696-59.51-59.51C180.55,145.692,180.801,142.6,181.273,139.583z"/>
	<path d="M147.241,275.613c0.483-1.018,0.543-2.186,0.165-3.248l-42.76-120.137c-0.787-2.211-3.219-3.37-5.429-2.579
		c-17.114,6.091-30.832,18.482-38.627,34.892c-7.794,16.409-8.732,34.871-2.641,51.985c9.627,27.049,35.376,45.223,64.073,45.223
		c7.759,0,15.431-1.331,22.804-3.955C145.89,277.416,146.758,276.632,147.241,275.613z M122.023,273.249
		c-25.109,0-47.641-15.903-56.065-39.572c-1.527-4.291-2.532-8.68-3.053-13.094h21.884c2.348,0,4.25-1.902,4.25-4.25
		c0-2.348-1.902-4.25-4.25-4.25H62.521c0.161-5.923,1.217-11.81,3.161-17.5h11.107c2.348,0,4.25-1.902,4.25-4.25
		c0-2.348-1.902-4.25-4.25-4.25h-7.463c6.309-12.055,16.371-21.436,28.787-26.861l39.809,111.85
		C132.73,272.517,127.399,273.249,122.023,273.249z"/>
	<path d="M110.769,383.188c-6.292,4.009-13.245,6.681-20.666,7.94c-3.118,0.529-6.288,0.798-9.423,0.798
		c-27.307,0-50.448-19.574-55.024-46.543c-2.533-14.923,0.975-29.897,9.876-42.166c1.199-1.652,1.054-3.923-0.345-5.409
		c-1.398-1.484-3.655-1.77-5.379-0.671c-21.895,13.95-33.234,39.502-28.892,65.096c5.274,31.07,31.94,53.621,63.406,53.621
		c3.609,0,7.258-0.309,10.844-0.917c16.694-2.833,31.371-11.949,41.326-25.669c1.199-1.652,1.054-3.923-0.345-5.409
		C114.748,382.375,112.492,382.09,110.769,383.188z M73.744,406.556c-3.118,0.529-6.288,0.798-9.422,0.798
		c-27.307,0-50.448-19.574-55.025-46.543c-2.502-14.742,0.989-29.467,9.177-41.245c-2.327,8.77-2.765,18.013-1.199,27.239
		c5.273,31.07,31.938,53.621,63.405,53.621c3.61,0,7.259-0.309,10.846-0.917c0.699-0.119,1.395-0.249,2.087-0.39
		C87.603,402.807,80.886,405.344,73.744,406.556z"/>
	<path d="M336.11,277.794c7.372,2.624,15.045,3.955,22.803,3.955c0.002,0-0.001,0,0.001,0c28.695,0,54.446-18.175,64.073-45.223
		c12.574-35.331-5.939-74.304-41.268-86.877c-2.211-0.791-4.643,0.368-5.429,2.579l-42.76,120.137
		c-0.378,1.062-0.318,2.23,0.165,3.248C334.18,276.632,335.048,277.416,336.11,277.794z M382.823,159.223
		c18.91,8.279,31.582,25.517,34.791,44.859h-20.825c-2.348,0-4.25,1.902-4.25,4.25c0,2.348,1.902,4.25,4.25,4.25H418.4
		c0.142,6.993-0.941,14.123-3.421,21.094c-8.425,23.669-30.956,39.572-56.066,39.572c-5.376,0-10.707-0.731-15.899-2.178
		l3.733-10.488h11.041c2.348,0,4.25-1.902,4.25-4.25c0-2.348-1.902-4.25-4.25-4.25h-8.016L382.823,159.223z"/>
	<path d="M451.13,297.137c-1.722-1.098-3.979-0.815-5.379,0.671c-1.398,1.486-1.544,3.757-0.345,5.409
		c8.9,12.267,12.408,27.242,9.876,42.166c-4.577,26.971-27.718,46.545-55.023,46.543c-3.137,0-6.307-0.269-9.423-0.798
		c-7.421-1.26-14.375-3.932-20.667-7.94c-1.725-1.1-3.98-0.814-5.379,0.671c-1.398,1.486-1.544,3.757-0.345,5.409
		c9.955,13.72,24.632,22.836,41.326,25.669c3.587,0.608,7.235,0.917,10.844,0.917c31.467-0.001,58.132-22.552,63.405-53.621
		C484.364,336.64,473.024,311.089,451.13,297.137z M471.64,360.811c-4.576,26.968-27.718,46.542-55.024,46.543
		c-3.134,0-6.304-0.269-9.422-0.798c-7.142-1.212-13.858-3.749-19.869-7.436c0.693,0.141,1.39,0.271,2.09,0.39
		c3.584,0.608,7.233,0.917,10.844,0.917c0.002,0,0.003,0,0.005,0c31.464,0,58.127-22.551,63.4-53.621
		c1.565-9.228,1.127-18.471-1.199-27.24C470.65,331.344,474.143,346.069,471.64,360.811z"/>
	<path d="M368.039,336.333c0-2.348-1.902-4.25-4.25-4.25h-139c-2.348,0-4.25,1.902-4.25,4.25c0,2.348,1.902,4.25,4.25,4.25h139
		C366.137,340.583,368.039,338.68,368.039,336.333z"/>
	<path d="M195.039,336.333c0-2.348-1.902-4.25-4.25-4.25h-55c-2.348,0-4.25,1.902-4.25,4.25c0,2.348,1.902,4.25,4.25,4.25h55
		C193.137,340.583,195.039,338.68,195.039,336.333z"/>
	<path d="M229.789,288.083c-2.348,0-4.25,1.902-4.25,4.25c0,2.348,1.902,4.25,4.25,4.25h32c2.348,0,4.25-1.902,4.25-4.25
		c0-2.348-1.902-4.25-4.25-4.25H229.789z"/>
	<path d="M28.789,77.583h72c2.348,0,4.25-1.902,4.25-4.25c0-2.348-1.902-4.25-4.25-4.25h-72c-2.348,0-4.25,1.902-4.25,4.25
		C24.539,75.68,26.441,77.583,28.789,77.583z"/>
	<path d="M123.789,77.583h17c2.348,0,4.25-1.902,4.25-4.25c0-2.348-1.902-4.25-4.25-4.25h-17c-2.348,0-4.25,1.902-4.25,4.25
		C119.539,75.68,121.441,77.583,123.789,77.583z"/>
	<path d="M356.789,100.583h50c2.348,0,4.25-1.902,4.25-4.25c0-2.348-1.902-4.25-4.25-4.25h-50c-2.348,0-4.25,1.902-4.25,4.25
		C352.539,98.68,354.441,100.583,356.789,100.583z"/>
	<path d="M427.539,96.333c0,2.348,1.902,4.25,4.25,4.25h13c2.348,0,4.25-1.902,4.25-4.25c0-2.348-1.902-4.25-4.25-4.25h-13
		C429.441,92.083,427.539,93.985,427.539,96.333z"/>
	<path d="M379.789,73.583h46c2.348,0,4.25-1.902,4.25-4.25c0-2.348-1.902-4.25-4.25-4.25h-46c-2.348,0-4.25,1.902-4.25,4.25
		C375.539,71.68,377.441,73.583,379.789,73.583z"/>
	<path d="M269.789,371.083h-37c-2.348,0-4.25,1.902-4.25,4.25c0,2.348,1.902,4.25,4.25,4.25h37c2.348,0,4.25-1.902,4.25-4.25
		C274.039,372.985,272.137,371.083,269.789,371.083z"/>
	<path d="M204.789,371.083h-19c-2.348,0-4.25,1.902-4.25,4.25c0,2.348,1.902,4.25,4.25,4.25h19c2.348,0,4.25-1.902,4.25-4.25
		C209.039,372.985,207.137,371.083,204.789,371.083z"/>
</g>
<g>
</g>
<g>
</g>
<g>
</g>
<g>
</g>
<g>
</g>
<g>
</g>
<g>
</g>
<g>
</g>
<g>
</g>
<g>
</g>
<g>
</g>
<g>
</g>
<g>
</g>
<g>
</g>
<g>
</g>
</svg>
