<?xml version="1.0" encoding="iso-8859-1"?>
<!-- Generator: Adobe Illustrator 18.0.0, SVG Export Plug-In . SVG Version: 6.00 Build 0)  -->
<!DOCTYPE svg PUBLIC "-//W3C//DTD SVG 1.1//EN" "http://www.w3.org/Graphics/SVG/1.1/DTD/svg11.dtd">
<svg version="1.1" id="Capa_1" xmlns="http://www.w3.org/2000/svg" xmlns:xlink="http://www.w3.org/1999/xlink" x="0px" y="0px"
	 viewBox="0 0 490.912 490.912" style="enable-background:new 0 0 490.912 490.912;" xml:space="preserve">
<g>
	<path d="M47.453,157.578c-2.348,0-4.25,1.903-4.25,4.25v87.741c0,2.347,1.902,4.25,4.25,4.25c2.348,0,4.25-1.903,4.25-4.25v-87.741
		C51.703,159.48,49.801,157.578,47.453,157.578z"/>
	<path d="M490.912,256.275c0-2.347-1.902-4.25-4.25-4.25h-3.93c-1.826-26.905-22.483-49.673-48.254-53.126
		c-2.665-20.228-11.345-32.965-26.433-38.792c0.174-5.23-0.148-10.226-1.048-14.867l14.647-14.664
		c4.081,2.869,8.936,4.415,14.027,4.415c6.532,0,12.674-2.544,17.292-7.162c4.62-4.62,7.165-10.761,7.165-17.294
		c0-6.533-2.545-12.675-7.164-17.294c-4.445-4.446-10.361-6.956-16.515-7.15c-0.194-6.152-2.704-12.07-7.15-16.517
		c-9.536-9.533-25.053-9.531-34.589,0.001c-8.51,8.512-9.424,21.787-2.742,31.321l-14.842,14.839
		c-12.92-2.296-29.511-0.275-48.764,6.132c-4.974,1.655-9.99,3.569-14.949,5.679c-28.621,0.151-59.78,11.783-77.004,28.606
		c-2.901-0.496-5.839-0.747-8.761-0.747c-7.538,0-14.701,1.592-21.173,4.458l6.82-136.032c0.058-1.163-0.363-2.298-1.166-3.142
		c-0.802-0.843-1.915-1.321-3.079-1.321L16.029,19.369c-1.164,0-2.277,0.477-3.079,1.321c-0.803,0.843-1.224,1.979-1.166,3.141
		l15.585,312.376c-5.984-1.336-11.694-0.588-16.64,2.297c-15.259,8.907-14.188,31.668,2.865,60.886
		c2.692,4.612,6.358,10.067,10.028,14.973c-1.033,0.731-2.021,1.487-2.944,2.276c-7.781,6.651-11.482,15.138-10.422,23.896
		c1.18,9.747,8.576,21.365,37.114,21.365c5.316,0,11.295-0.397,17.771-1.181c16.651-2.015,32.045-6.607,43.345-12.929
		c12.41-6.942,18.69-15.405,17.696-23.831h63.096c2.264,0,4.13-1.774,4.244-4.035l0.758-14.969
		c9.856,7.378,20.472,13.791,31.699,19.119v31.593c0,8.754,7.122,15.876,15.876,15.876h126.87c8.755,0,15.878-7.123,15.878-15.878
		v-31.593C447.389,394.277,490.912,330.267,490.912,256.275z M426.409,203.188c0.196,2.081,1.877,3.71,3.964,3.842
		c23.025,1.453,41.962,21.265,43.839,44.995H370.563c16.285-19.523,32.992-53.624,36.749-82.988
		C418.748,174.42,424.709,185.179,426.409,203.188z M400.725,104.163c0.797-0.797,1.245-1.878,1.245-3.005
		c0-1.128-0.448-2.208-1.245-3.005c-6.222-6.221-6.223-16.344-0.002-22.566c6.223-6.221,16.348-6.219,22.568-0.001
		c3.745,3.746,5.384,9.094,4.384,14.307c-0.266,1.384,0.172,2.809,1.168,3.806c0.997,0.996,2.419,1.437,3.806,1.169
		c5.213-0.997,10.564,0.64,14.307,4.386c3.015,3.014,4.675,7.021,4.675,11.283c0,4.262-1.66,8.269-4.676,11.283
		c-3.013,3.013-7.02,4.673-11.281,4.673c-4.262,0-8.268-1.66-11.281-4.673c-0.798-0.797-1.879-1.245-3.006-1.245h-0.001
		c-1.128,0-2.209,0.449-3.006,1.247l-14.172,14.188c-1.723-3.993-4.051-7.567-7.079-10.595c-2.949-2.95-6.525-5.278-10.658-6.998
		L400.725,104.163z M331.048,129.932c27.935-9.294,49.828-8.75,60.07,1.491c10.845,10.844,10.37,31.638,4.267,53.436h-42.553
		c-2.348,0-4.25,1.903-4.25,4.25s1.902,4.25,4.25,4.25h39.912c-7.945,23.311-21.432,46.447-33.615,58.632
		c-0.011,0.011-0.018,0.023-0.028,0.034h-91.784c-0.174-0.287-0.373-0.562-0.62-0.809c-23.949-23.952-23.263-60.76,1.596-85.62
		C281.337,152.552,307.143,137.886,331.048,129.932z M236.932,164.91c1.453,0.318,2.966-0.148,3.987-1.227
		c11.035-11.625,30.246-20.932,50.322-25.165c-11.647,6.634-21.876,13.983-28.959,21.067c-26.55,26.55-28.78,65.161-6.315,92.44
		H136.715c1.837-23.724,20.751-43.543,43.752-44.995c2.086-0.132,3.767-1.761,3.964-3.842c2.114-22.395,20.695-39.283,43.22-39.283
		C230.75,163.905,233.873,164.243,236.932,164.91z M20.936,395.106c-14.156-24.254-16.425-43.129-5.921-49.261
		c4.849-2.831,10.941-2.31,17.617,1.503c8.219,4.694,16.54,13.99,24.066,26.885c2.104,3.602,4.053,7.329,5.826,11.115
		c-9.808,6.574-18.74,14.365-25.321,22.138c-2.177,0.783-4.238,1.642-6.184,2.574C27.346,405.214,23.622,399.708,20.936,395.106z
		 M115.029,409.614c-8.869-5.058-22.497-7.971-39.192-7.971c-5.771,0-11.73,0.367-17.711,1.09c-1.757,0.212-3.468,0.465-5.146,0.745
		c6.218-5.59,13.463-10.884,21.03-15.3c13.552-7.91,27.488-13.169,39.241-14.809c10.167-1.421,17.644,0.151,20.008,4.201
		C136.456,383.047,131.128,395.634,115.029,409.614z M104.336,440.373c-10.355,5.793-24.638,10.022-40.216,11.908
		c-6.138,0.743-11.772,1.119-16.749,1.119c-17.913,0-27.561-4.672-28.676-13.886c-0.707-5.842,1.958-11.67,7.506-16.413
		c7.081-6.053,18.474-10.178,32.946-11.929c5.643-0.683,11.258-1.029,16.689-1.029c26.056,0,41.037,7.622,41.904,14.793
		C118.304,429.591,113.293,435.362,104.336,440.373z M185.238,415.459h-62.907c-0.151-0.179-0.306-0.358-0.465-0.534
		c17.562-15.662,24.727-31.374,18.734-41.64c-4.285-7.344-14.416-10.306-28.524-8.335c-12.809,1.788-27.828,7.418-42.298,15.857
		c-1.765-3.696-3.682-7.335-5.739-10.858c-8.277-14.181-17.68-24.548-27.191-29.981c-0.268-0.152-0.533-0.287-0.801-0.432
		l-11-220.474h82.929c2.348,0,4.25-1.903,4.25-4.25c0-2.347-1.902-4.25-4.25-4.25H24.623l-4.126-82.693l184.087-0.001l-1.883,37.552
		l-154.605,0c-2.348,0-4.25,1.903-4.25,4.25c0,2.347,1.902,4.25,4.25,4.25l154.179,0l-4.558,90.89
		c-11.107,7.799-19.007,19.881-21.303,34.082c-25.772,3.43-46.433,26.217-48.22,53.133h-4.275c-2.348,0-4.25,1.903-4.25,4.25
		c0,57.016,25.847,108.1,66.43,142.177L185.238,415.459z M376.104,455.666c0,4.068-3.31,7.378-7.378,7.378h-126.87
		c-3.574,0-6.561-2.556-7.232-5.936h38.115c2.348,0,4.25-1.903,4.25-4.25c0-2.347-1.902-4.25-4.25-4.25H234.48v-20.76
		c21.833,9.044,45.746,14.048,70.81,14.048c25.065,0,48.98-5.005,70.814-14.05V455.666z M305.289,433.396
		c-44.625,0-85.441-16.596-116.62-43.929h79.675c2.348,0,4.25-1.903,4.25-4.25c0-2.347-1.902-4.25-4.25-4.25h-88.716
		c-16.786-16.915-30.189-37.187-39.104-59.711h37.128c2.348,0,4.25-1.903,4.25-4.25c0-2.347-1.902-4.25-4.25-4.25h-40.244
		c-1.461-4.33-2.765-8.731-3.892-13.203H290.82c2.348,0,4.25-1.903,4.25-4.25c0-2.347-1.902-4.25-4.25-4.25H131.599
		c-1.98-9.906-3.133-20.106-3.379-30.527h354.143c-0.246,10.421-1.399,20.622-3.379,30.527H402.67c-2.348,0-4.25,1.903-4.25,4.25
		c0,2.347,1.902,4.25,4.25,4.25h74.395c-2.216,8.793-5.1,17.322-8.578,25.54h-99.503c-2.348,0-4.25,1.903-4.25,4.25
		c0,2.347,1.902,4.25,4.25,4.25h95.634C435.856,392.621,375.25,433.396,305.289,433.396z"/>
	<path d="M177.277,227.866c0,2.347,1.902,4.25,4.25,4.25h23.255c2.348,0,4.25-1.903,4.25-4.25c0-2.347-1.902-4.25-4.25-4.25h-23.255
		C179.18,223.616,177.277,225.519,177.277,227.866z"/>
	<path d="M416.394,234.441h17.826c2.348,0,4.25-1.903,4.25-4.25c0-2.347-1.902-4.25-4.25-4.25h-17.826
		c-2.348,0-4.25,1.903-4.25,4.25C412.144,232.538,414.046,234.441,416.394,234.441z"/>
	<path d="M214.083,196.46h6.202c2.348,0,4.25-1.903,4.25-4.25s-1.902-4.25-4.25-4.25h-6.202c-2.348,0-4.25,1.903-4.25,4.25
		S211.735,196.46,214.083,196.46z"/>
</g>
<g>
</g>
<g>
</g>
<g>
</g>
<g>
</g>
<g>
</g>
<g>
</g>
<g>
</g>
<g>
</g>
<g>
</g>
<g>
</g>
<g>
</g>
<g>
</g>
<g>
</g>
<g>
</g>
<g>
</g>
</svg>
