<?xml version="1.0" encoding="iso-8859-1"?>
<!-- Generator: Adobe Illustrator 18.0.0, SVG Export Plug-In . SVG Version: 6.00 Build 0)  -->
<!DOCTYPE svg PUBLIC "-//W3C//DTD SVG 1.1//EN" "http://www.w3.org/Graphics/SVG/1.1/DTD/svg11.dtd">
<svg version="1.1" id="Capa_1" xmlns="http://www.w3.org/2000/svg" xmlns:xlink="http://www.w3.org/1999/xlink" x="0px" y="0px"
	 viewBox="0 0 493.995 493.995" style="enable-background:new 0 0 493.995 493.995;" xml:space="preserve">
<g>
	<path d="M490.35,219.922l-63.118-63.12c-2.343-2.342-5.454-3.635-8.764-3.648c-0.014-3.309-1.307-6.418-3.648-8.759l-63.118-63.12
		c-2.341-2.344-5.453-3.637-8.765-3.65c-0.013-3.309-1.305-6.419-3.647-8.762L276.173,5.747c-2.352-2.355-5.482-3.653-8.812-3.653
		c-3.331,0-6.462,1.298-8.816,3.653l-63.118,63.114c-2.354,2.354-3.65,5.483-3.651,8.813c0,0.073,0.009,0.144,0.011,0.217
		c-0.072-0.001-0.143-0.011-0.215-0.011c-3.33,0-6.46,1.297-8.816,3.652l-63.12,63.117c-2.483,2.485-3.688,5.768-3.632,9.03
		c-0.075-0.001-0.147-0.011-0.222-0.011c-3.33,0-6.46,1.297-8.814,3.651L43.85,220.438c-2.355,2.354-3.652,5.484-3.652,8.815
		c0,3.33,1.297,6.461,3.651,8.813l63.118,63.119c2.344,2.343,5.457,3.637,8.769,3.648c0.013,3.174,1.225,6.344,3.641,8.762
		l0.595,0.596c-6.283-3.189-12.252-6.551-18.114-10.195c-49.797-30.971-97.376-9.81-99.378-8.895
		c-1.121,0.513-1.964,1.488-2.31,2.671c-0.346,1.184-0.161,2.459,0.507,3.496l54.271,84.212c0.699,1.084,1.853,1.793,3.137,1.925
		c5.729,0.591,22.827,2.861,42.058,10.181c-2.744-0.022-5.557-0.079-8.464-0.181c-58.599-2.061-89.327,39.987-90.606,41.777
		c-0.717,1.004-0.962,2.269-0.673,3.468c0.289,1.198,1.084,2.212,2.18,2.778l88.999,45.999c0.611,0.316,1.28,0.475,1.951,0.475
		c0.588,0,1.177-0.122,1.728-0.367c13.211-5.877,43.059-12.76,66.433-13.636c69.835-2.618,96.648-17.666,103.178-22.173
		c0.647,0.102,1.304,0.169,1.973,0.169c3.329,0,6.458-1.296,8.814-3.65l63.117-63.119c2.355-2.353,3.652-5.483,3.653-8.813
		c0-0.073-0.009-0.146-0.011-0.219c0.073,0.001,0.144,0.011,0.216,0.011c3.329,0,6.459-1.296,8.815-3.651l63.116-63.118
		c2.354-2.353,3.651-5.482,3.651-8.811c0-0.072-0.009-0.143-0.01-0.215c0.072,0.001,0.143,0.011,0.215,0.011
		c3.329,0,6.459-1.296,8.814-3.651l63.12-63.119C495.21,232.69,495.209,224.783,490.35,219.922z M201.178,231.796
		c-0.748-0.748-1.161-1.744-1.161-2.804c0-1.059,0.412-2.054,1.161-2.803l63.119-63.116c0.75-0.749,1.746-1.162,2.805-1.162
		c1.059,0,2.054,0.412,2.802,1.16l38.574,38.574l-49.535,0.001c-2.347,0-4.25,1.903-4.25,4.25c0,2.348,1.903,4.25,4.25,4.25
		l58.035-0.001l16.045,16.045c0.749,0.749,1.161,1.745,1.161,2.804c0,1.059-0.412,2.054-1.162,2.803l-13.85,13.85h-31.229
		c-2.347,0-4.25,1.902-4.25,4.25c0,2.348,1.903,4.25,4.25,4.25h22.728l-40.77,40.77c-1.497,1.498-4.108,1.498-5.605,0
		L201.178,231.796z M135.126,317.324h23.253c2.347,0,4.25-1.902,4.25-4.25c0-2.348-1.903-4.25-4.25-4.25h-31.754l-1.237-1.237
		c-1.545-1.547-1.546-4.063,0-5.607l63.119-63.118c0.748-0.749,1.744-1.162,2.803-1.162c1.059,0,2.054,0.413,2.803,1.162
		l63.119,63.118c0.749,0.748,1.161,1.744,1.161,2.803c0,1.06-0.413,2.056-1.161,2.805l-13.237,13.237h-27.283
		c-2.347,0-4.25,1.902-4.25,4.25c0,2.348,1.903,4.25,4.25,4.25h18.783l-41.381,41.381c-1.497,1.498-4.111,1.497-5.607,0.001
		L135.126,317.324z M408.811,150.406c0.749,0.748,1.161,1.743,1.161,2.802c0,1.058-0.412,2.052-1.161,2.801l-8.461,8.462
		l-77.229-0.001c-2.347,0-4.25,1.903-4.25,4.25s1.903,4.25,4.25,4.25l68.729,0.001l-46.157,46.158
		c-1.498,1.498-4.107,1.497-5.606-0.001l-63.119-63.12c-1.545-1.544-1.544-4.061,0-5.606l28.432-28.431h33.722
		c2.347,0,4.25-1.902,4.25-4.25s-1.903-4.25-4.25-4.25h-25.221l26.188-26.187c0.749-0.749,1.744-1.161,2.803-1.161
		c1.058,0,2.053,0.412,2.801,1.161L408.811,150.406z M201.437,74.871l63.119-63.115c0.749-0.75,1.746-1.163,2.805-1.163
		c1.058,0,2.051,0.412,2.8,1.161l32.742,32.74l-27.757,0.001c-2.347,0-4.25,1.903-4.25,4.25c0,2.348,1.903,4.25,4.25,4.25
		l36.257-0.001l21.878,21.877c0.749,0.75,1.161,1.746,1.161,2.806c0,1.059-0.412,2.053-1.16,2.801l-63.118,63.118
		c-1.498,1.5-4.108,1.501-5.607,0.002l-8.602-8.603l16.192-0.001c2.347,0,4.25-1.903,4.25-4.25c0-2.348-1.903-4.25-4.25-4.25
		l-24.691,0.001l-21.501-21.501h28.192c2.347,0,4.25-1.902,4.25-4.25c0-2.348-1.903-4.25-4.25-4.25h-36.692l-16.018-16.019
		c-0.748-0.748-1.16-1.742-1.16-2.802C200.276,76.616,200.688,75.62,201.437,74.871z M125.647,150.659l9.487-9.486h19.412
		c2.347,0,4.25-1.902,4.25-4.25c0-2.348-1.903-4.25-4.25-4.25h-10.912l10.501-10.501h57.832c2.347,0,4.25-1.902,4.25-4.25
		c0-2.348-1.903-4.25-4.25-4.25h-49.332l26.13-26.129c0.749-0.75,1.746-1.162,2.805-1.162c1.058,0,2.052,0.412,2.801,1.161
		l63.12,63.121c0.749,0.747,1.161,1.742,1.161,2.801c-0.001,1.059-0.413,2.055-1.161,2.804l-63.115,63.118
		c-0.75,0.748-1.747,1.161-2.807,1.161c-1.06,0-2.056-0.412-2.803-1.159l-63.119-63.122
		C124.103,154.72,124.103,152.204,125.647,150.659z M49.858,232.054c-0.749-0.747-1.161-1.742-1.161-2.802
		c0-1.059,0.412-2.054,1.162-2.803l63.119-63.119c0.749-0.749,1.745-1.161,2.804-1.161c1.059,0,2.055,0.412,2.803,1.16
		l61.518,61.521l-30.681-0.001c-2.347,0-4.25,1.902-4.25,4.25c0,2.347,1.903,4.25,4.25,4.25l30.987,0.001l-61.822,61.823
		c-1.5,1.498-4.111,1.499-5.609,0.001L49.858,232.054z M22.598,319.59c18.206-2.682,43.413-1.679,69.103,14.298
		c0.699,0.435,1.474,0.642,2.241,0.642c1.42-0.001,2.808-0.712,3.613-2.007c1.24-1.993,0.629-4.613-1.364-5.853
		c-29.664-18.447-58.71-18.467-78.611-14.867l-6.903-10.711c12.706-4.224,49.461-13.036,86.694,10.123
		c12.242,7.611,24.901,14.023,39.786,20.159l45.342,45.343c0.414,0.414,0.86,0.783,1.319,1.13
		c-7.126,5.866-25.288,16.692-64.054,19.216C95.426,384.397,70.635,380.34,61,379.179L22.598,319.59z M161.372,469.405
		c-24.055,0.902-53.047,7.572-67.667,13.554L31.26,450.684c13.036-11.938,37.222-27.904,72.593-26.643
		c2.352,0.092,4.314-1.752,4.396-4.098c0.082-2.346-1.753-4.314-4.099-4.396c-40.435-1.436-67.407,17.935-80.894,31.001
		l-12.106-6.258c8.875-9.989,36.266-35.922,80.23-34.392c65.252,2.291,91.701-15.652,100.065-23.483
		c0.428,2.528,1.613,4.86,3.462,6.708l61.677,61.68C246.941,456.064,219.915,467.209,161.372,469.405z M332.762,383.114
		l-11.689,11.689l-29.193-0.001c-2.347,0-4.25,1.902-4.25,4.25c0,2.347,1.903,4.25,4.25,4.25l20.694,0.001l-42.929,42.931
		c-1.498,1.498-4.111,1.497-5.607,0.001L208.106,390.3l24.638,0.002c0.001,0,0.001,0,0.001,0c2.347,0,4.25-1.902,4.25-4.25
		c0-2.347-1.902-4.25-4.25-4.25l-32.697-0.002c-0.189-0.467-0.291-0.969-0.291-1.488c0-1.06,0.412-2.055,1.161-2.804l63.119-63.119
		c0.749-0.749,1.744-1.161,2.803-1.161c1.059,0,2.055,0.412,2.804,1.161l46.413,46.413H302.38c-2.347,0-4.25,1.902-4.25,4.25
		c0,2.347,1.903,4.25,4.25,4.25l22.179,0.001l8.204,8.204c0.749,0.75,1.162,1.745,1.162,2.805
		C333.924,381.37,333.512,382.365,332.762,383.114z M408.551,307.325l-7.302,7.302h-35.327c-2.347,0-4.25,1.902-4.25,4.25
		c0,2.348,1.903,4.25,4.25,4.25h26.827l-47.315,47.316c-1.499,1.5-4.11,1.499-5.608,0.001l-63.119-63.121
		c-0.748-0.747-1.16-1.741-1.16-2.8c0-1.06,0.412-2.055,1.161-2.804l20.593-20.593h60.622c2.347,0,4.25-1.902,4.25-4.25
		c0-2.348-1.903-4.25-4.25-4.25h-52.121l34.027-34.026c0.749-0.749,1.744-1.162,2.802-1.162c1.058,0,2.053,0.413,2.803,1.164
		l63.118,63.118c0.749,0.749,1.161,1.744,1.161,2.803S409.3,306.576,408.551,307.325z M484.34,231.539l-63.12,63.119
		c-1.498,1.498-4.107,1.498-5.605,0l-63.12-63.124c-0.748-0.747-1.16-1.741-1.16-2.799c0-1.059,0.413-2.055,1.162-2.804
		l63.117-63.118c0.75-0.749,1.746-1.162,2.806-1.162c1.059,0,2.055,0.413,2.804,1.161l49.634,49.636H410.1
		c-2.347,0-4.25,1.902-4.25,4.25c0,2.348,1.903,4.25,4.25,4.25h69.256l4.983,4.983C485.885,227.478,485.886,229.993,484.34,231.539z
		"/>
	<path d="M422.1,232.449h-33.001c-2.347,0-4.25,1.902-4.25,4.25c0,2.348,1.903,4.25,4.25,4.25H422.1c2.347,0,4.25-1.902,4.25-4.25
		C426.35,234.351,424.447,232.449,422.1,232.449z"/>
</g>
<g>
</g>
<g>
</g>
<g>
</g>
<g>
</g>
<g>
</g>
<g>
</g>
<g>
</g>
<g>
</g>
<g>
</g>
<g>
</g>
<g>
</g>
<g>
</g>
<g>
</g>
<g>
</g>
<g>
</g>
</svg>
