<?xml version="1.0" encoding="iso-8859-1"?>
<!-- Generator: Adobe Illustrator 18.0.0, SVG Export Plug-In . SVG Version: 6.00 Build 0)  -->
<!DOCTYPE svg PUBLIC "-//W3C//DTD SVG 1.1//EN" "http://www.w3.org/Graphics/SVG/1.1/DTD/svg11.dtd">
<svg version="1.1" id="Capa_1" xmlns="http://www.w3.org/2000/svg" xmlns:xlink="http://www.w3.org/1999/xlink" x="0px" y="0px"
	 viewBox="0 0 485.147 485.147" style="enable-background:new 0 0 485.147 485.147;" xml:space="preserve">
<g>
	<path d="M387.484,182.55v-70.808c0-7.763-6.316-14.078-14.079-14.078h-70.808l-50.069-50.069c-2.659-2.659-6.194-4.123-9.955-4.123
		c-3.76,0-7.295,1.464-9.955,4.123L182.55,97.664h-70.808c-7.763,0-14.079,6.315-14.079,14.078v70.808l-50.069,50.069
		c-2.659,2.659-4.124,6.195-4.124,9.955c0,3.76,1.465,7.296,4.124,9.955l50.069,50.068v70.808c0,7.763,6.315,14.079,14.079,14.079
		h70.808l50.069,50.069c2.659,2.659,6.194,4.123,9.955,4.123c3.76,0,7.295-1.464,9.955-4.123l50.068-50.069h70.808
		c7.763,0,14.079-6.316,14.079-14.079v-70.808l50.069-50.068c5.488-5.489,5.488-14.42,0-19.91L387.484,182.55z M431.542,246.518
		l-51.314,51.313c-0.797,0.797-1.245,1.878-1.245,3.005v9.898h-19.001c-2.347,0-4.25,1.903-4.25,4.25s1.903,4.25,4.25,4.25h19.001
		v16.998h-81.998c-2.347,0-4.25,1.903-4.25,4.25c0,2.347,1.903,4.25,4.25,4.25h81.998v28.672c0,3.076-2.503,5.579-5.579,5.579
		h-72.568c-1.128,0-2.208,0.448-3.005,1.245l-51.313,51.314c-1.054,1.054-2.455,1.634-3.945,1.634c-1.49,0-2.891-0.58-3.944-1.634
		l-51.313-51.314c-0.797-0.797-1.878-1.245-3.005-1.245h-72.568c-3.076,0-5.579-2.503-5.579-5.579v-22.672h39.33
		c2.347,0,4.25-1.903,4.25-4.25c0-2.347-1.903-4.25-4.25-4.25h-39.33v-41.397c0-1.127-0.448-2.208-1.245-3.005l-51.314-51.313
		c-1.053-1.053-1.634-2.454-1.634-3.944c0-1.49,0.58-2.891,1.634-3.945l7.89-7.89h55.499c2.347,0,4.25-1.903,4.25-4.25
		s-1.903-4.25-4.25-4.25H69.996l34.923-34.923c0.797-0.797,1.245-1.878,1.245-3.005v-18.068H215.99c2.347,0,4.25-1.903,4.25-4.25
		c0-2.347-1.903-4.25-4.25-4.25H106.164v-22.998h45.33c2.347,0,4.25-1.903,4.25-4.25c0-2.347-1.903-4.25-4.25-4.25h-45.33v-14.502
		c0-3.076,2.502-5.578,5.579-5.578h72.568c1.127,0,2.208-0.448,3.005-1.245l51.313-51.313c1.054-1.054,2.455-1.634,3.945-1.634
		c1.49,0,2.891,0.58,3.944,1.634l51.314,51.313c0.797,0.797,1.878,1.245,3.005,1.245h72.568c3.076,0,5.579,2.502,5.579,5.578v31.001
		h-26.501c-2.347,0-4.25,1.903-4.25,4.25c0,2.347,1.903,4.25,4.25,4.25h26.501v33.067c0,1.127,0.448,2.208,1.245,3.005
		l51.314,51.313C433.717,240.804,433.717,244.343,431.542,246.518z"/>
	<path d="M480.382,231.068l-61.517-61.517V82.553c0-8.972-7.299-16.271-16.271-16.271h-86.998L254.079,4.766
		C251.006,1.693,246.92,0,242.574,0s-8.432,1.693-11.505,4.766l-61.517,61.517H82.554c-8.972,0-16.271,7.299-16.271,16.271v86.999
		L4.766,231.068c-6.344,6.344-6.344,16.666,0,23.011l61.517,61.517v86.998c0,8.972,7.299,16.272,16.271,16.272h86.998l61.517,61.517
		c3.073,3.073,7.159,4.766,11.505,4.766s8.432-1.693,11.505-4.766l61.517-61.517h86.998c8.972,0,16.271-7.299,16.271-16.272v-86.998
		l61.517-61.517C486.726,247.735,486.726,237.413,480.382,231.068z M474.371,248.068l-62.762,62.762
		c-0.797,0.797-1.245,1.878-1.245,3.005v88.758c0,4.285-3.486,7.772-7.771,7.772h-88.758c-1.127,0-2.208,0.448-3.005,1.245
		l-62.762,62.762c-1.467,1.468-3.419,2.276-5.495,2.276s-4.027-0.809-5.495-2.276l-62.762-62.762
		c-0.797-0.797-1.878-1.245-3.005-1.245H82.554c-4.285,0-7.771-3.486-7.771-7.772v-88.758c0-1.127-0.448-2.208-1.245-3.005
		l-62.762-62.762c-3.03-3.03-3.03-7.96,0-10.989l62.762-62.762c0.797-0.797,1.245-1.878,1.245-3.005V82.553
		c0-4.285,3.486-7.771,7.771-7.771h88.758c1.127,0,2.208-0.448,3.005-1.245l62.762-62.762c1.467-1.468,3.419-2.276,5.495-2.276
		s4.027,0.809,5.495,2.276l62.762,62.762c0.797,0.797,1.878,1.245,3.005,1.245h88.758c4.285,0,7.771,3.486,7.771,7.771v88.759
		c0,1.127,0.448,2.208,1.245,3.005l62.762,62.762C477.401,240.109,477.401,245.039,474.371,248.068z"/>
</g>
<g>
</g>
<g>
</g>
<g>
</g>
<g>
</g>
<g>
</g>
<g>
</g>
<g>
</g>
<g>
</g>
<g>
</g>
<g>
</g>
<g>
</g>
<g>
</g>
<g>
</g>
<g>
</g>
<g>
</g>
</svg>
