<?xml version="1.0" encoding="iso-8859-1"?>
<!-- Generator: Adobe Illustrator 18.0.0, SVG Export Plug-In . SVG Version: 6.00 Build 0)  -->
<!DOCTYPE svg PUBLIC "-//W3C//DTD SVG 1.1//EN" "http://www.w3.org/Graphics/SVG/1.1/DTD/svg11.dtd">
<svg version="1.1" id="Capa_1" xmlns="http://www.w3.org/2000/svg" xmlns:xlink="http://www.w3.org/1999/xlink" x="0px" y="0px"
	 viewBox="0 0 492.094 492.094" style="enable-background:new 0 0 492.094 492.094;" xml:space="preserve">
<g>
	<path d="M486.917,400.538h-315.65V325.4c0.783,0.074,1.571,0.122,2.367,0.122c7.872,0,15.372-3.757,20.079-10.054l69.089-86.85
		l17.423-0.001c2.079-0.029,47.598-0.935,61.965-21.819c11.63,12.645,27.288,20.482,44.523,22.178
		c2.253,0.222,4.501,0.331,6.743,0.331c21.516-0.001,42.194-10.064,55.457-27.248l33.487-8.807
		c6.932-1.824,11.088-8.948,9.265-15.879l-22.258-84.623c-1.501-5.708-6.668-9.695-12.565-9.695c-1.114,0-2.229,0.145-3.313,0.43
		l-37.372,9.829c-5.081-1.733-10.375-2.887-15.762-3.417c-23.764-2.338-45.951,7.582-60.293,24.585
		c-8.785-7.401-32.59-23.891-65.662-24.138c-34.033-0.253-136.135,0-136.135,0c-1.923,0-48.196,0.096-82.592,34.283
		c-23.601,23.457-35.567,57.014-35.567,99.74v176.169H4.25c-2.347,0-4.25,1.903-4.25,4.25s1.903,4.25,4.25,4.25h482.667
		c2.347,0,4.25-1.903,4.25-4.25S489.264,400.538,486.917,400.538z M187.019,310.229c-0.029,0.037-0.058,0.074-0.085,0.112
		c-3.154,4.246-8.002,6.682-13.3,6.682c-3.567,0-6.973-1.128-9.847-3.264l-11.129-8.265c-7.305-5.426-8.849-15.772-3.457-23.093
		l106.688-134.115c0.029-0.037,0.058-0.074,0.086-0.112c3.152-4.245,7.999-6.68,13.296-6.68c2.726,0,5.355,0.664,7.728,1.927
		l-55.415,70.064c-1.456,1.841-1.144,4.514,0.697,5.97c0.78,0.617,1.71,0.917,2.633,0.917c1.255,0,2.497-0.553,3.336-1.614
		l55.694-70.417l6.304,4.681c7.306,5.427,8.85,15.773,3.458,23.093L187.019,310.229z M171.267,241.007v-12.388h9.854
		L171.267,241.007z M432.145,97.9l8.416,30.516c0.52,1.885,2.23,3.121,4.095,3.121c0.374,0,0.754-0.05,1.132-0.154
		c2.263-0.624,3.591-2.964,2.967-5.227l-8.389-30.419l15.325-4.031c0.379-0.1,0.766-0.15,1.151-0.15c2.038,0,3.825,1.38,4.344,3.357
		l22.258,84.623c0.631,2.399-0.808,4.865-3.207,5.496l-30.939,8.137l-27.962-92.427L432.145,97.9z M399.563,98.358
		c4.432,0.436,8.792,1.348,12.991,2.71l29.165,96.401c-12.898,16.288-33.458,25.086-54.174,23.049
		c-16.315-1.605-31.029-9.468-41.431-22.14c-10.401-12.671-15.246-28.636-13.641-44.951
		C335.788,119.748,365.897,95.042,399.563,98.358z M274.635,98.837c28.123,0,52.891,16.191,60.377,22.5
		c-5.945,9.102-9.862,19.711-10.999,31.259c-1.661,16.88,2.761,33.421,12.467,47.128c-7.621,16.112-43.045,20.197-56.317,20.395
		h-10.601l30.842-38.771c0.029-0.037,0.058-0.074,0.086-0.112c8.233-11.085,5.912-26.803-5.175-35.039l-11.129-8.264
		c-4.352-3.231-9.51-4.939-14.917-4.939c-7.872,0-15.371,3.756-20.076,10.053l-61.311,77.072h-20.866c-2.347,0-4.25,1.903-4.25,4.25
		v27.323l-20.266,25.476c-0.029,0.037-0.058,0.075-0.086,0.112c-8.232,11.086-5.911,26.804,5.174,35.038l11.129,8.265
		c1.282,0.952,2.641,1.755,4.049,2.438v77.517h-7.6v-36.417c0-2.347-1.903-4.25-4.25-4.25c-2.347,0-4.25,1.903-4.25,4.25v36.417
		h-71.5v-36.417c0-2.347-1.903-4.25-4.25-4.25s-4.25,1.903-4.25,4.25v36.417h-13.5V287.455c0-2.347-1.903-4.25-4.25-4.25
		s-4.25,1.903-4.25,4.25v113.083H28.646V224.368c0-40.335,11.099-71.839,32.987-93.639c31.827-31.699,76.236-31.882,76.647-31.883
		C138.279,98.846,240.546,98.837,274.635,98.837z"/>
	<path d="M215.666,118.052h42.016c2.347,0,4.25-1.903,4.25-4.25c0-2.347-1.903-4.25-4.25-4.25h-42.016
		c-2.347,0-4.25,1.903-4.25,4.25C211.416,116.149,213.319,118.052,215.666,118.052z"/>
	<path d="M132.372,118.052h59.707c2.347,0,4.25-1.903,4.25-4.25c0-2.347-1.903-4.25-4.25-4.25h-59.707
		c-2.347,0-4.25,1.903-4.25,4.25C128.122,116.149,130.025,118.052,132.372,118.052z"/>
</g>
<g>
</g>
<g>
</g>
<g>
</g>
<g>
</g>
<g>
</g>
<g>
</g>
<g>
</g>
<g>
</g>
<g>
</g>
<g>
</g>
<g>
</g>
<g>
</g>
<g>
</g>
<g>
</g>
<g>
</g>
</svg>
