<?xml version="1.0" encoding="iso-8859-1"?>
<!-- Generator: Adobe Illustrator 18.0.0, SVG Export Plug-In . SVG Version: 6.00 Build 0)  -->
<!DOCTYPE svg PUBLIC "-//W3C//DTD SVG 1.1//EN" "http://www.w3.org/Graphics/SVG/1.1/DTD/svg11.dtd">
<svg version="1.1" id="Capa_1" xmlns="http://www.w3.org/2000/svg" xmlns:xlink="http://www.w3.org/1999/xlink" x="0px" y="0px"
	 viewBox="0 0 494.358 494.358" style="enable-background:new 0 0 494.358 494.358;" xml:space="preserve">
<g>
	<path d="M321.517,281.342c-6.602-0.22-12.685,2.099-17.127,6.541l-77.584,77.585h-37.242l21.596-19.613
		c9.414-8.551,9.969-24.532,1.188-34.199c-4.17-4.592-10.108-7.563-16.292-8.151c-6.453-0.617-12.561,1.316-17.193,5.444
		c-2.918,2.183-47.524,35.445-73.11,48.238c-31.016,15.507-53.17,38.306-65.847,67.762c-8.026,18.647-20.851,40.315-37.089,62.66
		c-1.38,1.899-0.959,4.557,0.941,5.936c0.754,0.548,1.628,0.813,2.494,0.813c1.314,0,2.61-0.608,3.442-1.752
		c16.839-23.173,29.63-44.806,38.02-64.296c11.862-27.564,32.668-48.935,61.84-63.52c27.01-13.505,72.634-47.706,74.563-49.155
		c0.105-0.079,0.207-0.163,0.305-0.252c2.858-2.595,6.716-3.806,10.83-3.416c4.103,0.391,8.04,2.36,10.805,5.405
		c5.737,6.316,5.452,16.686-0.61,22.192l-29.739,27.009c-1.3,1.181-1.74,3.04-1.107,4.678c0.633,1.638,2.209,2.718,3.965,2.718
		h50.004c1.127,0,2.208-0.448,3.005-1.245l78.829-78.831c2.758-2.76,6.599-4.196,10.827-4.056c4.188,0.143,8.24,1.874,11.116,4.75
		c0.046,0.045,0.085,0.091,0.13,0.137l-44.031,52.132c-1.515,1.793-1.288,4.475,0.505,5.989c0.798,0.674,1.772,1.003,2.74,1.003
		c1.208,0,2.408-0.512,3.249-1.508l41.754-49.435c0.711,5.082-1.5,10.148-4.076,14.114l-94.083,114.413
		c-2.877,2.806-6.671,4.326-10.766,4.258h-76.819c-1.83-0.075-19.02-0.413-32.649,12.173c-10.288,9.502-15.738,23.679-16.199,42.137
		c-0.059,2.347,1.797,4.296,4.144,4.354c2.325,0.065,4.296-1.796,4.354-4.143c0.399-16.023,4.904-28.145,13.389-36.031
		c11.41-10.604,26.495-10.004,26.634-9.998c0.077,0.004,0.154,0.006,0.231,0.006l76.854,0c6.405,0.118,12.442-2.352,16.975-6.883
		c0.098-0.097,0.19-0.2,0.277-0.306l94.37-114.762c0.096-0.116,0.186-0.237,0.269-0.363c7.966-12.107,7.502-24.554-1.24-33.298
		C333.972,284.194,327.835,281.557,321.517,281.342z"/>
	<path d="M111.455,376.776c-1.051-2.1-3.606-2.952-5.702-1.9c-22.906,11.453-39.271,28.3-48.643,50.074
		c-0.929,2.156,0.067,4.656,2.224,5.584c0.547,0.236,1.117,0.347,1.678,0.347c1.646,0,3.214-0.962,3.905-2.571
		c8.557-19.88,23.575-35.3,44.637-45.832C111.653,381.428,112.504,378.875,111.455,376.776z"/>
	<path d="M215.754,276.961c0,19.299,15.701,35,35,35c19.299,0,35-15.701,35-35c0-19.299-15.701-35.001-35-35.001
		C231.455,241.961,215.754,257.662,215.754,276.961z M276.52,270.789h-17.118c-2.348,0-4.25,1.903-4.25,4.25
		c0,2.347,1.902,4.25,4.25,4.25h17.743c-1.184,13.525-12.564,24.172-26.392,24.172c-9.48,0-17.809-5.007-22.492-12.512h7.923
		c2.348,0,4.25-1.903,4.25-4.25s-1.902-4.25-4.25-4.25h-11.355c-0.375-1.772-0.575-3.607-0.575-5.489
		c0-14.612,11.888-26.501,26.5-26.501C263.241,250.461,273.731,259.145,276.52,270.789z"/>
	<path d="M244.609,168.256c-16.649,0-30.195,13.546-30.195,30.195s13.546,30.196,30.195,30.196s30.195-13.546,30.195-30.196
		S261.258,168.256,244.609,168.256z M244.609,220.147c-4.951,0-9.517-1.67-13.172-4.473h4.523c2.348,0,4.25-1.903,4.25-4.25
		s-1.902-4.25-4.25-4.25h-11.21c-1.178-2.671-1.837-5.621-1.837-8.723c0-2.198,0.331-4.319,0.941-6.32h24.116
		c2.348,0,4.25-1.903,4.25-4.25c0-2.347-1.902-4.25-4.25-4.25h-19.186c3.962-4.227,9.588-6.876,15.824-6.876
		c11.963,0,21.695,9.733,21.695,21.695C266.304,210.415,256.572,220.147,244.609,220.147z"/>
	<path d="M219.754,427.88c2.348,0,4.25-1.903,4.25-4.25c0-2.347-1.902-4.25-4.25-4.25h-47.958c-2.348,0-4.25,1.903-4.25,4.25
		c0,2.347,1.902,4.25,4.25,4.25H219.754z"/>
	<path d="M146.019,427.88c2.348,0,4.25-1.903,4.25-4.25c0-2.347-1.902-4.25-4.25-4.25h-29.374c-2.348,0-4.25,1.903-4.25,4.25
		c0,2.347,1.902,4.25,4.25,4.25H146.019z"/>
	<path d="M490.6,0.812c-1.897-1.38-4.557-0.958-5.936,0.939c-16.84,23.174-29.632,44.806-38.021,64.296
		c-11.861,27.563-32.666,48.934-61.838,63.521c-27.011,13.505-72.635,47.706-74.564,49.155c-0.105,0.079-0.207,0.163-0.305,0.252
		c-5.889,5.349-15.798,4.439-21.636-1.988c-5.736-6.316-5.45-16.687,0.611-22.193l29.739-27.009c1.3-1.181,1.74-3.04,1.107-4.678
		c-0.633-1.638-2.209-2.718-3.965-2.718h-50.003c-1.127,0-2.208,0.448-3.005,1.245l-78.828,78.831
		c-5.66,5.659-15.916,5.335-21.944-0.694c-0.038-0.038-0.072-0.077-0.11-0.116l44.013-52.154c1.514-1.794,1.287-4.476-0.507-5.989
		c-1.794-1.514-4.476-1.287-5.989,0.507l-41.748,49.471c-0.727-5.095,1.488-10.175,4.071-14.15l94.082-114.414
		c2.879-2.806,6.722-4.318,10.767-4.259h76.818c1.84,0.074,19.02,0.413,32.649-12.173c10.288-9.502,15.738-23.679,16.199-42.137
		c0.059-2.347-1.797-4.296-4.144-4.354c-2.31-0.07-4.296,1.796-4.354,4.142c-0.399,16.023-4.903,28.145-13.389,36.03
		c-11.409,10.604-26.495,10.004-26.634,9.998c-0.077-0.004-0.154-0.006-0.231-0.006l-76.854,0
		c-6.389-0.106-12.443,2.353-16.975,6.884c-0.098,0.097-0.191,0.2-0.277,0.306l-94.369,114.762
		c-0.096,0.116-0.186,0.237-0.268,0.363c-7.968,12.106-7.504,24.554,1.239,33.298c4.826,4.826,11.277,7.257,17.634,7.256
		c6.016-0.001,11.947-2.178,16.331-6.562l77.584-77.586h37.241l-21.596,19.613c-9.413,8.55-9.969,24.531-1.189,34.2
		c8.886,9.782,24.168,11,33.485,2.708c2.908-2.176,47.529-35.447,73.112-48.238c31.016-15.508,53.169-38.307,65.845-67.763
		c8.025-18.646,20.851-40.313,37.09-62.659C492.921,4.85,492.5,2.192,490.6,0.812z"/>
	<path d="M274.604,66.477c-2.348,0-4.25,1.903-4.25,4.25c0,2.347,1.902,4.25,4.25,4.25h47.957c2.348,0,4.25-1.903,4.25-4.25
		c0-2.347-1.902-4.25-4.25-4.25H274.604z"/>
	<path d="M348.339,66.477c-2.348,0-4.25,1.903-4.25,4.25c0,2.347,1.902,4.25,4.25,4.25h29.373c2.348,0,4.25-1.903,4.25-4.25
		c0-2.347-1.902-4.25-4.25-4.25H348.339z"/>
</g>
<g>
</g>
<g>
</g>
<g>
</g>
<g>
</g>
<g>
</g>
<g>
</g>
<g>
</g>
<g>
</g>
<g>
</g>
<g>
</g>
<g>
</g>
<g>
</g>
<g>
</g>
<g>
</g>
<g>
</g>
</svg>
