<?xml version="1.0" encoding="iso-8859-1"?>
<!-- Generator: Adobe Illustrator 18.0.0, SVG Export Plug-In . SVG Version: 6.00 Build 0)  -->
<!DOCTYPE svg PUBLIC "-//W3C//DTD SVG 1.1//EN" "http://www.w3.org/Graphics/SVG/1.1/DTD/svg11.dtd">
<svg version="1.1" id="Capa_1" xmlns="http://www.w3.org/2000/svg" xmlns:xlink="http://www.w3.org/1999/xlink" x="0px" y="0px"
	 viewBox="0 0 489.066 489.066" style="enable-background:new 0 0 489.066 489.066;" xml:space="preserve">
<g>
	<path d="M129.22,68.269c-0.392-2.313-2.578-3.879-4.899-3.481l-27.855,4.714c-2.314,0.392-3.873,2.585-3.481,4.899
		c0.351,2.074,2.149,3.542,4.186,3.542c0.235,0,0.474-0.02,0.714-0.061l27.855-4.714C128.053,72.777,129.611,70.584,129.22,68.269z"
		/>
	<path d="M197.366,106.298c-7.851,0-14.238,6.388-14.238,14.238c0,7.851,6.388,14.238,14.238,14.238s14.238-6.388,14.238-14.238
		C211.605,112.686,205.217,106.298,197.366,106.298z M197.366,126.275c-3.164,0-5.738-2.574-5.738-5.738
		c0-3.164,2.574-5.738,5.738-5.738c3.164,0,5.738,2.574,5.738,5.738C203.105,123.701,200.53,126.275,197.366,126.275z"/>
	<path d="M133.274,114.066c-7.851,0-14.238,6.388-14.238,14.238s6.388,14.238,14.238,14.238s14.238-6.388,14.238-14.238
		S141.125,114.066,133.274,114.066z M133.274,134.043c-3.164,0-5.738-2.574-5.738-5.738c0-3.164,2.574-5.738,5.738-5.738
		c3.164,0,5.738,2.574,5.738,5.738C139.013,131.468,136.438,134.043,133.274,134.043z"/>
	<path d="M69.183,122.946c-7.851,0-14.238,6.388-14.238,14.238s6.388,14.238,14.238,14.238s14.238-6.388,14.238-14.238
		S77.033,122.946,69.183,122.946z M69.183,142.922c-3.164,0-5.738-2.574-5.738-5.738c0-3.164,2.574-5.738,5.738-5.738
		c3.164,0,5.738,2.574,5.738,5.738C74.921,140.348,72.347,142.922,69.183,142.922z"/>
	<path d="M246.293,461.822c0.002,0,0.005-0.001,0.007-0.002l222.017-37.742c2.043-0.347,3.538-2.117,3.538-4.189v-39.083
		l13.623-2.149c2.066-0.326,3.588-2.107,3.588-4.198v-56.624c0-1.205-0.512-2.354-1.408-3.16c-0.897-0.806-2.091-1.188-3.292-1.066
		l-12.511,1.332V175.92l12.511,1.332c0.15,0.016,0.301,0.023,0.45,0.023c1.044,0,2.058-0.385,2.842-1.09
		c0.896-0.806,1.408-1.955,1.408-3.16v-56.623c0-2.092-1.522-3.872-3.588-4.198l-13.623-2.149V69.216
		c0-2.072-1.495-3.843-3.538-4.189L246.249,27.275 M246.249,27.275c0,0-0.83-0.133-1.403,0.003L22.414,65.026
		c-2.044,0.348-3.539,2.117-3.539,4.19v40.597l-15.282,2.391C1.524,112.528,0,114.309,0,116.403v56.623
		c0,1.205,0.512,2.354,1.407,3.159c0.784,0.706,1.798,1.091,2.843,1.091c0.148,0,0.297-0.008,0.446-0.023l14.179-1.497v139.349
		l-14.179-1.497c-1.201-0.123-2.394,0.261-3.289,1.067C0.512,315.48,0,316.628,0,317.834v56.624c0,2.094,1.524,3.875,3.593,4.199
		l15.282,2.391v38.841c0,2.073,1.495,3.843,3.539,4.19l222.432,37.748c0,0,0.981,0.056,1.454-0.007 M480.566,130.122l-26.432-3.776
		c-2.326-0.336-4.478,1.282-4.809,3.605c-0.332,2.324,1.282,4.477,3.605,4.809l27.635,3.948v29.592l-230.76-24.573v-60.1
		l230.76,36.408V130.122z M463.355,108.714L249.807,75.022V58.658l45.065,7.093c0.225,0.035,0.446,0.053,0.666,0.053
		c2.056,0,3.864-1.495,4.193-3.59c0.365-2.319-1.219-4.494-3.537-4.859l-46.388-7.3V36.502l213.549,36.304V108.714z M27.375,89.814
		l42.406-7.175c2.315-0.392,3.873-2.585,3.482-4.899c-0.391-2.313-2.579-3.877-4.9-3.481l-40.988,6.936v-8.388l213.932-36.306
		v38.517L27.375,108.483V89.814z M8.5,141.718l25.521-2.944c2.332-0.268,4.004-2.377,3.734-4.709
		c-0.27-2.331-2.368-4.013-4.709-3.734L8.5,133.163V120.04l232.807-36.419v60.103L8.5,168.303V141.718z M27.375,174.858
		l191.908-20.262v42.956c0,2.348,1.902,4.25,4.25,4.25c2.348,0,4.25-1.902,4.25-4.25v-43.854l13.523-1.428v186.318l-21.523-2.272
		v-26.765c0-2.348-1.902-4.25-4.25-4.25c-2.348,0-4.25,1.902-4.25,4.25v25.867L27.375,316.002V174.858z M8.5,359.517l24.875,3.494
		c0.2,0.028,0.399,0.042,0.596,0.042c2.085,0,3.905-1.536,4.204-3.66c0.326-2.324-1.294-4.473-3.618-4.8L8.5,350.933v-28.377
		l232.807,24.581v60.103L8.5,370.821V359.517z M27.375,416.298v-14.096l60.428,10.536c0.247,0.043,0.493,0.064,0.735,0.064
		c2.027,0,3.822-1.456,4.182-3.52c0.403-2.313-1.145-4.514-3.456-4.917l-61.889-10.791v-11.197l213.932,33.466v36.761
		L27.375,416.298z M463.355,416.299l-213.549,36.304v-17.365l52.328-7.478c2.323-0.332,3.938-2.484,3.605-4.809
		c-0.332-2.322-2.47-3.945-4.809-3.605l-51.125,7.307v-10.813l199.477-31.472v10.186c0,2.348,1.902,4.25,4.25,4.25
		c2.348,0,4.25-1.902,4.25-4.25v-11.527l5.572-0.879V416.299z M480.566,330.841l-24.646,3.589c-2.323,0.339-3.932,2.496-3.594,4.818
		c0.309,2.115,2.125,3.639,4.201,3.639c0.203,0,0.41-0.015,0.617-0.045l23.421-3.41v31.394l-230.76,36.408v-60.1l230.76-24.574
		V330.841z M463.355,315.844l-6.572,0.7v-18.857c0-2.348-1.902-4.25-4.25-4.25c-2.348,0-4.25,1.902-4.25,4.25v19.763l-178.5,19.008
		v-29.905c0-2.348-1.902-4.25-4.25-4.25c-2.348,0-4.25,1.902-4.25,4.25v30.811l-11.477,1.223V152.275l213.549,22.74V315.844z"/>
	<path d="M291.701,134.775c7.851,0,14.238-6.388,14.238-14.238c0-7.851-6.388-14.238-14.238-14.238
		c-7.851,0-14.238,6.388-14.238,14.238C277.463,128.387,283.851,134.775,291.701,134.775z M291.701,114.798
		c3.164,0,5.738,2.574,5.738,5.738c0,3.164-2.574,5.738-5.738,5.738c-3.164,0-5.738-2.574-5.738-5.738
		C285.963,117.373,288.537,114.798,291.701,114.798z"/>
	<path d="M355.793,142.543c7.851,0,14.238-6.388,14.238-14.238s-6.388-14.238-14.238-14.238c-7.851,0-14.238,6.388-14.238,14.238
		S347.942,142.543,355.793,142.543z M355.793,122.566c3.164,0,5.738,2.574,5.738,5.738c0,3.164-2.574,5.738-5.738,5.738
		c-3.164,0-5.738-2.574-5.738-5.738C350.055,125.14,352.629,122.566,355.793,122.566z"/>
	<path d="M419.885,151.422c7.851,0,14.238-6.388,14.238-14.238s-6.388-14.238-14.238-14.238c-7.851,0-14.238,6.388-14.238,14.238
		S412.034,151.422,419.885,151.422z M419.885,131.446c3.164,0,5.738,2.574,5.738,5.738c0,3.164-2.574,5.738-5.738,5.738
		c-3.164,0-5.738-2.574-5.738-5.738C414.146,134.02,416.721,131.446,419.885,131.446z"/>
	<path d="M291.701,384.562c7.851,0,14.238-6.388,14.238-14.238s-6.388-14.238-14.238-14.238c-7.851,0-14.238,6.388-14.238,14.238
		S283.851,384.562,291.701,384.562z M291.701,364.586c3.164,0,5.738,2.574,5.738,5.738c0,3.164-2.574,5.738-5.738,5.738
		c-3.164,0-5.738-2.574-5.738-5.738C285.963,367.16,288.537,364.586,291.701,364.586z"/>
	<path d="M355.793,376.794c7.851,0,14.238-6.388,14.238-14.238c0-7.851-6.388-14.238-14.238-14.238
		c-7.851,0-14.238,6.388-14.238,14.238C341.555,370.407,347.942,376.794,355.793,376.794z M355.793,356.818
		c3.164,0,5.738,2.574,5.738,5.738c0,3.164-2.574,5.738-5.738,5.738c-3.164,0-5.738-2.574-5.738-5.738
		C350.055,359.392,352.629,356.818,355.793,356.818z"/>
	<path d="M419.885,367.915c7.851,0,14.238-6.388,14.238-14.238s-6.388-14.238-14.238-14.238c-7.851,0-14.238,6.388-14.238,14.238
		S412.034,367.915,419.885,367.915z M419.885,347.938c3.164,0,5.738,2.574,5.738,5.738c0,3.164-2.574,5.738-5.738,5.738
		c-3.164,0-5.738-2.574-5.738-5.738C414.146,350.512,416.721,347.938,419.885,347.938z"/>
	<path d="M197.366,356.086c-7.851,0-14.238,6.388-14.238,14.238s6.388,14.238,14.238,14.238s14.238-6.388,14.238-14.238
		S205.217,356.086,197.366,356.086z M197.366,376.062c-3.164,0-5.738-2.574-5.738-5.738c0-3.164,2.574-5.738,5.738-5.738
		c3.164,0,5.738,2.574,5.738,5.738C203.105,373.488,200.53,376.062,197.366,376.062z"/>
	<path d="M133.274,348.318c-7.851,0-14.238,6.388-14.238,14.238c0,7.85,6.388,14.238,14.238,14.238s14.238-6.388,14.238-14.238
		C147.513,354.706,141.125,348.318,133.274,348.318z M133.274,368.294c-3.164,0-5.738-2.574-5.738-5.738
		c0-3.164,2.574-5.738,5.738-5.738c3.164,0,5.738,2.574,5.738,5.738C139.013,365.72,136.438,368.294,133.274,368.294z"/>
	<path d="M69.183,339.438c-7.851,0-14.238,6.388-14.238,14.238s6.388,14.238,14.238,14.238s14.238-6.388,14.238-14.238
		S77.033,339.438,69.183,339.438z M69.183,359.415c-3.164,0-5.738-2.574-5.738-5.738c0-3.164,2.574-5.738,5.738-5.738
		c3.164,0,5.738,2.574,5.738,5.738C74.921,356.84,72.347,359.415,69.183,359.415z"/>
	<path d="M185.939,241.151c-0.159-0.178-0.331-0.336-0.497-0.503c0.296-0.293,0.589-0.588,0.864-0.908l16.136-18.768
		c5.298-6.156,5.425-15.487,0.29-21.241l-15.354-17.212c-2.493-2.791-5.875-4.328-9.524-4.328c-3.942,0-7.791,1.848-10.56,5.069
		l-16.137,18.767c-0.409,0.475-0.776,0.977-1.124,1.486c-0.317-0.453-0.654-0.896-1.028-1.314l-15.354-17.207
		c-2.491-2.794-5.874-4.333-9.524-4.333c-3.942,0-7.791,1.847-10.562,5.068l-16.136,18.77c-0.409,0.476-0.777,0.976-1.125,1.487
		c-0.317-0.455-0.655-0.898-1.029-1.316L79.924,187.46c-2.493-2.793-5.876-4.331-9.526-4.331c-3.94,0-7.789,1.847-10.559,5.067
		l-16.138,18.768c-5.295,6.157-5.423,15.487-0.29,21.243l15.353,17.205c0.159,0.178,0.331,0.336,0.497,0.504
		c-0.295,0.292-0.588,0.587-0.862,0.906L42.261,265.59c-5.294,6.156-5.422,15.487-0.289,21.244l15.354,17.208
		c2.493,2.792,5.875,4.329,9.524,4.329c3.942,0,7.792-1.848,10.562-5.069l16.139-18.765c0.408-0.476,0.775-0.976,1.123-1.486
		c0.317,0.453,0.654,0.895,1.027,1.313l15.351,17.207c2.493,2.795,5.876,4.333,9.526,4.333c3.941,0,7.79-1.848,10.56-5.068
		l16.139-18.767c0.408-0.475,0.775-0.975,1.122-1.485c0.318,0.454,0.655,0.897,1.028,1.315l15.352,17.204
		c2.491,2.795,5.874,4.334,9.525,4.334c3.943,0,7.793-1.848,10.563-5.07l16.137-18.768c5.296-6.156,5.424-15.486,0.29-21.242
		L185.939,241.151z M148.595,262.141c-0.318-0.453-0.655-0.896-1.028-1.314l-15.353-17.208c-0.159-0.179-0.332-0.337-0.498-0.505
		c0.295-0.292,0.588-0.588,0.863-0.907l16.137-18.768c0.409-0.475,0.776-0.975,1.124-1.486c0.317,0.454,0.655,0.896,1.028,1.315
		l15.353,17.208c0.159,0.178,0.331,0.335,0.497,0.503c-0.296,0.292-0.589,0.587-0.863,0.906l-16.135,18.767
		C149.309,261.129,148.942,261.63,148.595,262.141z M94.866,264.61c-0.318-0.454-0.656-0.897-1.03-1.316l-15.352-17.207
		c-0.158-0.178-0.331-0.335-0.496-0.503c0.295-0.292,0.589-0.588,0.863-0.907l16.138-18.768c0.408-0.476,0.775-0.976,1.122-1.485
		c0.318,0.455,0.655,0.898,1.029,1.316l15.353,17.204c0.159,0.179,0.332,0.337,0.498,0.505c-0.296,0.292-0.589,0.588-0.864,0.907
		L95.99,263.123C95.581,263.599,95.214,264.099,94.866,264.61z M157.604,207.568l16.137-18.767c1.153-1.341,2.653-2.11,4.115-2.11
		c1.212,0,2.313,0.516,3.182,1.488l15.353,17.211c2.276,2.55,2.098,7.147-0.392,10.04l-16.137,18.768
		c-1.152,1.341-2.652,2.109-4.114,2.109c-1.213,0-2.314-0.516-3.184-1.49l-15.352-17.207
		C154.936,215.061,155.116,210.461,157.604,207.568z M103.875,210.039l16.137-18.77c1.153-1.341,2.653-2.11,4.116-2.11
		c1.212,0,2.312,0.516,3.182,1.49l15.354,17.208c2.274,2.55,2.094,7.148-0.394,10.042l-16.137,18.768
		c-1.153,1.341-2.652,2.11-4.115,2.11c-1.212,0-2.313-0.516-3.184-1.492l-15.352-17.204
		C101.208,217.53,101.387,212.931,103.875,210.039z M49.754,222.547c-2.274-2.551-2.095-7.149,0.393-10.043l16.138-18.767
		c1.152-1.341,2.651-2.109,4.113-2.109c1.213,0,2.314,0.516,3.185,1.49l15.354,17.209c2.274,2.547,2.095,7.146-0.393,10.041
		l-16.137,18.766c-1.153,1.342-2.653,2.111-4.115,2.111c-1.213,0-2.313-0.517-3.185-1.493L49.754,222.547z M87.104,278.996
		L70.965,297.76c-1.152,1.342-2.652,2.111-4.115,2.111c-1.212,0-2.313-0.516-3.184-1.489l-15.352-17.205
		c-2.275-2.553-2.096-7.152,0.392-10.045l16.137-18.768c1.154-1.341,2.654-2.11,4.116-2.11c1.212,0,2.312,0.516,3.183,1.491
		l15.353,17.208C89.77,271.503,89.591,276.102,87.104,278.996z M140.832,276.527l-16.139,18.767c-1.153,1.342-2.653,2.11-4.115,2.11
		c-1.212,0-2.313-0.516-3.184-1.491l-15.354-17.208c-2.274-2.549-2.094-7.146,0.395-10.04l16.137-18.767
		c1.153-1.342,2.654-2.111,4.116-2.111c1.212,0,2.312,0.516,3.183,1.491l15.353,17.209
		C143.5,269.035,143.319,273.633,140.832,276.527z M194.559,274.057l-16.138,18.769c-1.153,1.342-2.654,2.111-4.117,2.111
		c-1.211,0-2.311-0.516-3.182-1.492L155.77,276.24c-2.275-2.551-2.095-7.15,0.395-10.046l16.135-18.766
		c1.152-1.341,2.652-2.11,4.114-2.11c1.212,0,2.312,0.516,3.183,1.492l15.354,17.206
		C197.227,266.567,197.048,271.165,194.559,274.057z"/>
	<path d="M297.898,239.74c0.275,0.32,0.568,0.615,0.864,0.908c-0.166,0.167-0.338,0.324-0.496,0.502l-15.357,17.208
		c-5.133,5.755-5.005,15.085,0.29,21.24l16.138,18.769c2.77,3.223,6.619,5.07,10.563,5.07c3.65,0,7.033-1.539,9.523-4.332
		l15.354-17.207c0.373-0.418,0.71-0.859,1.027-1.314c0.347,0.511,0.714,1.01,1.122,1.485l16.139,18.765
		c2.771,3.222,6.619,5.069,10.56,5.069h0.001c3.649,0,7.032-1.539,9.524-4.333l15.352-17.206c0.374-0.418,0.711-0.86,1.028-1.313
		c0.348,0.511,0.715,1.011,1.124,1.487l16.138,18.763c2.769,3.222,6.619,5.07,10.561,5.07c3.649,0,7.031-1.537,9.525-4.331
		l15.354-17.207c5.132-5.756,5.004-15.087-0.29-21.242l-16.139-18.771c-0.274-0.319-0.566-0.614-0.861-0.905
		c0.166-0.168,0.338-0.325,0.496-0.503l15.354-17.207c5.132-5.755,5.004-15.085-0.291-21.242l-16.138-18.769
		c-2.77-3.22-6.618-5.066-10.559-5.066c-3.65,0-7.033,1.538-9.526,4.332l-15.352,17.205c-0.374,0.42-0.712,0.862-1.03,1.317
		c-0.348-0.511-0.715-1.01-1.124-1.485l-16.137-18.771c-2.771-3.221-6.619-5.067-10.562-5.067c-3.65,0-7.033,1.539-9.523,4.332
		l-15.355,17.208c-0.374,0.418-0.711,0.861-1.028,1.314c-0.348-0.51-0.715-1.011-1.124-1.486L316.91,183.26
		c-2.77-3.222-6.618-5.069-10.56-5.069c-3.648,0-7.03,1.537-9.525,4.33l-15.351,17.209c-5.136,5.755-5.009,15.086,0.288,21.241
		L297.898,239.74z M334.366,221.955c0.347,0.51,0.714,1.01,1.123,1.485l16.137,18.768c0.275,0.319,0.568,0.615,0.863,0.907
		c-0.166,0.168-0.338,0.326-0.497,0.505l-15.354,17.207c-0.374,0.419-0.71,0.86-1.028,1.314c-0.348-0.511-0.715-1.012-1.125-1.488
		l-16.135-18.768c-0.274-0.319-0.568-0.614-0.863-0.906c0.166-0.167,0.338-0.325,0.497-0.503l15.354-17.207
		C333.711,222.85,334.048,222.408,334.366,221.955z M388.094,224.423c0.347,0.511,0.714,1.011,1.123,1.486l16.137,18.768
		c0.274,0.319,0.568,0.615,0.863,0.907c-0.165,0.167-0.337,0.324-0.495,0.502l-15.352,17.206c-0.374,0.419-0.712,0.862-1.03,1.316
		c-0.348-0.511-0.715-1.012-1.124-1.487l-16.137-18.765c-0.274-0.32-0.568-0.615-0.864-0.908c0.166-0.168,0.339-0.326,0.498-0.504
		l15.353-17.206C387.438,225.32,387.776,224.877,388.094,224.423z M328.435,276.239l-15.354,17.208
		c-0.87,0.975-1.97,1.49-3.181,1.49c-1.463,0-2.964-0.77-4.117-2.111l-16.139-18.77c-2.487-2.892-2.666-7.489-0.392-10.039
		l15.356-17.208c0.87-0.976,1.97-1.491,3.182-1.491c1.462,0,2.962,0.77,4.114,2.109l16.135,18.767
		C330.529,269.089,330.71,273.689,328.435,276.239z M382.163,278.706l-15.354,17.207c-0.87,0.976-1.971,1.492-3.182,1.491
		c-1.463,0-2.963-0.77-4.116-2.111l-16.138-18.765c-2.488-2.895-2.669-7.493-0.394-10.042l15.354-17.208
		c0.87-0.976,1.97-1.491,3.182-1.491c1.462,0,2.963,0.77,4.116,2.111l16.137,18.766
		C384.258,271.558,384.438,276.156,382.163,278.706z M435.499,271.133c2.487,2.892,2.667,7.491,0.393,10.043L420.54,298.38
		c-0.871,0.976-1.973,1.491-3.185,1.491c-1.463,0-2.963-0.77-4.116-2.112l-16.137-18.763c-2.488-2.895-2.667-7.494-0.392-10.045
		l15.353-17.207c0.87-0.976,1.97-1.491,3.182-1.491c1.462,0,2.962,0.77,4.115,2.109L435.499,271.133z M395.271,210.326
		l15.352-17.206c0.87-0.976,1.972-1.491,3.185-1.491c1.462,0,2.961,0.769,4.113,2.108l16.138,18.768
		c2.487,2.894,2.667,7.492,0.393,10.042l-15.354,17.207c-0.87,0.976-1.971,1.492-3.183,1.492c-1.463-0.001-2.963-0.77-4.116-2.11
		l-16.136-18.766C393.175,217.474,392.995,212.875,395.271,210.326z M341.541,207.857l15.355-17.208
		c0.869-0.975,1.969-1.49,3.181-1.49c1.463,0,2.963,0.77,4.116,2.109l16.138,18.771c2.487,2.892,2.666,7.49,0.392,10.04
		l-15.353,17.206c-0.871,0.976-1.972,1.491-3.184,1.491c-1.463,0-2.962-0.77-4.115-2.11l-16.137-18.768
		C339.447,215.005,339.267,210.407,341.541,207.857z M287.816,205.389l15.35-17.208c0.871-0.975,1.972-1.49,3.184-1.49
		c1.462,0,2.962,0.77,4.115,2.11l16.137,18.767c2.487,2.893,2.667,7.493,0.394,10.043l-15.353,17.206
		c-0.871,0.976-1.972,1.491-3.184,1.491c-1.463,0-2.963-0.77-4.115-2.109l-16.138-18.77
		C285.718,212.538,285.539,207.94,287.816,205.389z"/>
</g>
<g>
</g>
<g>
</g>
<g>
</g>
<g>
</g>
<g>
</g>
<g>
</g>
<g>
</g>
<g>
</g>
<g>
</g>
<g>
</g>
<g>
</g>
<g>
</g>
<g>
</g>
<g>
</g>
<g>
</g>
</svg>
