<?xml version="1.0" encoding="iso-8859-1"?>
<!-- Generator: Adobe Illustrator 18.0.0, SVG Export Plug-In . SVG Version: 6.00 Build 0)  -->
<!DOCTYPE svg PUBLIC "-//W3C//DTD SVG 1.1//EN" "http://www.w3.org/Graphics/SVG/1.1/DTD/svg11.dtd">
<svg version="1.1" id="Capa_1" xmlns="http://www.w3.org/2000/svg" xmlns:xlink="http://www.w3.org/1999/xlink" x="0px" y="0px"
	 viewBox="0 0 492.5 492.5" style="enable-background:new 0 0 492.5 492.5;" xml:space="preserve">
<g>
	<path d="M402.981,259.333h-10.838c8.623-11.006,12.849-25.569,12.849-44.204c0-27.894-20.021-56.528-59.505-85.11
		c-24.32-17.604-48.293-29.465-55.989-33.1v-5.648c7.274-1.892,12.667-8.496,12.667-16.354c0-7.858-5.393-14.462-12.667-16.355
		v-7.645c0-2.347-1.902-4.25-4.25-4.25c-2.348,0-4.25,1.903-4.25,4.25v7.645c-7.274,1.892-12.667,8.497-12.667,16.355
		c0,7.858,5.393,14.462,12.667,16.354v5.648c-7.696,3.635-31.669,15.496-55.989,33.1c-39.485,28.581-59.506,57.216-59.506,85.11
		c0,18.635,4.225,33.198,12.849,44.204h-10.838c-2.853,0-5.534,0.729-7.872,2.006v-93.756c0-6.353-3.674-11.851-9-14.522v-48.124
		c10.253-1.182,20.874-5.685,20.874-22.87c0-23.555-41.138-74.742-45.829-80.501C124.88,0.575,123.67,0,122.392,0
		c-1.278,0-2.488,0.575-3.295,1.566c-4.691,5.759-45.828,56.946-45.828,80.501c0,9.52,3.172,15.918,9.696,19.561
		c3.233,1.806,7.087,2.752,11.177,3.24v48.193c-5.326,2.671-9,8.169-9,14.522V476.25c0,8.96,7.29,16.25,16.25,16.25h42
		c4.484,0,8.473-2.488,11.378-6.07c3.004,3.696,7.598,6.07,12.744,6.07h235.468c8.96,0,16.25-7.29,16.25-16.25V275.583
		C419.231,266.622,411.941,259.333,402.981,259.333z M276.831,74.917c0-4.641,3.775-8.417,8.417-8.417s8.417,3.776,8.417,8.417
		c0,4.641-3.775,8.416-8.417,8.416S276.831,79.558,276.831,74.917z M174.003,215.129c0-5.177,0.83-10.284,2.339-15.296h53.605
		c2.348,0,4.25-1.903,4.25-4.25c0-2.347-1.902-4.25-4.25-4.25H179.58c2.76-6.017,6.431-11.866,10.752-17.5h20.949
		c2.348,0,4.25-1.903,4.25-4.25c0-2.347-1.902-4.25-4.25-4.25h-13.82c29.653-32.555,78.03-56.402,87.787-61.012
		c14.066,6.647,108.416,53.273,111.179,108.346h-19.813c-2.348,0-4.25,1.903-4.25,4.25c0,2.347,1.902,4.25,4.25,4.25h19.694
		c-0.222,3.827-0.651,7.442-1.312,10.833h-56.383c-2.348,0-4.25,1.903-4.25,4.25c0,2.347,1.902,4.25,4.25,4.25h54.108
		c-2.632,7.553-6.647,13.802-12.103,18.833H189.875C179.198,249.488,174.003,235.007,174.003,215.129z M167.514,267.833h20.744
		h193.979h20.744c4.273,0,7.75,3.477,7.75,7.75V286h-251.09v-10.645C159.766,271.188,163.245,267.833,167.514,267.833z
		 M104.442,96.861c-6.22,0-13.143-0.315-17.334-2.655c-2.486-1.388-5.34-4.022-5.34-12.139c0-3.594,1.361-8.276,3.618-13.567h30.895
		c2.348,0,4.25-1.903,4.25-4.25c0-2.347-1.902-4.25-4.25-4.25H89.475c2.187-4.144,4.712-8.477,7.421-12.833h22.052
		c2.348,0,4.25-1.903,4.25-4.25c0-2.347-1.902-4.25-4.25-4.25h-16.568c7.063-10.604,14.554-20.658,20.013-27.607
		c13.811,17.579,40.624,55.012,40.624,71.007c0,11.614-4.874,14.794-22.675,14.794H104.442z M142.142,105.358v45.975h-6.5V125.25
		c0-7.306-5.944-13.25-13.25-13.25c-7.306,0-13.25,5.944-13.25,13.25v26.083h-6.5v-45.982L142.142,105.358z M127.142,151.333h-9.5
		V125.25c0-2.619,2.131-4.75,4.75-4.75c2.619,0,4.75,2.131,4.75,4.75V151.333z M101.392,159.833h42c4.273,0,7.75,3.477,7.75,7.75
		v107.77c-0.001,0.077-0.012,0.152-0.012,0.23c0,0.039,0.011,0.077,0.012,0.116V404h-27.527c-2.348,0-4.25,1.903-4.25,4.25
		c0,2.347,1.902,4.25,4.25,4.25h27.527V449h-57.5V217.833h20.64c2.348,0,4.25-1.903,4.25-4.25c0-2.347-1.902-4.25-4.25-4.25h-20.64
		v-14.166h47.306c2.348,0,4.25-1.903,4.25-4.25c0-2.347-1.902-4.25-4.25-4.25H93.642v-19.084
		C93.642,163.309,97.118,159.833,101.392,159.833z M143.392,484h-42c-4.273,0-7.75-3.477-7.75-7.75V457.5h57.5v15.75
		C151.142,477.844,147.31,484,143.392,484z M332.817,484h-95.139V372.291h2.697c2.348,0,4.25-1.903,4.25-4.25
		c0-17.319,27.429-39.733,40.622-48.789c13.193,9.056,40.622,31.47,40.622,48.789c0,2.347,1.902,4.25,4.25,4.25h2.697V484z
		 M402.981,484h-8.784v-58.417c0-2.347-1.902-4.25-4.25-4.25c-2.348,0-4.25,1.903-4.25,4.25V484h-16.833v-43.083
		c0-2.347-1.902-4.25-4.25-4.25c-2.348,0-4.25,1.903-4.25,4.25V484h-19.047V368.041c0-2.347-1.902-4.25-4.25-4.25h-3.059
		c-4.249-25.556-44.637-52.042-46.447-53.217c-1.406-0.913-3.221-0.913-4.627,0c-1.81,1.175-42.198,27.661-46.447,53.217h-3.059
		c-2.348,0-4.25,1.903-4.25,4.25V484h-38.982V360.917c0-2.347-1.902-4.25-4.25-4.25c-2.348,0-4.25,1.903-4.25,4.25V484h-14.184
		c-4.343,0-7.875-3.477-7.875-7.75v-2.75c0-0.009-0.003-0.017-0.003-0.026c0.001-0.074,0.006-0.149,0.006-0.224V294.5h251.09V310
		h-45.117c-2.348,0-4.25,1.903-4.25,4.25c0,2.347,1.902,4.25,4.25,4.25h45.117v157.75C410.731,480.523,407.255,484,402.981,484z"/>
	<path d="M185.947,304c-2.348,0-4.25,1.903-4.25,4.25v36c0,2.347,1.902,4.25,4.25,4.25c2.348,0,4.25-1.903,4.25-4.25v-36
		C190.197,305.903,188.295,304,185.947,304z"/>
	<path d="M110.614,404h-8c-2.348,0-4.25,1.903-4.25,4.25c0,2.347,1.902,4.25,4.25,4.25h8c2.348,0,4.25-1.903,4.25-4.25
		C114.864,405.903,112.962,404,110.614,404z"/>
	<path d="M109.614,370.5c2.348,0,4.25-1.903,4.25-4.25v-126c0-2.347-1.902-4.25-4.25-4.25c-2.348,0-4.25,1.903-4.25,4.25v126
		C105.364,368.597,107.267,370.5,109.614,370.5z"/>
</g>
<g>
</g>
<g>
</g>
<g>
</g>
<g>
</g>
<g>
</g>
<g>
</g>
<g>
</g>
<g>
</g>
<g>
</g>
<g>
</g>
<g>
</g>
<g>
</g>
<g>
</g>
<g>
</g>
<g>
</g>
</svg>
