<?xml version="1.0" encoding="iso-8859-1"?>
<!-- Generator: Adobe Illustrator 18.0.0, SVG Export Plug-In . SVG Version: 6.00 Build 0)  -->
<!DOCTYPE svg PUBLIC "-//W3C//DTD SVG 1.1//EN" "http://www.w3.org/Graphics/SVG/1.1/DTD/svg11.dtd">
<svg version="1.1" id="Capa_1" xmlns="http://www.w3.org/2000/svg" xmlns:xlink="http://www.w3.org/1999/xlink" x="0px" y="0px"
	 viewBox="0 0 489.254 489.254" style="enable-background:new 0 0 489.254 489.254;" xml:space="preserve">
<g>
	<path d="M247.352,442.08c-108.876,0-197.453-88.577-197.453-197.453c0-2.347-1.903-4.25-4.25-4.25c-2.347,0-4.25,1.903-4.25,4.25
		c0,113.563,92.39,205.953,205.953,205.953c2.347,0,4.25-1.903,4.25-4.25C251.602,443.983,249.7,442.08,247.352,442.08z"/>
	<path d="M307.785,94.072l6.312,4.586h-38.401c-2.347,0-4.25,1.903-4.25,4.25c0,2.347,1.903,4.25,4.25,4.25h50.1l16.473,11.969
		c0.515,0.374,0.988,0.829,1.425,1.334h-33.113c-2.347,0-4.25,1.903-4.25,4.25c0,2.347,1.903,4.25,4.25,4.25h35.986
		c-0.044,0.763-0.167,1.502-0.391,2.189l-13.172,40.54c-1.231,3.79-1.078,6.781,0.454,8.888c1.129,1.554,2.925,2.445,4.927,2.445
		h0.001c2.02-0.001,4.182-0.858,6.609-2.622l34.485-25.055c1.602-1.164,3.906-1.831,6.322-1.831c2.415,0,4.719,0.667,6.321,1.831
		l34.484,25.055c2.428,1.764,4.59,2.622,6.61,2.622c2.002,0,3.798-0.892,4.927-2.446c1.532-2.108,1.685-5.099,0.454-8.888
		l-0.423-1.303h30.478c2.347,0,4.25-1.903,4.25-4.25c0-2.347-1.903-4.25-4.25-4.25h-33.239l-9.987-30.736
		c-1.286-3.959,0.539-9.577,3.907-12.023l10.472-7.608h43.019c2.347,0,4.25-1.903,4.25-4.25s-1.903-4.25-4.25-4.25h-31.32
		l12.314-8.947c5.071-3.685,5.284-7.079,4.569-9.277c-0.714-2.198-2.881-4.819-9.15-4.819h-42.626
		c-4.163,0-8.942-3.472-10.228-7.431l-13.172-40.539c-1.938-5.962-5.099-7.214-7.411-7.214c-2.312,0-5.474,1.252-7.411,7.214
		l-13.172,40.539c-1.286,3.959-6.066,7.431-10.229,7.431h-42.626c-6.268,0-8.435,2.621-9.15,4.819
		C302.5,86.993,302.713,90.387,307.785,94.072z M354.99,88.476c7.844,0,15.888-5.844,18.312-13.304l12.499-38.468L398.3,75.172
		c2.424,7.46,10.467,13.304,18.312,13.304h40.447l-32.723,23.774c-6.347,4.611-9.419,14.067-6.995,21.527l12.499,38.467
		l-32.722-23.774c-3.066-2.229-7.085-3.455-11.317-3.455c-4.233,0-8.251,1.227-11.318,3.455l-32.722,23.774l12.499-38.467
		c2.424-7.46-0.648-16.916-6.995-21.527l-32.723-23.774H354.99z"/>
	<path d="M469.742,416.981h-52.676c0.444-0.437,0.895-0.863,1.336-1.304c45.689-45.689,70.852-106.436,70.852-171.05
		c0-10.355-0.664-20.789-1.973-31.011c-0.27-2.107-2.053-3.691-4.176-3.71c-0.014,0-0.027,0-0.04,0
		c-2.106,0-3.898,1.544-4.205,3.632c-1.696,11.545-4.531,22.705-8.363,33.38h-72.705c-2.347,0-4.25,1.903-4.25,4.25
		c0,2.347,1.903,4.25,4.25,4.25H467.2c-26.907,64.165-90.818,108.691-162.888,108.691c-87.207,0-159.827-63.598-173.946-146.846
		h62.479c2.347,0,4.25-1.903,4.25-4.25c0-2.347-1.903-4.25-4.25-4.25h-63.708c-0.78-6.514-1.203-13.134-1.25-19.844h95.482
		c2.347,0,4.25-1.903,4.25-4.25c0-2.347-1.903-4.25-4.25-4.25h-95.34c0.499-12.006,2.23-23.753,5.076-35.107h49.929
		c2.347,0,4.25-1.903,4.25-4.25c0-2.347-1.903-4.25-4.25-4.25h-47.577c19.465-63.844,74.508-113.634,142.985-123.694
		c2.101-0.309,3.652-2.121,3.632-4.245c-0.02-2.124-1.604-3.907-3.71-4.176c-10.231-1.309-20.665-1.972-31.011-1.972
		c-64.614,0-125.361,25.162-171.05,70.851C30.613,119.266,5.451,180.013,5.451,244.627c0,56.797,19.449,110.601,55.185,153.821H4.25
		c-2.347,0-4.25,1.903-4.25,4.25c0,2.348,1.903,4.25,4.25,4.25h63.738c2.69,2.966,5.462,5.877,8.314,8.729
		c3.465,3.465,7.027,6.798,10.661,10.025H64.207c-2.347,0-4.25,1.903-4.25,4.25s1.903,4.25,4.25,4.25h32.861
		c6.481,5.159,13.187,9.962,20.098,14.393H23.872c-2.347,0-4.25,1.903-4.25,4.25c0,2.347,1.903,4.25,4.25,4.25h107.635
		c35.122,19.213,74.695,29.434,115.845,29.434c44.885,0,87.899-12.153,125.3-34.884h66.565c2.347,0,4.25-1.903,4.25-4.25
		s-1.903-4.25-4.25-4.25h-53.54c7.731-5.412,15.178-11.309,22.314-17.663h61.751c2.347,0,4.25-1.903,4.25-4.25
		S472.089,416.981,469.742,416.981z M13.951,244.627c0-128.698,104.704-233.402,233.402-233.402c0.477,0,0.954,0.002,1.431,0.004
		c-32.282,10.165-61.425,29.137-83.979,55.027c-29.298,33.634-45.434,76.751-45.434,121.41
		c0,101.977,82.964,184.941,184.942,184.941c44.659,0,87.776-16.135,121.41-45.434c25.89-22.553,44.862-51.695,55.027-83.978
		c0.003,0.477,0.004,0.954,0.004,1.43c0,128.698-104.704,233.401-233.401,233.401C118.654,478.029,13.951,373.325,13.951,244.627z"
		/>
</g>
<g>
</g>
<g>
</g>
<g>
</g>
<g>
</g>
<g>
</g>
<g>
</g>
<g>
</g>
<g>
</g>
<g>
</g>
<g>
</g>
<g>
</g>
<g>
</g>
<g>
</g>
<g>
</g>
<g>
</g>
</svg>
