<?xml version="1.0" encoding="iso-8859-1"?>
<!-- Generator: Adobe Illustrator 18.0.0, SVG Export Plug-In . SVG Version: 6.00 Build 0)  -->
<!DOCTYPE svg PUBLIC "-//W3C//DTD SVG 1.1//EN" "http://www.w3.org/Graphics/SVG/1.1/DTD/svg11.dtd">
<svg version="1.1" id="Capa_1" xmlns="http://www.w3.org/2000/svg" xmlns:xlink="http://www.w3.org/1999/xlink" x="0px" y="0px"
	 viewBox="0 0 484.066 484.066" style="enable-background:new 0 0 484.066 484.066;" xml:space="preserve">
<g>
	<path d="M225.356,34.938c0.756,1.46,2.24,2.297,3.778,2.297c0.657,0,1.326-0.153,1.95-0.477c2.085-1.08,2.899-3.645,1.82-5.729
		l-7.412-14.314c-1.079-2.084-3.646-2.9-5.729-1.82c-2.085,1.08-2.899,3.645-1.82,5.729L225.356,34.938z"/>
	<path d="M187.546,89.543c-1.229,6.942-0.812,14.49,1.135,21.31c4.451,15.593,16.368,27.068,30.765,31.673l-111.298,26.031
		c-1.909,0.447-3.259,2.14-3.278,4.097l-18.635,3.874c-7.688,1.619-12.628,9.19-11.011,16.879l1.854,8.808
		c0.783,3.725,2.971,6.921,6.159,9.001c2.344,1.529,5.022,2.319,7.758,2.319c0.984,0,1.976-0.102,2.962-0.31
		c0.04-0.009,0.08-0.018,0.119-0.027l10.79-2.597v30.518c0,1.446,0.735,2.793,1.952,3.575c1.217,0.781,2.746,0.893,4.063,0.291
		c0.474-0.216,44.131-20.111,71.265-30.483l-3.848,40.197c-0.123,1.282,0.343,2.551,1.265,3.449
		c0.539,0.524,1.203,0.874,1.914,1.057v0.111c-15.748,10.446-125.768,82.961-154.503,89.347c-1.249,0.277-2.307,1.103-2.879,2.246
		c-0.572,1.145-0.599,2.485-0.072,3.651c0.599,1.328,15.076,32.893,49.238,64.857c20.06,18.769,42.76,33.725,67.472,44.453
		c30.868,13.401,64.95,20.196,101.302,20.196c36.352,0,70.434-6.795,101.302-20.196c24.712-10.728,47.412-25.684,67.472-44.453
		c34.162-31.965,48.64-63.529,49.238-64.857c0.526-1.166,0.5-2.507-0.072-3.651c-0.572-1.143-1.63-1.969-2.879-2.246
		c-28.734-6.386-138.755-78.9-154.504-89.346v-14.607l2.679-0.327c2.315-0.283,3.97-2.38,3.707-4.697l-5.877-51.842
		c11.491-1.442,23.305-2.173,35.176-2.173c24.505,0,41.067,3.151,41.231,3.183c1.25,0.245,2.536-0.087,3.514-0.894
		c0.978-0.808,1.546-2.01,1.546-3.278v-39.066l17.932-3.817c3.725-0.783,6.921-2.971,9.001-6.159
		c2.08-3.188,2.794-6.995,2.011-10.719l-1.854-8.809c-0.783-3.725-2.972-6.921-6.16-9.001c-3.188-2.081-6.998-2.793-10.72-2.01
		c-0.06,0.013-0.118,0.026-0.177,0.041l-10.328,2.639c-0.269-0.714-0.703-1.36-1.315-1.846c-1.018-0.807-2.347-1.101-3.608-0.809
		L266.11,131.61c3.253-3.156,6.06-6.809,8.324-10.882c6.063-10.906,7.515-23.521,4.09-35.52c-1.947-6.82-5.576-13.45-10.283-18.696
		L237.434,6.932C235.287,2.785,230.587,0,225.738,0c-1.135,0-2.247,0.153-3.306,0.455L191.586,9.26
		c-5.69,1.624-9.785,7.517-9.324,13.416L187.546,89.543z M294.09,257.344l-94.854-0.001l94.854-11.595V257.344z M396.603,113.402
		c1.477-0.289,2.983,0.003,4.249,0.826c1.287,0.84,2.17,2.129,2.485,3.632l1.853,8.809c0.316,1.502,0.028,3.038-0.811,4.324
		c-0.839,1.287-2.129,2.17-3.642,2.487l-16.172,3.443v-20.447L396.603,113.402z M376.065,179.685
		c-3.99-0.575-10.205-1.33-18.143-1.862v-58.957l18.143-4.243V179.685z M251.726,67.328l-12.044-23.213
		c-1.08-2.085-3.643-2.9-5.729-1.82c-2.084,1.08-2.899,3.645-1.82,5.729l11.228,21.683l-47.813,13.646l-4.812-61.34
		c-0.147-1.879,1.369-4.06,3.182-4.578l30.847-8.805c0.301-0.086,0.628-0.129,0.974-0.129c1.674,0,3.456,1.006,4.146,2.34
		l28.292,54.638L251.726,67.328z M196.855,108.519c-1.524-5.339-1.863-10.964-1.01-16.413l66.702-19.036
		c3.599,4.175,6.279,9.132,7.804,14.474c2.802,9.815,1.614,20.134-3.346,29.056c-4.959,8.921-13.097,15.377-22.913,18.179
		C223.831,140.563,202.639,128.781,196.855,108.519z M233.62,144.75c4.233,0,8.537-0.581,12.805-1.799
		c2.841-0.811,5.561-1.88,8.147-3.172c0.024,0.3,0.043,0.596,0.043,0.884c0,6.755-5.495,12.25-12.25,12.25
		c-5.211,0-9.872-3.368-11.561-8.259C231.739,144.712,232.677,144.75,233.62,144.75z M92.154,204.917
		c-1.489,0.297-3.003,0.007-4.274-0.821c-1.286-0.84-2.169-2.129-2.484-3.632l-1.854-8.808c-0.653-3.103,1.341-6.157,4.434-6.809
		l16.89-3.512v20.522L92.154,204.917z M113.365,176.066l14.176-3.315v55.464c-5.704,2.518-10.624,4.72-14.176,6.317V176.066z
		 M136.041,224.482v-53.72l87.911-20.561c3.516,6.758,10.606,11.212,18.413,11.212c11.315,0,20.544-9.104,20.747-20.371
		l86.31-20.189v56.527c-3.494-0.131-7.211-0.211-11.148-0.211c-13.684,0-27.298,0.943-40.463,2.804
		c-2.279,0.322-3.888,2.399-3.628,4.687l3.086,27.219l-31.603,5.268c-2.315,0.386-3.88,2.576-3.494,4.891
		c0.347,2.079,2.148,3.553,4.188,3.553c0.232,0,0.467-0.02,0.703-0.059l31.165-5.194l1.827,16.119l-112.794,13.787l3.99-41.682
		c0.139-1.448-0.473-2.867-1.621-3.76c-0.757-0.589-1.678-0.896-2.609-0.896c-0.482,0-0.968,0.082-1.434,0.249
		C172.219,208.949,152.394,217.346,136.041,224.482z M404.999,413.21c-30.403,28.447-83.355,62.356-162.966,62.356
		c-79.443,0-132.328-33.776-162.703-62.111c-25.74-24.012-40.159-48.299-45.338-57.999c5.845-2.007,13.366-5.421,21.926-9.77
		c3.76,7.415,16.485,30.236,41.122,53.288c27.082,25.34,74.221,55.546,144.993,55.546c2.348,0,4.25-1.902,4.25-4.25
		c0-2.348-1.902-4.25-4.25-4.25c-67.832,0-112.987-28.825-138.924-53.008c-23.732-22.126-36.201-44.527-39.642-51.258
		c4.223-2.249,8.626-4.665,13.159-7.216c2.698,5.037,8.795,15.535,18.385,27.203c0.84,1.023,2.058,1.552,3.285,1.552
		c0.95,0,1.905-0.316,2.696-0.967c1.813-1.49,2.075-4.168,0.585-5.982c-9.205-11.2-15.097-21.422-17.556-26.018
		c10.813-6.222,22.113-12.999,33.12-19.762c0.075,0.004,0.146,0.022,0.223,0.022h64c2.348,0,4.25-1.902,4.25-4.25
		c0-2.348-1.902-4.25-4.25-4.25h-50.554c9.975-6.24,19.395-12.247,27.612-17.544c0.148,0.015,0.29,0.044,0.441,0.044h65.5
		c2.348,0,4.25-1.902,4.25-4.25c0-2.348-1.902-4.25-4.25-4.25h-52.908c7.702-5.029,13.224-8.693,15.555-10.246l110.042,0.001
		c9.434,6.281,71.295,47.264,116.768,72.245h-82.456c-2.348,0-4.25,1.902-4.25,4.25c0,2.348,1.902,4.25,4.25,4.25h98.365
		c0.058,0,0.11-0.015,0.167-0.017c7.84,3.93,14.736,7.017,20.182,8.886C444.933,365.115,430.632,389.227,404.999,413.21z"/>
	<path d="M152.843,397.979c-12.977-6.675-25.081-15.207-35.975-25.358c-1.719-1.6-4.407-1.506-6.007,0.212
		c-1.601,1.718-1.505,4.406,0.212,6.007c11.466,10.684,24.211,19.666,37.882,26.698c0.622,0.32,1.286,0.472,1.94,0.472
		c1.542,0,3.029-0.842,3.783-2.307C155.751,401.615,154.93,399.053,152.843,397.979z"/>
</g>
<g>
</g>
<g>
</g>
<g>
</g>
<g>
</g>
<g>
</g>
<g>
</g>
<g>
</g>
<g>
</g>
<g>
</g>
<g>
</g>
<g>
</g>
<g>
</g>
<g>
</g>
<g>
</g>
<g>
</g>
</svg>
