<?xml version="1.0" encoding="iso-8859-1"?>
<!-- Generator: Adobe Illustrator 18.0.0, SVG Export Plug-In . SVG Version: 6.00 Build 0)  -->
<!DOCTYPE svg PUBLIC "-//W3C//DTD SVG 1.1//EN" "http://www.w3.org/Graphics/SVG/1.1/DTD/svg11.dtd">
<svg version="1.1" id="Capa_1" xmlns="http://www.w3.org/2000/svg" xmlns:xlink="http://www.w3.org/1999/xlink" x="0px" y="0px"
	 viewBox="0 0 496.5 496.5" style="enable-background:new 0 0 496.5 496.5;" xml:space="preserve">
<g>
	<path d="M232.621,167.346c33.164,0,59.357,8.343,75.746,24.127c12.218,11.768,14.855,23.726,14.901,23.944
		c0.407,2.015,2.179,3.408,4.16,3.408c0.274,0,0.553-0.027,0.832-0.082c2.303-0.457,3.799-2.694,3.342-4.996
		c-0.115-0.578-2.97-14.314-16.877-27.947c-12.544-12.296-36.971-26.954-82.104-26.954c-2.348,0-4.25,1.902-4.25,4.25
		C228.371,165.444,230.273,167.346,232.621,167.346z"/>
	<path d="M52.835,234.038c0.36,5.691,2.193,18.015,11.026,27.164c0.785,0.814,1.61,1.575,2.464,2.298H48.9
		c-1.528-0.072-10.911-0.191-18.491,6.852c-6.318,5.87-9.522,14.838-9.522,26.656c0,13.384,3.453,23.441,10.264,29.895
		c6.996,6.628,15.232,7.083,17.358,7.083c0.146,0,0.264-0.003,0.35-0.005h138.228c31.871,0,43.024-9.108,46.883-14.763
		c0.708,0.184,1.427,0.342,2.157,0.462l115.921,18.739c1.248,0.204,2.518,0.308,3.774,0.308c11.129,0,20.536-7.795,22.706-18.642
		c5.618,1.225,11.52,1.826,17.454,1.826c16.877,0,33.934-4.785,45.07-13.298l33.685-0.329c3.41-0.033,6.603-1.393,8.989-3.826
		c2.387-2.434,3.683-5.651,3.649-9.061l-0.835-85.126c-0.069-6.968-5.794-12.636-12.76-12.636c-0.014,0-0.112,0-0.126,0
		l-37.559,0.366c-4.392-2.847-9.108-5.192-14.048-6.97c-25.517-9.182-52.981-2.131-71.065,15.796
		c-2.596-6.767-8.142-17.837-19.306-28.907c-15.891-15.758-46.764-34.542-103.596-34.542l-108.418,0.001
		c-1.229-0.014-30.39-0.346-49.971,18.869c-11.237,11.027-16.935,26.135-16.935,44.902L52.835,234.038z M355.822,330.226
		c-0.798,0-1.605-0.065-2.409-0.197l-115.92-18.739c-3.876-0.635-7.272-2.741-9.564-5.93c-2.276-3.168-3.191-7.026-2.581-10.875
		l18.367-89.521c0.012-0.056,0.021-0.112,0.031-0.168c1.169-7.145,7.261-12.33,14.486-12.33c0.797,0,1.603,0.066,2.397,0.196
		l12.47,2.043c3.877,0.634,7.274,2.739,9.566,5.929c2.267,3.155,3.185,6.999,2.59,10.835l-13.215,58.063
		c-0.261,1.144-0.037,2.344,0.618,3.316c0.654,0.973,1.682,1.632,2.839,1.821l84.718,13.867c8.001,1.311,13.445,8.887,12.136,16.886
		l-1.381,8.437l-69.516-10.644c-2.328-0.356-4.489,1.239-4.845,3.558c-0.355,2.32,1.237,4.489,3.558,4.845l68.756,10.527
		C366.49,327.002,361.514,330.226,355.822,330.226z M331.698,262.997c0.453,4.271,1.254,8.523,2.392,12.65l-26.092-4.271
		C316.318,269.729,324.865,267.118,331.698,262.997z M455.334,206.315v32.225c0,2.348,1.902,4.25,4.25,4.25
		c2.348,0,4.25-1.902,4.25-4.25v-32.308l9.947-0.097c2.325,0,4.236,1.893,4.26,4.22l0.835,85.125
		c0.012,1.139-0.422,2.213-1.219,3.026c-0.797,0.813-1.863,1.267-3.002,1.277l-31.01,0.303l-4.346-93.615L455.334,206.315z
		 M419.171,199.03c4.045,1.455,7.906,3.365,11.536,5.642l4.535,97.69c-13.228,9.666-36.449,13.556-55.304,9.334l0.802-4.9
		c2.066-12.624-6.524-24.577-19.15-26.647l-18.125-2.967c-4.677-13.711-4.93-30.082-0.548-42.258
		C354.043,204.003,388.25,187.905,419.171,199.03z M48.477,271.988c0.104,0.008,0.208,0.012,0.313,0.012h88.144
		c2.348,0,4.25-1.902,4.25-4.25c0-2.348-1.902-4.25-4.25-4.25H92.396c-0.007,0-0.013-0.002-0.02-0.002
		c-9.584,0-17.105-2.743-22.355-8.154c-7.944-8.188-8.701-20.342-8.763-23.391v-24.802c0-16.374,4.826-29.426,14.345-38.792
		c16.99-16.719,43.632-16.467,43.981-16.48h108.498c42.416,0,76.032,10.957,97.214,31.687
		c13.814,13.519,18.253,27.222,19.204,30.701c-3.969,5.288-7.228,11.242-9.581,17.779c-2.278,6.332-3.483,13.481-3.644,20.851
		c-12.161,10.641-38.736,12.442-49.627,12.723l11.926-52.399c0.02-0.085,0.036-0.171,0.051-0.257
		c1.001-6.117-0.44-12.258-4.057-17.29c-3.618-5.032-8.978-8.355-15.095-9.356l-12.47-2.043c-1.247-0.204-2.516-0.308-3.771-0.308
		c-11.381,0-20.981,8.141-22.86,19.369l-10.347,50.429c-15.848-16.773-57.649-22.42-63.257-23.109
		c-2.343-0.283-4.45,1.371-4.736,3.7c-0.287,2.329,1.369,4.449,3.699,4.736c22.806,2.811,59.499,12.65,61.733,27.154l-5.462,26.619
		c-0.012,0.056-0.021,0.111-0.031,0.167c-1.002,6.116,0.438,12.256,4.055,17.289c1.434,1.994,3.149,3.708,5.069,5.127
		c-3.222,3.6-12.663,10.033-39.009,10.033H48.789c-0.053,0-0.142,0.003-0.194,0.005c-0.266-0.005-6.479,0.179-11.705-4.857
		c-2.98-2.871-5.073-6.88-6.279-11.961h66.211c2.348,0,4.25-1.902,4.25-4.25c0-2.348-1.902-4.25-4.25-4.25H29.47
		c-0.05-1.026-0.082-2.074-0.082-3.159c0-3.456,0.314-6.571,0.936-9.34h20.001c2.348,0,4.25-1.902,4.25-4.25
		c0-2.348-1.902-4.25-4.25-4.25H33.932c0.657-0.92,1.382-1.76,2.18-2.512C41.449,271.629,48.438,271.986,48.477,271.988z"/>
	<path d="M492.25,344.623h-488c-2.348,0-4.25,1.902-4.25,4.25c0,2.348,1.902,4.25,4.25,4.25h488c2.348,0,4.25-1.902,4.25-4.25
		C496.5,346.525,494.598,344.623,492.25,344.623z"/>
</g>
<g>
</g>
<g>
</g>
<g>
</g>
<g>
</g>
<g>
</g>
<g>
</g>
<g>
</g>
<g>
</g>
<g>
</g>
<g>
</g>
<g>
</g>
<g>
</g>
<g>
</g>
<g>
</g>
<g>
</g>
</svg>
