<?xml version="1.0" encoding="iso-8859-1"?>
<!-- Generator: Adobe Illustrator 18.0.0, SVG Export Plug-In . SVG Version: 6.00 Build 0)  -->
<!DOCTYPE svg PUBLIC "-//W3C//DTD SVG 1.1//EN" "http://www.w3.org/Graphics/SVG/1.1/DTD/svg11.dtd">
<svg version="1.1" id="Capa_1" xmlns="http://www.w3.org/2000/svg" xmlns:xlink="http://www.w3.org/1999/xlink" x="0px" y="0px"
	 viewBox="0 0 494.277 494.277" style="enable-background:new 0 0 494.277 494.277;" xml:space="preserve">
<g>
	<path d="M247.967,74.332c2.348,0,4.25-1.903,4.25-4.25V4.25c0-2.347-1.902-4.25-4.25-4.25c-2.348,0-4.25,1.903-4.25,4.25v65.832
		C243.717,72.43,245.619,74.332,247.967,74.332z"/>
	<path d="M247.967,419.944c-2.348,0-4.25,1.903-4.25,4.25v65.833c0,2.347,1.902,4.25,4.25,4.25c2.348,0,4.25-1.903,4.25-4.25
		v-65.833C252.217,421.847,250.315,419.944,247.967,419.944z"/>
	<path d="M176.284,85.187c0.679,1.637,2.261,2.625,3.929,2.625c0.542,0,1.093-0.104,1.624-0.325
		c2.169-0.898,3.199-3.384,2.301-5.553l-13.413-32.382c-0.9-2.169-3.387-3.199-5.553-2.3c-2.169,0.898-3.199,3.384-2.301,5.553
		L176.284,85.187z"/>
	<path d="M319.65,409.09c-0.898-2.168-3.386-3.2-5.553-2.3c-2.169,0.898-3.199,3.384-2.301,5.553l13.413,32.382
		c0.678,1.637,2.261,2.624,3.929,2.624c0.542,0,1.093-0.104,1.624-0.325c2.169-0.898,3.199-3.384,2.301-5.553L319.65,409.09z"/>
	<path d="M50.379,169.895l32.383,13.414c0.531,0.221,1.082,0.325,1.624,0.325c1.668,0,3.251-0.988,3.929-2.625
		c0.898-2.168-0.132-4.655-2.3-5.553l-32.383-13.414c-2.167-0.9-4.653,0.131-5.553,2.3
		C47.181,166.511,48.211,168.997,50.379,169.895z"/>
	<path d="M445.556,324.381l-32.384-13.413c-2.168-0.899-4.655,0.131-5.553,2.3c-0.898,2.169,0.132,4.655,2.301,5.553l32.384,13.413
		c0.531,0.22,1.082,0.324,1.624,0.324c1.668,0,3.251-0.988,3.929-2.625C448.754,327.765,447.725,325.279,445.556,324.381z"/>
	<path d="M88.315,313.27c-0.898-2.168-3.386-3.199-5.553-2.3L50.38,324.383c-2.169,0.898-3.199,3.384-2.301,5.553
		c0.678,1.637,2.261,2.625,3.929,2.625c0.542,0,1.093-0.104,1.624-0.325l32.382-13.413C88.183,317.925,89.213,315.439,88.315,313.27
		z"/>
	<path d="M407.617,181.009c0.679,1.637,2.261,2.624,3.929,2.624c0.542,0,1.093-0.104,1.624-0.325l32.384-13.414
		c2.169-0.898,3.199-3.384,2.301-5.553c-0.899-2.169-3.385-3.199-5.553-2.3l-32.384,13.414
		C407.749,176.354,406.719,178.841,407.617,181.009z"/>
	<path d="M181.839,406.791c-2.172-0.901-4.655,0.131-5.554,2.3l-13.414,32.382c-0.898,2.168,0.132,4.655,2.3,5.553
		c0.532,0.221,1.083,0.325,1.625,0.325c1.668,0,3.25-0.988,3.929-2.624l13.414-32.382
		C185.037,410.176,184.007,407.689,181.839,406.791z"/>
	<path d="M314.104,87.485c0.532,0.221,1.083,0.325,1.625,0.325c1.668,0,3.25-0.988,3.929-2.625l13.415-32.384
		c0.899-2.169-0.132-4.655-2.3-5.553c-2.172-0.901-4.654,0.131-5.554,2.3l-13.415,32.384
		C310.905,84.101,311.936,86.587,314.104,87.485z"/>
	<path d="M486.428,243.979h-65.835c-2.348,0-4.25,1.903-4.25,4.25s1.902,4.25,4.25,4.25h65.835c2.348,0,4.25-1.903,4.25-4.25
		S488.776,243.979,486.428,243.979z"/>
	<path d="M77.933,248.229c0-2.347-1.902-4.25-4.25-4.25H7.849c-2.348,0-4.25,1.903-4.25,4.25c0,2.347,1.902,4.25,4.25,4.25h65.834
		C76.03,252.479,77.933,250.576,77.933,248.229z"/>
	<path d="M372.92,126.777c1.088,0,2.176-0.415,3.005-1.245l46.552-46.55c1.66-1.66,1.66-4.351,0-6.011
		c-1.658-1.659-4.352-1.659-6.01,0l-46.552,46.55c-1.66,1.66-1.66,4.351,0,6.011C370.744,126.362,371.832,126.777,372.92,126.777z"
		/>
	<path d="M119.523,369.916l-46.552,46.551c-1.66,1.66-1.66,4.351,0,6.011c0.83,0.829,1.917,1.245,3.005,1.245
		s2.176-0.415,3.005-1.245l46.552-46.551c1.66-1.66,1.66-4.351,0-6.011C123.872,368.257,121.181,368.257,119.523,369.916z"/>
	<path d="M372.023,367.555c-1.66-1.659-4.352-1.659-6.01,0c-1.66,1.66-1.66,4.351,0,6.011l46.551,46.552
		c0.83,0.83,1.917,1.245,3.005,1.245c1.088,0,2.176-0.415,3.005-1.245c1.66-1.66,1.66-4.351,0-6.011L372.023,367.555z"/>
	<path d="M120.709,128.263c0.83,0.83,1.917,1.245,3.005,1.245c1.088,0,2.176-0.415,3.005-1.245c1.66-1.66,1.66-4.351,0-6.011
		L80.168,75.701c-1.66-1.659-4.351-1.659-6.01,0c-1.66,1.66-1.66,4.351,0,6.011L120.709,128.263z"/>
	<path d="M247.889,342.875c52.245,0,94.75-42.505,94.75-94.75s-42.505-94.75-94.75-94.75s-94.75,42.505-94.75,94.75
		S195.644,342.875,247.889,342.875z M247.889,161.876c47.559,0,86.25,38.691,86.25,86.25s-38.691,86.25-86.25,86.25
		s-86.25-38.691-86.25-86.25S200.33,161.876,247.889,161.876z"/>
	<path d="M247.889,185.375c34.601,0,62.75,28.149,62.75,62.75c0,2.347,1.902,4.25,4.25,4.25c2.348,0,4.25-1.903,4.25-4.25
		c0-39.288-31.963-71.25-71.25-71.25c-2.348,0-4.25,1.903-4.25,4.25S245.541,185.375,247.889,185.375z"/>
	<path d="M247.889,318.955c2.348,0,4.25-1.903,4.25-4.25s-1.902-4.25-4.25-4.25c-34.368,0-62.329-27.961-62.329-62.329
		c0-2.347-1.902-4.25-4.25-4.25c-2.348,0-4.25,1.903-4.25,4.25C177.06,287.181,208.833,318.955,247.889,318.955z"/>
	<path d="M247.889,371.311c67.925,0,123.186-55.261,123.186-123.186S315.814,124.94,247.889,124.94s-123.187,55.261-123.187,123.185
		S179.964,371.311,247.889,371.311z M247.889,133.44c63.238,0,114.686,51.448,114.686,114.685
		c0,63.238-51.447,114.686-114.686,114.686s-114.687-51.448-114.687-114.686C133.202,184.888,184.651,133.44,247.889,133.44z"/>
	<path d="M109.65,248.126c0-14.019,2.092-27.849,6.217-41.108c0.697-2.241-0.555-4.624-2.796-5.321
		c-2.245-0.698-4.623,0.555-5.321,2.795c-4.379,14.077-6.6,28.758-6.6,43.633c0,25.643,6.714,50.884,19.416,72.995
		c0.786,1.368,2.218,2.133,3.689,2.133c0.718,0,1.446-0.182,2.113-0.565c2.035-1.169,2.737-3.767,1.568-5.802
		C115.973,296.062,109.65,272.285,109.65,248.126z"/>
	<path d="M275.755,383.556c-9.11,1.864-18.486,2.809-27.866,2.809c-41.651,0-80.677-18.513-107.07-50.792
		c-1.484-1.816-4.161-2.086-5.98-0.6c-1.817,1.486-2.086,4.163-0.6,5.98c28.015,34.261,69.438,53.911,113.65,53.911
		c9.951,0,19.899-1.003,29.569-2.981c2.3-0.47,3.782-2.716,3.313-5.016C280.3,384.567,278.048,383.083,275.755,383.556z"/>
	<path d="M376.779,309.1c-2.094-1.07-4.65-0.239-5.719,1.85c-13.218,25.861-34.755,47.347-60.645,60.499
		c-2.093,1.063-2.928,3.622-1.864,5.714c0.75,1.476,2.243,2.326,3.792,2.326c0.648,0,1.306-0.148,1.922-0.462
		c27.479-13.96,50.337-36.763,64.364-64.21C379.697,312.728,378.868,310.168,376.779,309.1z"/>
	<path d="M377.341,188.354c-2.158,0.921-3.162,3.417-2.241,5.577c7.317,17.154,11.027,35.388,11.027,54.195
		c0,2.347,1.902,4.25,4.25,4.25c2.348,0,4.25-1.903,4.25-4.25c0-19.96-3.939-39.315-11.709-57.53
		C381.998,188.438,379.501,187.433,377.341,188.354z"/>
	<path d="M284.704,114.842c27.352,7.539,51.44,23.138,69.658,45.113c0.84,1.014,2.053,1.538,3.273,1.538
		c0.956,0,1.917-0.321,2.711-0.978c1.807-1.498,2.057-4.177,0.559-5.984c-19.334-23.322-44.903-39.88-73.943-47.883
		c-2.269-0.624-4.603,0.706-5.227,2.968C281.113,111.878,282.442,114.218,284.704,114.842z"/>
	<path d="M192.427,121.085c0.552,0,1.113-0.108,1.653-0.336c17.042-7.207,35.146-10.861,53.809-10.861c2.348,0,4.25-1.903,4.25-4.25
		c0-2.347-1.902-4.25-4.25-4.25c-19.807,0-39.024,3.88-57.119,11.532c-2.162,0.915-3.173,3.408-2.259,5.57
		C189.196,120.111,190.771,121.085,192.427,121.085z"/>
</g>
<g>
</g>
<g>
</g>
<g>
</g>
<g>
</g>
<g>
</g>
<g>
</g>
<g>
</g>
<g>
</g>
<g>
</g>
<g>
</g>
<g>
</g>
<g>
</g>
<g>
</g>
<g>
</g>
<g>
</g>
</svg>
